<svg width="64" height="64" viewBox="0 0 64 64" fill="none" xmlns="http://www.w3.org/2000/svg">
<g clipPath="url(#clip0_95_1266)">
<path d="M61.6389 53.5005H61.5003V28.6161L63.6286 26.4878C63.7447 26.3717 63.8368 26.234 63.8996 26.0823C63.9624 25.9307 63.9947 25.7682 63.9947 25.604C63.9947 25.4399 63.9624 25.2773 63.8996 25.1257C63.8368 24.9741 63.7447 24.8363 63.6286 24.7202L58.3253 19.4164C58.2093 19.3004 58.0715 19.2083 57.9199 19.1455C57.7682 19.0826 57.6057 19.0503 57.4416 19.0503C57.2774 19.0503 57.1149 19.0826 56.9632 19.1455C56.8116 19.2083 56.6738 19.3004 56.5578 19.4164L55.5001 20.4741V1.24972C55.5001 1.08557 55.4677 0.923029 55.4049 0.77138C55.3421 0.619731 55.25 0.481945 55.1339 0.365894C55.0178 0.249842 54.88 0.157798 54.7283 0.0950195C54.5766 0.032241 54.4141 -4.22713e-05 54.2499 1.37716e-05H37.6251C37.4609 1.37692e-05 37.2984 0.0323398 37.1468 0.0951461C36.9952 0.157952 36.8574 0.250009 36.7414 0.36606C36.6253 0.482111 36.5332 0.619883 36.4704 0.771511C36.4076 0.923139 36.3753 1.08565 36.3753 1.24977C36.3753 1.41389 36.4076 1.57641 36.4704 1.72804C36.5332 1.87966 36.6253 2.01744 36.7414 2.13349C36.8574 2.24954 36.9952 2.3416 37.1468 2.4044C37.2984 2.46721 37.4609 2.49953 37.6251 2.49953H53.0001V22.9737L43.9739 32H15.8613C15.5299 32 15.212 32.1317 14.9776 32.3661C14.7432 32.6004 14.6116 32.9183 14.6116 33.2498C14.6116 33.5812 14.7432 33.8991 14.9776 34.1335C15.212 34.3679 15.5299 34.4995 15.8613 34.4995H41.4732L35.9739 39.9988H15.8613C15.5299 39.9988 15.212 40.1305 14.9776 40.3649C14.7432 40.5993 14.6116 40.9171 14.6116 41.2486C14.6116 41.5801 14.7432 41.8979 14.9776 42.1323C15.212 42.3667 15.5299 42.4984 15.8613 42.4984H33.4741L31.5739 44.3986C31.4646 44.5079 31.3766 44.6365 31.3143 44.7779L27.4802 53.4971H10.9999V2.49953H26.3749C26.5391 2.49953 26.7016 2.46721 26.8532 2.4044C27.0048 2.3416 27.1426 2.24954 27.2586 2.13349C27.3747 2.01744 27.4668 1.87966 27.5296 1.72804C27.5924 1.57641 27.6247 1.41389 27.6247 1.24977C27.6247 1.08565 27.5924 0.923139 27.5296 0.771511C27.4668 0.619883 27.3747 0.482111 27.2586 0.36606C27.1426 0.250009 27.0048 0.157952 26.8532 0.0951461C26.7016 0.0323398 26.5391 1.37692e-05 26.3749 1.37716e-05H9.75008C9.58547 -0.000758973 9.42234 0.0309953 9.27004 0.0934529C9.11774 0.15591 8.97928 0.247841 8.86261 0.363964C8.74594 0.480087 8.65336 0.618114 8.59019 0.770119C8.52702 0.922125 8.4945 1.08511 8.49451 1.24972V20.5068C6.88227 20.5731 5.358 21.2597 4.24001 22.4233C3.12202 23.5868 2.49676 25.1372 2.49483 26.7508V53.5005H2.36107C1.73509 53.5011 1.13492 53.75 0.692271 54.1926C0.249619 54.6352 0.00064954 55.2354 0 55.8613C0.00180781 58.0193 0.859852 60.0884 2.38576 61.6143C3.91166 63.1402 5.98071 63.9982 8.13867 64H55.8613C58.0193 63.9982 60.0883 63.1402 61.6142 61.6143C63.1402 60.0884 63.9982 58.0193 64 55.8613C63.9994 55.2353 63.7505 54.6351 63.3078 54.1925C62.8652 53.7498 62.2649 53.5009 61.6389 53.5003V53.5005ZM57.4417 22.0684L60.9745 25.6L37.7612 48.8204L34.226 45.2852L57.4417 22.0684ZM59.001 31.1168V53.5005H55.5055V34.6159L59.001 31.1168ZM53.0001 37.12V53.504H34.2435L38.2639 51.7353C38.4057 51.6731 38.5347 51.5851 38.6444 51.4757L53.0001 37.12ZM32.8692 47.4648L35.5875 50.1831L30.7351 52.3171L32.8692 47.4648ZM5.00363 42.6043V26.7497C5.00483 25.8004 5.3656 24.8869 6.01332 24.1929C6.66103 23.499 7.54759 23.0762 8.49451 23.0097V53.4971H5.00363V42.6043ZM55.8613 61.5005H8.13867C6.66772 61.4986 5.25559 60.9227 4.20282 59.8954C3.15005 58.8681 2.53977 57.4705 2.50187 56H61.4981C61.4602 57.4705 60.85 58.8681 59.7972 59.8954C58.7444 60.9227 57.3323 61.4986 55.8613 61.5005Z" fill="#F37021"/>
<path d="M15.8591 24.001C15.5277 24.001 15.2098 24.1326 14.9754 24.367C14.741 24.6014 14.6094 24.9193 14.6094 25.2507C14.6094 25.5822 14.741 25.9001 14.9754 26.1344C15.2098 26.3688 15.5277 26.5005 15.8591 26.5005H26.2805C26.6119 26.5005 26.9298 26.3688 27.1642 26.1344C27.3986 25.9001 27.5302 25.5822 27.5302 25.2507C27.5302 24.9193 27.3986 24.6014 27.1642 24.367C26.9298 24.1326 26.6119 24.001 26.2805 24.001H15.8591Z" fill="#F37021"/>
<path d="M35.8667 17.2495C35.8664 16.9183 35.7346 16.6007 35.5003 16.3666C35.2659 16.1325 34.9482 16.001 34.617 16.001H15.8591C15.5277 16.001 15.2098 16.1326 14.9754 16.367C14.741 16.6014 14.6094 16.9193 14.6094 17.2507C14.6094 17.5822 14.741 17.9001 14.9754 18.1344C15.2098 18.3688 15.5277 18.5005 15.8591 18.5005H34.617C34.7812 18.5005 34.9438 18.4681 35.0955 18.4052C35.2472 18.3423 35.385 18.2502 35.5011 18.134C35.6171 18.0179 35.7091 17.88 35.7719 17.7282C35.8346 17.5765 35.8668 17.4137 35.8667 17.2495Z" fill="#F37021"/>
<path d="M49.3909 17.2495C49.3906 16.9183 49.2588 16.6007 49.0245 16.3666C48.7901 16.1324 48.4724 16.0009 48.1411 16.001H41.6248C41.2933 16.001 40.9754 16.1326 40.741 16.367C40.5067 16.6014 40.375 16.9193 40.375 17.2507C40.375 17.5822 40.5067 17.9001 40.741 18.1344C40.9754 18.3688 41.2933 18.5005 41.6248 18.5005H48.1411C48.3054 18.5005 48.468 18.4682 48.6197 18.4053C48.7714 18.3424 48.9093 18.2502 49.0253 18.1341C49.1414 18.0179 49.2334 17.8799 49.2962 17.7282C49.3589 17.5764 49.3911 17.4137 49.3909 17.2495Z" fill="#F37021"/>
<path d="M15.8591 10.4995H20.63C20.9615 10.4995 21.2794 10.3678 21.5137 10.1335C21.7481 9.8991 21.8798 9.58122 21.8798 9.24976C21.8798 8.9183 21.7481 8.60042 21.5137 8.36605C21.2794 8.13167 20.9615 8 20.63 8H15.8591C15.5277 8 15.2098 8.13167 14.9754 8.36605C14.741 8.60042 14.6094 8.9183 14.6094 9.24976C14.6094 9.58122 14.741 9.8991 14.9754 10.1335C15.2098 10.3678 15.5277 10.4995 15.8591 10.4995Z" fill="#F37021"/>
<path d="M26.375 9.24981C26.375 9.58127 26.5067 9.89913 26.7411 10.1335C26.9755 10.3679 27.2934 10.4995 27.6248 10.4995H48.135C48.4665 10.4995 48.7843 10.3678 49.0187 10.1335C49.2531 9.8991 49.3848 9.58122 49.3848 9.24976C49.3848 8.9183 49.2531 8.60042 49.0187 8.36605C48.7843 8.13167 48.4665 8 48.135 8H27.6236C27.2924 8.00028 26.9748 8.13209 26.7406 8.36645C26.5065 8.6008 26.375 8.91854 26.375 9.24981Z" fill="#F37021"/>
<path d="M32.0003 2.4992C32.2894 2.49904 32.5694 2.39867 32.7928 2.21518C33.0162 2.03169 33.169 1.77644 33.2253 1.4929C33.2816 1.20937 33.2378 0.915091 33.1015 0.660199C32.9651 0.405308 32.7446 0.205569 32.4775 0.09501C32.2104 -0.0155494 31.9133 -0.0300911 31.6367 0.0538623C31.3601 0.137816 31.1211 0.315071 30.9605 0.555432C30.8 0.795794 30.7277 1.08439 30.756 1.37207C30.7843 1.65974 30.9115 1.9287 31.1159 2.13312C31.3505 2.36772 31.6686 2.49956 32.0003 2.49963V2.4992Z" fill="#F37021"/>
<path d="M33.281 26.5005H44.8757C45.2071 26.5005 45.525 26.3688 45.7594 26.1344C45.9938 25.9001 46.1254 25.5822 46.1254 25.2507C46.1254 24.9193 45.9938 24.6014 45.7594 24.367C45.525 24.1326 45.2071 24.001 44.8757 24.001H33.281C32.9496 24.001 32.6317 24.1326 32.3973 24.367C32.1629 24.6014 32.0312 24.9193 32.0312 25.2507C32.0312 25.5822 32.1629 25.9001 32.3973 26.1344C32.6317 26.3688 32.9496 26.5005 33.281 26.5005Z" fill="#F37021"/>
</g>
<defs>
<clipPath id="clip0_95_1266">
<rect width="64" height="64" fill="white"/>
</clipPath>
</defs>
</svg>
