<svg width="55" height="68" viewBox="0 0 55 68" fill="none" xmlns="http://www.w3.org/2000/svg">
<g clipPath="url(#clip0_95_1238)">
<path d="M2.44579 15.2633C3.59946 14.0551 5.13572 13.2855 6.79252 13.0856C6.31663 11.1989 6.39515 9.21457 7.01862 7.37154C7.64208 5.52851 8.78392 3.90532 10.3067 2.6974C12.1115 1.26134 14.343 0.469943 16.6476 0.448682C18.9522 0.427421 21.1979 1.1775 23.0288 2.58003C24.2715 3.53832 25.276 4.77173 25.9638 6.18373C26.6516 7.59574 27.004 9.14805 26.9935 10.7192C28.5577 10.481 30.1573 10.7142 31.5889 11.3891C33.0496 12.0387 34.2986 13.0867 35.1932 14.4135C36.0878 15.7403 36.5921 17.2925 36.6483 18.8927C36.6674 20.008 36.4618 21.1156 36.0438 22.1494C35.6257 23.1832 35.0039 24.1219 34.2155 24.9093C33.4289 25.7054 32.4919 26.3366 31.4593 26.766C30.4266 27.1954 29.3189 27.4144 28.2009 27.4102H7.90624C6.00106 27.435 4.16029 26.7197 2.76989 25.4144C1.37948 24.1091 0.54741 22.3151 0.448135 20.4086C0.421433 19.4608 0.584436 18.5172 0.92753 17.6335C1.27062 16.7498 1.78686 15.9439 2.44579 15.2633ZM1.60059 20.3797C1.68777 21.9883 2.39343 23.5005 3.56948 24.5989C4.74552 25.6973 6.3005 26.2965 7.90804 26.2708H28.2009C29.1667 26.2744 30.1235 26.0852 31.0155 25.7142C31.9076 25.3433 32.7169 24.798 33.3964 24.1103C34.077 23.43 34.6136 22.6191 34.9742 21.7262C35.3347 20.8332 35.5119 19.8766 35.495 18.9135C35.4433 17.5287 35.004 16.1863 34.2273 15.0398C33.4506 13.8932 32.3677 12.9886 31.1023 12.4292C30.1954 11.9995 29.205 11.7757 28.2018 11.7738C27.654 11.776 27.1082 11.8396 26.5745 11.9634C26.4679 11.9862 26.3573 11.9816 26.253 11.95C26.1487 11.9184 26.0541 11.8609 25.978 11.7828C25.867 11.6538 25.8096 11.4871 25.8176 11.3169C25.9278 9.82341 25.666 8.32586 25.0558 6.95879C24.4456 5.59172 23.506 4.39794 22.3214 3.48469C20.6964 2.24174 18.7041 1.57719 16.6597 1.59616C14.6153 1.61513 12.6357 2.31653 11.0338 3.58942C9.59664 4.73044 8.54385 6.28618 8.01784 8.04625C7.49183 9.80632 7.51798 11.6858 8.09276 13.4305C8.12038 13.5153 8.12768 13.6054 8.11406 13.6936C8.10044 13.7817 8.06628 13.8654 8.01436 13.9379C7.962 14.0107 7.89347 14.0702 7.81419 14.1119C7.73491 14.1536 7.64704 14.1762 7.55752 14.178C6.75598 14.1921 5.96513 14.3649 5.23056 14.6866C4.49598 15.0083 3.83221 15.4725 3.27747 16.0524C2.72414 16.6252 2.29074 17.3032 2.00276 18.0463C1.71478 18.7895 1.57805 19.5828 1.60059 20.3797Z" fill="#F37021" stroke="#F37021"/>
<path d="M20.06 13.3203C19.2674 13.3213 18.5075 13.6372 17.947 14.1988C17.3865 14.7604 17.0713 15.5218 17.0703 16.316V18.7121C17.0703 19.5066 17.3853 20.2686 17.946 20.8304C18.5067 21.3922 19.2671 21.7078 20.06 21.7078C20.853 21.7078 21.6134 21.3922 22.1741 20.8304C22.7348 20.2686 23.0498 19.5066 23.0498 18.7121V16.316C23.0488 15.5218 22.7335 14.7604 22.173 14.1988C21.6126 13.6372 20.8527 13.3213 20.06 13.3203ZM21.854 18.713C21.854 19.1898 21.665 19.647 21.3286 19.9841C20.9922 20.3212 20.5358 20.5106 20.06 20.5106C19.5842 20.5106 19.1279 20.3212 18.7915 19.9841C18.455 19.647 18.266 19.1898 18.266 18.713V16.3169C18.266 15.8401 18.455 15.3829 18.7915 15.0458C19.1279 14.7087 19.5842 14.5193 20.06 14.5193C20.5358 14.5193 20.9922 14.7087 21.3286 15.0458C21.665 15.3829 21.854 15.8401 21.854 16.3169V18.713Z" fill="#F37021" stroke="#F37021" stroke-linecap="round"/>
<path d="M13.1119 14.5188C13.651 14.5216 14.1722 14.7133 14.5851 15.0605C14.7074 15.1596 14.8637 15.2064 15.0202 15.1909C15.1767 15.1753 15.3207 15.0987 15.4213 14.9776C15.5218 14.8564 15.5707 14.7005 15.5574 14.5435C15.5441 14.3866 15.4696 14.2411 15.3501 14.1387C14.7211 13.6152 13.9296 13.3279 13.1119 13.3262C12.1689 13.3355 11.268 13.7192 10.607 14.3932C9.94602 15.0672 9.57884 15.9764 9.58604 16.9213V18.1194C9.57884 19.0643 9.94602 19.9735 10.607 20.6475C11.268 21.3215 12.1689 21.7052 13.1119 21.7145C13.9296 21.7129 14.7211 21.4255 15.3501 20.902C15.4696 20.7996 15.5441 20.6541 15.5574 20.4971C15.5707 20.3402 15.5218 20.1843 15.4213 20.0631C15.3207 19.942 15.1767 19.8653 15.0202 19.8498C14.8637 19.8343 14.7074 19.8811 14.5851 19.9802C14.1722 20.3275 13.651 20.5192 13.1119 20.5219C12.4859 20.5129 11.8891 20.2554 11.4522 19.806C11.0154 19.3567 10.7743 18.752 10.7817 18.1248V16.9267C10.7766 16.6152 10.8329 16.3058 10.9472 16.0161C11.0616 15.7264 11.2319 15.4622 11.4484 15.2385C11.6648 15.0148 11.9231 14.8361 12.2086 14.7127C12.494 14.5892 12.801 14.5233 13.1119 14.5188Z" fill="#F37021" stroke="#F37021" stroke-linecap="round"/>
<path d="M29.4829 17.4416C29.4829 16.7951 29.2266 16.1751 28.7704 15.7179C28.3141 15.2608 27.6953 15.0039 27.0501 15.0039C26.4048 15.0039 25.786 15.2608 25.3298 15.7179C24.8735 16.1751 24.6172 16.7951 24.6172 17.4416C24.6172 17.6034 24.6813 17.7585 24.7955 17.8729C24.9096 17.9872 25.0644 18.0515 25.2259 18.0515C25.3873 18.0515 25.5421 17.9872 25.6563 17.8729C25.7704 17.7585 25.8345 17.6034 25.8345 17.4416C25.8345 17.1184 25.9627 16.8083 26.1908 16.5798C26.4189 16.3512 26.7283 16.2228 27.0509 16.2228C27.3736 16.2228 27.683 16.3512 27.9111 16.5798C28.1392 16.8083 28.2674 17.1184 28.2674 17.4416C28.2675 17.7162 28.1999 17.9867 28.0705 18.2288C27.9411 18.4709 27.754 18.6772 27.5258 18.8293L24.8884 20.5908C24.7802 20.6636 24.6982 20.7694 24.6545 20.8924C24.6107 21.0155 24.6075 21.1493 24.6453 21.2743C24.6832 21.3993 24.76 21.5089 24.8646 21.5869C24.9692 21.6648 25.0959 21.7072 25.2263 21.7076H28.8774C29.0388 21.7076 29.1937 21.6433 29.3078 21.529C29.422 21.4146 29.4861 21.2595 29.4861 21.0977C29.4861 20.936 29.422 20.7808 29.3078 20.6665C29.1937 20.5521 29.0388 20.4878 28.8774 20.4878H27.2366L28.2025 19.8432C28.597 19.5796 28.9202 19.2225 29.1436 18.8035C29.367 18.3845 29.4836 17.9166 29.4829 17.4416Z" fill="#F37021"/>
<path d="M49.8617 67.548H27.1152C25.8725 67.548 24.6808 67.0534 23.802 66.1729C22.9233 65.2925 22.4297 64.0983 22.4297 62.8532V32.019C22.4297 30.7739 22.9233 29.5798 23.802 28.6993C24.6808 27.8189 25.8725 27.3242 27.1152 27.3242H49.8617C50.477 27.3242 51.0863 27.4457 51.6547 27.6816C52.2232 27.9175 52.7397 28.2633 53.1748 28.6993C53.6099 29.1353 53.9551 29.6528 54.1905 30.2224C54.426 30.792 54.5472 31.4025 54.5472 32.019V62.855C54.5467 64.0998 54.0528 65.2935 53.1742 66.1736C52.2955 67.0536 51.104 67.548 49.8617 67.548ZM27.1152 28.665C26.2276 28.6654 25.3764 29.019 24.7487 29.6479C24.1211 30.2768 23.7682 31.1296 23.7678 32.019V62.855C23.7687 63.7441 24.1218 64.5965 24.7494 65.225C25.377 65.8535 26.2279 66.2068 27.1152 66.2073H49.8617C50.7487 66.2063 51.5991 65.8528 52.2263 65.2244C52.8536 64.5959 53.2064 63.7438 53.2073 62.855V32.019C53.2064 31.1303 52.8536 30.2781 52.2263 29.6497C51.5991 29.0212 50.7487 28.6677 49.8617 28.6668L27.1152 28.665Z" fill="#F37021" stroke="#F37021"/>
<path d="M40.446 63.5787H36.8417C36.3519 63.5664 35.887 63.3599 35.5491 63.0044C35.2112 62.6489 35.028 62.1735 35.0396 61.6828V59.1548C35.028 58.664 35.2112 58.1887 35.5491 57.8332C35.887 57.4777 36.3519 57.2711 36.8417 57.2588H40.446C40.9358 57.2711 41.4007 57.4777 41.7385 57.8332C42.0764 58.1887 42.2597 58.664 42.2481 59.1548V61.6828C42.2597 62.1735 42.0764 62.6489 41.7385 63.0044C41.4007 63.3599 40.9358 63.5664 40.446 63.5787ZM36.8417 58.5228C36.6784 58.5268 36.5234 58.5956 36.4107 58.7141C36.298 58.8326 36.2368 58.9911 36.2407 59.1548V61.6828C36.2368 61.8464 36.298 62.0049 36.4107 62.1234C36.5234 62.2419 36.6784 62.3107 36.8417 62.3148H40.446C40.6093 62.3107 40.7643 62.2419 40.877 62.1234C40.9897 62.0049 41.0508 61.8464 41.047 61.6828V59.1548C41.0508 58.9911 40.9897 58.8326 40.877 58.7141C40.7643 58.5956 40.6093 58.5268 40.446 58.5228H36.8417Z" fill="#F37021"/>
<path d="M31.985 63.5787H28.3808C27.891 63.5664 27.4261 63.3599 27.0882 63.0044C26.7503 62.6489 26.567 62.1735 26.5786 61.6828V59.1548C26.567 58.664 26.7503 58.1887 27.0882 57.8332C27.4261 57.4777 27.891 57.2711 28.3808 57.2588H31.985C32.4748 57.2711 32.9397 57.4777 33.2776 57.8332C33.6155 58.1887 33.7988 58.664 33.7872 59.1548V61.6828C33.7988 62.1735 33.6155 62.6489 33.2776 63.0044C32.9397 63.3599 32.4748 63.5664 31.985 63.5787ZM28.3808 58.5228C28.2175 58.5268 28.0624 58.5956 27.9497 58.7141C27.837 58.8326 27.7759 58.9911 27.7798 59.1548V61.6828C27.7759 61.8464 27.837 62.0049 27.9497 62.1234C28.0624 62.2419 28.2175 62.3107 28.3808 62.3148H31.985C32.1483 62.3107 32.3034 62.2419 32.4161 62.1234C32.5288 62.0049 32.5899 61.8464 32.586 61.6828V59.1548C32.5899 58.9911 32.5288 58.8326 32.4161 58.7141C32.3034 58.5956 32.1483 58.5268 31.985 58.5228H28.3808Z" fill="#F37021"/>
<path d="M48.9157 63.6605H45.3115C44.8124 63.637 44.3427 63.4167 44.0051 63.0477C43.6675 62.6786 43.4893 62.1907 43.5093 61.6904V51.1849C43.4893 50.6846 43.6675 50.1967 44.0051 49.8276C44.3427 49.4586 44.8124 49.2383 45.3115 49.2148H48.9157C49.4148 49.2383 49.8844 49.4586 50.2221 49.8276C50.5597 50.1967 50.7379 50.6846 50.7178 51.1849V61.6904C50.7379 62.1907 50.5597 62.6786 50.2221 63.0477C49.8844 63.4167 49.4148 63.637 48.9157 63.6605ZM45.3115 50.5285C45.1451 50.5362 44.9885 50.6096 44.8759 50.7325C44.7633 50.8555 44.7039 51.0181 44.7105 51.1849V61.6904C44.7039 61.8572 44.7633 62.0198 44.8759 62.1427C44.9885 62.2657 45.1451 62.3391 45.3115 62.3468H48.9157C49.0821 62.3391 49.2387 62.2657 49.3513 62.1427C49.4638 62.0198 49.5233 61.8572 49.5167 61.6904V51.1849C49.5233 51.0181 49.4638 50.8555 49.3513 50.7325C49.2387 50.6096 49.0821 50.5362 48.9157 50.5285H45.3115Z" fill="#F37021"/>
<path d="M40.446 55.5348H36.8417C36.3519 55.5225 35.887 55.3159 35.5491 54.9604C35.2112 54.6049 35.028 54.1296 35.0396 53.6388V51.1108C35.028 50.62 35.2112 50.1447 35.5491 49.7892C35.887 49.4337 36.3519 49.2271 36.8417 49.2148H40.446C40.9358 49.2271 41.4007 49.4337 41.7385 49.7892C42.0764 50.1447 42.2597 50.62 42.2481 51.1108V53.6388C42.2597 54.1296 42.0764 54.6049 41.7385 54.9604C41.4007 55.3159 40.9358 55.5225 40.446 55.5348ZM36.8417 50.4788C36.6784 50.4829 36.5234 50.5517 36.4107 50.6702C36.298 50.7887 36.2368 50.9472 36.2407 51.1108V53.6388C36.2368 53.8025 36.298 53.9609 36.4107 54.0795C36.5234 54.198 36.6784 54.2668 36.8417 54.2708H40.446C40.6093 54.2668 40.7643 54.198 40.877 54.0795C40.9897 53.9609 41.0508 53.8025 41.047 53.6388V51.1108C41.0508 50.9472 40.9897 50.7887 40.877 50.6702C40.7643 50.5517 40.6093 50.4829 40.446 50.4788H36.8417Z" fill="#F37021"/>
<path d="M31.985 55.5348H28.3808C27.891 55.5225 27.4261 55.3159 27.0882 54.9604C26.7503 54.6049 26.567 54.1296 26.5786 53.6388V51.1108C26.567 50.62 26.7503 50.1447 27.0882 49.7892C27.4261 49.4337 27.891 49.2271 28.3808 49.2148H31.985C32.4748 49.2271 32.9397 49.4337 33.2776 49.7892C33.6155 50.1447 33.7988 50.62 33.7872 51.1108V53.6388C33.7988 54.1296 33.6155 54.6049 33.2776 54.9604C32.9397 55.3159 32.4748 55.5225 31.985 55.5348ZM28.3808 50.4788C28.2175 50.4829 28.0624 50.5517 27.9497 50.6702C27.837 50.7887 27.7759 50.9472 27.7798 51.1108V53.6388C27.7759 53.8025 27.837 53.9609 27.9497 54.0795C28.0624 54.198 28.2175 54.2668 28.3808 54.2708H31.985C32.1483 54.2668 32.3034 54.198 32.4161 54.0795C32.5288 53.9609 32.5899 53.8025 32.586 53.6388V51.1108C32.5899 50.9472 32.5288 50.7887 32.4161 50.6702C32.3034 50.5517 32.1483 50.4829 31.985 50.4788H28.3808Z" fill="#F37021"/>
<path d="M40.446 47.4899H36.8417C36.3519 47.4776 35.887 47.271 35.5491 46.9155C35.2112 46.56 35.028 46.0847 35.0396 45.5939V43.0659C35.028 42.5751 35.2112 42.0998 35.5491 41.7443C35.887 41.3888 36.3519 41.1822 36.8417 41.1699H40.446C40.9358 41.1822 41.4007 41.3888 41.7385 41.7443C42.0764 42.0998 42.2597 42.5751 42.2481 43.0659V45.5939C42.2597 46.0847 42.0764 46.56 41.7385 46.9155C41.4007 47.271 40.9358 47.4776 40.446 47.4899ZM36.8417 42.4339C36.6784 42.4379 36.5234 42.5068 36.4107 42.6253C36.298 42.7438 36.2368 42.9023 36.2407 43.0659V45.5939C36.2368 45.7575 36.298 45.916 36.4107 46.0345C36.5234 46.153 36.6784 46.2219 36.8417 46.2259H40.446C40.6093 46.2219 40.7643 46.153 40.877 46.0345C40.9897 45.916 41.0508 45.7575 41.047 45.5939V43.0659C41.0508 42.9023 40.9897 42.7438 40.877 42.6253C40.7643 42.5068 40.6093 42.4379 40.446 42.4339H36.8417Z" fill="#F37021"/>
<path d="M31.985 47.4899H28.3808C27.891 47.4776 27.4261 47.271 27.0882 46.9155C26.7503 46.56 26.567 46.0847 26.5786 45.5939V43.0659C26.567 42.5751 26.7503 42.0998 27.0882 41.7443C27.4261 41.3888 27.891 41.1822 28.3808 41.1699H31.985C32.4748 41.1822 32.9397 41.3888 33.2776 41.7443C33.6155 42.0998 33.7988 42.5751 33.7872 43.0659V45.5939C33.7988 46.0847 33.6155 46.56 33.2776 46.9155C32.9397 47.271 32.4748 47.4776 31.985 47.4899ZM28.3808 42.4339C28.2175 42.4379 28.0624 42.5068 27.9497 42.6253C27.837 42.7438 27.7759 42.9023 27.7798 43.0659V45.5939C27.7759 45.7575 27.837 45.916 27.9497 46.0345C28.0624 46.153 28.2175 46.2219 28.3808 46.2259H31.985C32.1483 46.2219 32.3034 46.153 32.4161 46.0345C32.5288 45.916 32.5899 45.7575 32.586 45.5939V43.0659C32.5899 42.9023 32.5288 42.7438 32.4161 42.6253C32.3034 42.5068 32.1483 42.4379 31.985 42.4339H28.3808Z" fill="#F37021"/>
<path d="M48.9147 47.4899H45.3105C44.8207 47.4776 44.3558 47.271 44.0179 46.9155C43.68 46.56 43.4967 46.0847 43.5083 45.5939V43.0659C43.4967 42.5751 43.68 42.0998 44.0179 41.7443C44.3558 41.3888 44.8207 41.1822 45.3105 41.1699H48.9147C49.4045 41.1822 49.8694 41.3888 50.2073 41.7443C50.5452 42.0998 50.7285 42.5751 50.7168 43.0659V45.5939C50.7285 46.0847 50.5452 46.56 50.2073 46.9155C49.8694 47.271 49.4045 47.4776 48.9147 47.4899ZM45.3105 42.4339C45.1471 42.4379 44.9921 42.5068 44.8794 42.6253C44.7667 42.7438 44.7056 42.9023 44.7095 43.0659V45.5939C44.7056 45.7575 44.7667 45.916 44.8794 46.0345C44.9921 46.153 45.1471 46.2219 45.3105 46.2259H48.9147C49.078 46.2219 49.2331 46.153 49.3458 46.0345C49.4585 45.916 49.5196 45.7575 49.5157 45.5939V43.0659C49.5196 42.9023 49.4585 42.7438 49.3458 42.6253C49.2331 42.5068 49.078 42.4379 48.9147 42.4339H45.3105Z" fill="#F37021"/>
<path d="M48.8244 39.4455H28.145C27.6726 39.4566 27.2151 39.2795 26.873 38.953C26.5309 38.6264 26.3321 38.1772 26.3203 37.7039V33.0614C26.3321 32.5881 26.5309 32.1389 26.873 31.8124C27.2151 31.4858 27.6726 31.3087 28.145 31.3198H48.8244C49.2967 31.3087 49.7542 31.4858 50.0963 31.8124C50.4384 32.1389 50.6372 32.5881 50.649 33.0614V37.7048C50.637 38.1779 50.4381 38.6269 50.096 38.9533C49.7539 39.2796 49.2966 39.4566 48.8244 39.4455ZM28.145 32.4809C27.9875 32.4773 27.8351 32.5363 27.7211 32.6452C27.607 32.754 27.5408 32.9037 27.5367 33.0614V37.7048C27.5408 37.8625 27.607 38.0122 27.7211 38.1211C27.8351 38.2299 27.9875 38.289 28.145 38.2853H48.8244C48.9818 38.289 49.1342 38.2299 49.2483 38.1211C49.3623 38.0122 49.4286 37.8625 49.4326 37.7048V33.0614C49.4286 32.9037 49.3623 32.754 49.2483 32.6452C49.1342 32.5363 48.9818 32.4773 48.8244 32.4809H28.145Z" fill="#F37021"/>
<path d="M16.0577 24.8457H12.0417C11.544 24.8457 11.1406 25.2499 11.1406 25.7486V28.3154C11.1406 28.814 11.544 29.2182 12.0417 29.2182H16.0577C16.5554 29.2182 16.9588 28.814 16.9588 28.3154V25.7486C16.9588 25.2499 16.5554 24.8457 16.0577 24.8457Z" fill="white"/>
<path d="M18.5034 33.3567H17.1383V26.7153C17.1383 26.0379 16.8697 25.3882 16.3917 24.9092C15.9136 24.4302 15.2652 24.1611 14.5892 24.1611H13.5692C12.8939 24.1623 12.2467 24.432 11.7696 24.9108C11.2925 25.3897 11.0246 26.0387 11.0246 26.7153V33.3567H9.65405C9.20501 33.3567 8.77437 33.5354 8.45685 33.8535C8.13933 34.1717 7.96095 34.6032 7.96095 35.0531C7.95952 35.378 8.05353 35.696 8.23127 35.9677L12.0806 41.9708C12.2958 42.306 12.5915 42.5818 12.9407 42.7728C13.2899 42.9638 13.6814 43.0639 14.0792 43.0639C14.477 43.0639 14.8685 42.9638 15.2176 42.7728C15.5668 42.5818 15.8626 42.306 16.0777 41.9708L19.9271 35.9677C20.1048 35.696 20.1988 35.378 20.1974 35.0531C20.1974 34.8303 20.1536 34.6096 20.0684 34.4037C19.9833 34.1978 19.8585 34.0108 19.7012 33.8532C19.5439 33.6957 19.3571 33.5707 19.1516 33.4855C18.9461 33.4003 18.7258 33.3565 18.5034 33.3567ZM19.0693 35.3998L15.2199 41.4182C15.0964 41.609 14.9271 41.7658 14.7277 41.8744C14.5282 41.9829 14.3048 42.0398 14.0778 42.0398C13.8508 42.0398 13.6274 41.9829 13.428 41.8744C13.2285 41.7658 13.0593 41.609 12.9357 41.4182L9.08638 35.3998C9.01604 35.2926 8.97875 35.167 8.97915 35.0387C8.98316 34.8625 9.05584 34.6949 9.18163 34.5717C9.30743 34.4485 9.47636 34.3796 9.65225 34.3796H11.5283C11.6635 34.3796 11.7932 34.3258 11.8889 34.2299C11.9845 34.1341 12.0383 34.0041 12.0383 33.8686V26.7153C12.0383 26.3082 12.1997 25.9178 12.4869 25.63C12.7742 25.3422 13.1638 25.1805 13.5701 25.1805H14.5901C14.9963 25.1805 15.386 25.3422 15.6732 25.63C15.9605 25.9178 16.1219 26.3082 16.1219 26.7153V33.8677C16.1219 34.0032 16.1756 34.1332 16.2713 34.229C16.3669 34.3249 16.4966 34.3787 16.6319 34.3787H18.5034C18.6819 34.3787 18.8531 34.4497 18.9793 34.5762C19.1056 34.7027 19.1765 34.8743 19.1765 35.0531C19.1748 35.1766 19.1383 35.2972 19.0711 35.4007L19.0693 35.3998Z" fill="#F37021" stroke="#F37021"/>
</g>
<defs>
<clipPath id="clip0_95_1238">
<rect width="55" height="68" fill="white"/>
</clipPath>
</defs>
</svg>
