<svg width="44" height="44" viewBox="0 0 44 44" fill="none" xmlns="http://www.w3.org/2000/svg">
<g clipPath="url(#clip0_2318_15559)">
<path d="M-0.00013933 37.7882C-0.00013933 36.5828 -0.00013933 35.3774 -0.00013933 34.1721C0.0601289 34.1419 0.150531 34.1118 0.180665 34.0515C0.331336 33.5393 0.723079 33.2379 1.08469 32.9064C1.11482 32.9064 1.14496 32.8462 1.17509 32.8462C1.68737 32.5147 2.29005 32.4243 2.8626 32.3942C5.6048 32.3942 8.37714 32.3942 11.1193 32.3942C11.3303 32.3942 11.5714 32.3942 11.7522 32.2736C12.9274 31.6408 14.1026 31.008 15.2477 30.3752C15.308 30.345 15.3381 30.3149 15.3984 30.2848C16.8147 29.5314 18.2009 28.7781 19.6172 27.9946C18.8035 27.5426 18.0502 27.1207 17.2667 26.6988C16.0011 26.0057 14.7053 25.3428 13.4397 24.6497C13.1383 24.4689 12.8671 24.1977 12.5658 24.0169C12.2946 23.8662 11.9028 23.8059 11.6919 23.595C11.1796 23.0827 10.6673 22.5704 10.9385 21.7267C10.9687 21.576 10.9084 21.3952 10.8783 21.2445C10.8783 21.1541 10.818 21.0637 10.8481 20.9733C11.0289 20.3104 11.3604 19.7077 11.9631 19.3461C13.1685 18.653 14.3738 18.0202 15.6093 17.3572C16.9352 16.634 18.2913 15.9409 19.6774 15.1876C18.4118 14.4945 17.1763 13.8316 15.9107 13.1385C14.7957 12.5358 13.6807 11.9632 12.5959 11.3606C11.9028 10.9989 11.2399 10.6675 10.3961 10.7579C9.55237 10.8181 8.70862 10.7579 7.86486 10.7579C7.41285 10.7579 6.99097 10.8181 6.5691 10.5469C6.05682 10.1853 5.48427 9.91412 5.00212 9.52238C4.33917 9.0101 4.0077 8.25675 3.70636 7.47326C3.70636 7.35272 3.64609 7.26232 3.61595 7.14178C3.61595 6.99111 3.58582 6.81031 3.58582 6.65964C3.58582 5.18307 3.58582 3.73663 3.58582 2.26006C3.58582 2.10939 3.58582 1.95872 3.58582 1.77791C2.65166 1.77791 1.77777 1.77791 0.903884 1.77791C0.572409 1.77791 0.301202 1.71764 0.120397 1.38617C0.120397 1.35603 0.0601289 1.35603 -0.00013933 1.35603C-0.00013933 0.904023 -0.00013933 0.452012 -0.00013933 0C14.2533 0 28.5067 0 42.7602 0C42.9108 0.150671 43.0314 0.271207 43.182 0.421878V1.44644C43.182 1.44644 43.0615 1.35603 43.0615 1.38617C42.941 1.47657 42.8506 1.56697 42.7602 1.65738C42.73 1.65738 42.6999 1.71764 42.6396 1.71764C42.4588 1.71764 42.2479 1.80805 42.0671 1.80805C41.2535 1.80805 40.4097 1.80805 39.5659 1.80805C39.5659 2.01899 39.5659 2.16966 39.5659 2.32033C39.5659 3.55582 39.5659 4.76119 39.5659 5.99669C39.5659 7.11165 39.355 8.16634 38.6017 9.04023C37.7278 10.0648 36.7032 10.8483 35.2568 10.8181C34.1418 10.8181 33.0268 10.8181 31.942 10.8181C31.7913 10.8181 31.6407 10.8181 31.49 10.8784C30.3449 11.4811 29.1998 12.0838 28.0848 12.6865C26.5781 13.5001 25.1016 14.3137 23.5949 15.1273C23.5949 15.1575 23.5949 15.2177 23.5949 15.2479C23.8359 15.3985 24.1071 15.5793 24.3482 15.6999C25.2824 16.182 26.1864 16.6642 27.1206 17.1463C28.2355 17.7189 29.3203 18.3215 30.4052 18.9242C30.8271 19.1653 31.2791 19.4365 31.6105 19.768C32.0626 20.2501 32.2735 20.8528 32.2735 21.6062C32.2735 22.4499 32.0324 23.0827 31.4599 23.5347C30.8271 24.047 30.0737 24.4388 29.3203 24.8606C28.0547 25.5537 26.7891 26.2167 25.5235 26.8796C25.0413 27.1508 24.529 27.3618 24.0167 27.5727C23.8058 27.6631 23.5346 27.633 23.5045 27.9343C23.5045 28.1453 23.8962 28.5069 24.1373 28.537C24.2578 28.537 24.3784 28.537 24.4688 28.5973C25.433 29.1095 26.3973 29.5917 27.3616 30.104C27.9342 30.4053 28.5067 30.7368 29.0793 31.0683C29.7724 31.4299 30.4956 31.7614 31.1585 32.1531C31.49 32.364 31.7913 32.4243 32.153 32.4243C34.6541 32.4243 37.1854 32.4243 39.6865 32.4243C40.1084 32.4243 40.5302 32.4544 40.922 32.5147C41.8561 32.6051 42.73 33.3886 43.0012 34.2926C43.0012 34.3529 43.1218 34.383 43.1519 34.4433V37.5772C43.1519 37.5772 43.0012 37.6074 43.0012 37.6375C42.941 38.5415 42.1273 38.873 41.5548 39.3551C41.2836 39.5661 40.8316 39.5962 40.4398 39.5962C39.6563 39.6264 38.8427 39.5962 38.0291 39.5962C37.788 39.5962 37.6374 39.6565 37.6374 39.9578C37.6374 40.8016 37.2758 41.5549 36.6731 42.0974C36.2512 42.4891 35.6786 42.7302 35.1965 43.0315C35.1362 43.0616 35.1061 43.152 35.0458 43.2123H33.1775C33.1775 43.2123 33.1775 43.1822 33.2076 43.152C33.1172 43.1219 33.0268 43.0616 32.9666 43.0315C32.394 42.7603 31.7913 42.5192 31.4297 41.9768C31.1887 41.6453 31.038 41.2837 30.8271 40.9523C30.6462 40.681 30.4052 40.4098 30.7065 40.0482C30.7065 40.0482 30.6462 40.0482 30.6161 40.0181C30.6161 39.6565 30.375 39.5962 30.0737 39.5962C24.3784 39.5962 18.683 39.5962 12.9877 39.5962C12.837 39.5962 12.7165 39.5962 12.5959 39.5962C12.4754 40.0784 12.4151 40.5304 12.2644 40.9523C11.8426 41.9768 11.0892 42.6398 10.0647 43.0014C9.97425 43.0315 9.91398 43.1219 9.82358 43.1822H7.95527C7.95527 43.1822 7.895 43.0315 7.83473 43.0014C7.47312 42.7904 7.11151 42.6096 6.78004 42.4288L6.53896 42.248C5.69521 41.5549 5.5144 40.5906 5.39387 39.5359C4.36931 39.5359 3.34475 39.5359 2.29005 39.5359C2.01885 39.5359 1.74764 39.4154 1.47643 39.2949C1.3559 39.2346 1.29563 39.0237 1.17509 38.9935C0.632677 38.873 0.451872 38.4511 0.210799 38.0292C0.150531 37.9388 0.0601289 37.8484 -0.0302734 37.758L-0.00013933 37.7882ZM10.4564 38.5415C9.97425 37.9991 9.4017 37.6978 8.64835 37.8183C7.77446 37.969 7.38272 38.5717 7.17178 39.325C6.99097 39.988 7.50325 40.8317 8.1662 41.1933C8.82915 41.5549 9.58251 41.4344 10.1551 40.9221C10.6975 40.44 10.8481 39.8373 10.7276 39.1442C10.9084 38.8127 10.818 38.6319 10.4564 38.5415ZM22.6004 29.5917C22.6004 29.5917 22.4799 29.5013 22.4196 29.441C21.9375 29.2 21.4855 28.989 20.9129 29.2904C19.5569 30.0437 18.2009 30.7669 16.8448 31.5203C16.3627 31.7915 15.8805 32.0326 15.2779 32.364H27.8438C26.0357 31.3997 24.3181 30.4957 22.5703 29.5917H22.6004ZM10.8783 36.6129C10.8783 36.6129 11.0591 36.7335 11.1495 36.7937C11.4207 37.0348 11.6919 37.2458 11.9028 37.5471C12.0535 37.758 12.174 37.8183 12.4151 37.8183C18.5323 37.8183 24.6496 37.8183 30.7668 37.8183C30.9175 37.8183 31.0681 37.7279 31.1887 37.6676C31.2489 37.6074 31.2791 37.5471 31.3393 37.4868C31.4599 37.3362 31.5804 37.1855 31.7009 37.0348C31.7009 37.0348 31.7311 37.0047 31.7612 36.9746C31.7612 36.9746 31.7612 36.9143 31.7612 36.8841C31.8215 36.8239 31.8817 36.7636 31.942 36.7033C32.153 36.5828 32.3338 36.4924 32.5447 36.3719C32.6652 36.3417 32.7556 36.3116 32.8762 36.2513C33.1172 36.1911 33.3885 36.1609 33.6295 36.1007C33.7501 36.0705 33.8405 36.0404 33.961 35.9801C34.2623 35.9801 34.5938 36.0404 34.8952 36.0705C34.9856 36.0705 35.076 36.1308 35.1362 36.1609C35.3773 36.2513 35.6485 36.3417 35.8896 36.4321C35.98 36.4924 36.0704 36.5527 36.1307 36.6129L36.2211 36.7033C36.2211 36.7033 36.2813 36.7335 36.3115 36.7636C36.4621 36.9745 36.6128 37.1855 36.7635 37.3663C36.9744 37.517 37.2155 37.6375 37.4264 37.7882C38.4208 37.7882 39.4153 37.7882 40.4097 37.7882C40.8918 37.7882 41.3137 37.4567 41.3439 37.0047C41.3439 36.2815 41.3439 35.5583 41.3137 34.835C41.1932 34.6844 41.1028 34.5337 40.9823 34.4132C40.6809 34.3228 40.3796 34.2022 40.0782 34.2022C34.7445 34.2022 29.4107 34.2022 24.077 34.2022C19.7678 34.2022 15.4888 34.2022 11.1796 34.2022C8.40728 34.2022 5.63494 34.2022 2.8626 34.2022C2.01885 34.2022 1.74764 34.5337 1.74764 35.287C1.74764 35.7993 1.74764 36.3417 1.74764 36.854C1.74764 37.4868 2.10925 37.8183 2.74206 37.8183C3.58582 37.8183 4.45971 37.8183 5.30346 37.8183C5.63494 37.8183 5.84588 37.6676 6.08695 37.4266C6.38829 37.0951 6.7499 36.8239 7.11151 36.5225C7.38272 36.6732 7.41285 36.5225 7.44299 36.3116C8.61822 35.9199 9.76331 35.8596 10.818 36.6129H10.8783ZM30.7065 21.9979C30.6161 21.787 30.5257 21.6664 30.5558 21.6062C30.7065 21.2747 30.4654 21.0939 30.2545 20.9733C29.8025 20.672 29.3505 20.4008 28.8683 20.1597C26.548 18.9242 24.2277 17.6586 21.9074 16.4231C21.7567 16.3327 21.4855 16.3327 21.3348 16.4231C20.1897 17.0258 19.0446 17.6586 17.8995 18.2613C16.3024 19.105 14.7053 19.9488 13.1383 20.8227C12.8973 20.9432 12.6261 21.2445 12.6261 21.4555C12.6261 21.8472 12.6863 22.2691 13.1383 22.48C14.3136 23.0827 15.4587 23.7155 16.6038 24.3182C17.8694 24.9812 19.1652 25.614 20.3705 26.3673C21.1841 26.8796 21.9074 27.0906 22.6908 26.3975C22.6908 26.3975 22.6908 26.3975 22.721 26.3975C23.4442 26.0057 24.1976 25.614 24.9208 25.1921C26.096 24.5593 27.2712 23.9566 28.4465 23.2937C29.1998 22.8718 29.9532 22.4499 30.7065 21.9979ZM16.212 1.80805V8.97996H26.9398V1.80805H16.212ZM14.3738 9.0101V1.80805H5.45413C5.45413 1.80805 5.424 1.86831 5.424 1.89845C5.424 3.52569 5.3336 5.1228 5.424 6.75004C5.5144 7.9554 6.5691 8.97996 7.86486 8.97996C9.88385 9.0101 11.8727 8.97996 13.8917 8.97996C14.0424 8.97996 14.193 8.97996 14.3738 8.97996V9.0101ZM28.8081 9.0101H29.3203C31.1887 9.0101 33.0268 9.0101 34.8952 9.0101C35.076 9.0101 35.2869 9.04023 35.4677 9.0101C36.9744 8.67862 37.788 7.62393 37.788 6.05696C37.788 4.79132 37.788 3.52569 37.788 2.26006V1.80805H28.8081V9.0101ZM15.4285 10.8181C15.4285 10.8181 15.4285 10.8784 15.3984 10.9085C15.76 11.0894 16.1517 11.2702 16.5134 11.4811C18.1406 12.355 19.7678 13.2289 21.3951 14.1028C21.4553 14.1329 21.5759 14.163 21.6663 14.1329C21.9074 14.0425 22.1183 13.922 22.3292 13.8014C23.8962 12.9577 25.433 12.144 27 11.3003C27.2411 11.1496 27.4822 10.9989 27.8438 10.8181H15.4587H15.4285ZM36.1608 40.0784C36.1608 40.0784 36.0704 40.0181 36.0403 39.988C36.0403 39.8373 36.0403 39.6866 35.98 39.5359C35.8896 38.7826 35.4376 38.2703 34.8349 37.9087C34.624 37.7882 34.2925 37.8183 34.0213 37.8484C33.298 37.8484 32.7858 38.3004 32.4242 38.873C32.2735 39.0839 32.2434 39.4154 32.2434 39.6866C32.2434 39.8976 32.3639 40.1386 32.4844 40.3496C32.9364 41.344 33.9911 41.8563 34.9253 41.2536C35.3773 40.9523 35.7389 40.5304 36.1608 40.1386V40.0784Z" fill="#F37021"/>
</g>
<defs>
<clipPath id="clip0_2318_15559">
<rect width="43.1822" height="43.1822" fill="white"/>
</clipPath>
</defs>
</svg>
