<svg width="63" height="63" viewBox="0 0 63 63" fill="none" xmlns="http://www.w3.org/2000/svg">
<g clip-path="url(#clip0_95_1263)">
<path d="M61.7235 7.59987C61.1794 5.87675 60.4506 4.21746 59.5499 2.65088C59.4482 2.4888 59.2991 2.36196 59.1227 2.28756C58.9464 2.21316 58.7515 2.19482 58.5644 2.23503C56.8136 2.68122 55.1162 3.3152 53.5017 4.12593C49.9113 5.9185 47.4028 8.31072 46.2475 11.0442C45.2832 13.3208 45.1475 16.1031 45.8303 19.1773C44.3895 17.5672 42.7529 16.1437 40.9586 14.9398C39.7738 12.6377 38.3553 10.4637 36.7252 8.45212C36.5689 8.27589 36.3505 8.16682 36.1156 8.14767C35.8808 8.12851 35.6476 8.20076 35.4648 8.34933C35.2819 8.4979 35.1635 8.71132 35.1342 8.94507C35.1049 9.17882 35.1671 9.41484 35.3077 9.60389C36.565 11.1613 37.6923 12.8193 38.6783 14.5612L30.3569 12.9396L22.4508 2.15791C23.2253 2.16599 23.9975 2.24386 24.7581 2.39057C27.4144 2.98152 29.8726 4.24932 31.894 6.07082C32.0797 6.21654 32.3146 6.28477 32.5495 6.26125C32.7844 6.23772 33.0011 6.12425 33.1542 5.9446C33.3073 5.76494 33.385 5.53304 33.3709 5.29743C33.3569 5.06183 33.2522 4.84079 33.0788 4.68061C30.8184 2.65506 28.0718 1.2494 25.1065 0.600582C20.9207 -0.218251 16.0419 0.857672 10.9876 3.71073C8.7004 4.99764 6.55879 6.52762 4.60002 8.27409C4.43548 8.43524 4.33408 8.64994 4.31415 8.87936C4.29422 9.10877 4.35709 9.33774 4.49137 9.52483C5.63376 11.8016 7.00662 13.9553 8.58842 15.9521C9.86288 17.5824 11.3108 19.0694 12.9066 20.3869C12.481 20.7434 12.0677 21.1173 11.6665 21.5085C9.16121 23.9597 7.3056 26.9959 6.26703 30.3431C5.22847 33.6904 5.03962 37.2434 5.71752 40.6819C6.39542 44.1203 7.91875 47.336 10.1501 50.0389C12.3815 52.7417 15.2507 54.8468 18.499 56.1642C18.7212 56.2443 18.9657 56.2352 19.1813 56.139C19.397 56.0428 19.567 55.8669 19.6558 55.6482C19.7447 55.4294 19.7454 55.1848 19.6579 54.9656C19.5703 54.7463 19.4013 54.5694 19.1862 54.472C17.7885 53.9046 16.4622 53.1753 15.2345 52.2989C15.6243 49.7888 15.0718 47.2232 13.6832 45.0959C13.3933 44.646 14.2618 42.874 14.7761 41.818C15.3355 40.7746 15.7851 39.6761 16.1178 38.5401C16.2701 38.0478 16.2665 37.5205 16.1075 37.0303C15.9485 36.5402 15.6417 36.1111 15.2293 35.802C14.5683 35.3547 13.833 35.0282 13.0577 34.838C12.6404 34.7379 12.2389 34.5809 11.8645 34.3713C11.2487 33.5984 10.7293 32.7535 10.3178 31.8551C9.85645 30.8854 9.29633 29.966 8.64628 29.1113C9.90722 26.1396 11.8892 23.529 14.4129 21.5155C16.6858 23.1229 19.3394 24.1087 22.1107 24.375C18.8822 26.8759 17.8381 30.0696 19.3309 33.1373C21.0744 36.7199 24.6623 36.1472 27.8278 35.6439C28.3755 35.5565 28.9425 35.4665 29.4851 35.3984C29.6889 35.3727 29.75 35.4286 29.7911 35.4627C30.4842 36.0791 30.4636 39.0234 30.4488 41.1733C30.4289 44.1472 30.4096 46.9578 31.5173 48.3982C31.7837 48.7523 32.1308 49.0379 32.5297 49.2311C32.9287 49.4244 33.3679 49.5198 33.8111 49.5095C34.4338 49.4968 35.0475 49.3579 35.615 49.1013C38.3703 47.9219 41.2344 44.3715 40.7972 41.5622C40.4153 39.1063 40.1627 37.4834 40.7586 36.1761C41.3096 34.9659 42.641 33.8449 45.2626 32.4149C45.9289 35.4102 45.8706 38.5212 45.0927 41.4895C44.3148 44.4578 42.8396 47.1977 40.7898 49.4815C38.74 51.7653 36.1747 53.5272 33.307 54.6207C30.4393 55.7143 27.352 56.1079 24.3016 55.769C24.0656 55.7518 23.8322 55.8267 23.6503 55.9781C23.4684 56.1294 23.3524 56.3453 23.3265 56.5805C23.3006 56.8156 23.3669 57.0517 23.5115 57.2389C23.656 57.4262 23.8676 57.5501 24.1017 57.5847C27.2102 57.9217 30.3548 57.5684 33.3109 56.5498C36.2669 55.5312 38.9616 53.8725 41.2022 51.6922C43.4632 49.4814 45.1983 46.7909 46.2793 43.8196C47.3603 40.8483 47.7596 37.672 47.4477 34.5257C47.1358 31.3793 46.1206 28.3432 44.4772 25.6419C42.8338 22.9405 40.6041 20.6429 37.9531 18.9189C39.1598 18.0583 40.0592 17.3121 40.5574 16.8828C44.0743 19.3998 46.854 22.8113 48.6085 26.7637C50.363 30.7161 51.0285 35.0657 50.5359 39.3617C50.0433 43.6578 48.4106 47.744 45.807 51.1969C43.2034 54.6499 39.7237 57.344 35.7282 59C31.7328 60.6561 27.3671 61.2139 23.0835 60.6157C18.8 60.0174 14.7543 58.2848 11.3658 55.5975C7.97729 52.9101 5.3692 49.3658 3.81177 45.3317C2.25434 41.2976 1.80424 36.9205 2.5081 32.654C2.53105 32.423 2.46522 32.1919 2.32397 32.0076C2.18272 31.8234 1.97663 31.6998 1.74754 31.6619C1.51846 31.624 1.28354 31.6747 1.09048 31.8037C0.89742 31.9327 0.760688 32.1303 0.708041 32.3564C0.14991 35.7341 0.26275 39.1887 1.04012 42.5229C1.81748 45.857 3.24415 49.0054 5.23865 51.7883C7.23315 54.5711 9.75641 56.934 12.6644 58.7418C15.5723 60.5497 18.8079 61.7672 22.1866 62.3248C23.6102 62.5602 25.0508 62.6786 26.4938 62.6789C30.8162 62.6667 35.0677 61.5811 38.8666 59.5197C42.6654 57.4582 45.8925 54.4855 48.2578 50.8686C50.6232 47.2518 52.0527 43.1041 52.4179 38.7982C52.7832 34.4923 52.0727 30.1632 50.3503 26.1997C51.7995 25.7688 53.2087 25.2138 54.5625 24.5408C58.1523 22.7483 60.6608 20.3561 61.8161 17.6225C62.9713 14.889 62.9404 11.4228 61.7235 7.59987ZM8.70157 32.7131C9.38109 33.9986 10.024 35.2197 10.6945 35.7776C11.2461 36.1631 11.8669 36.4387 12.5228 36.5894C14.3081 37.1383 14.5157 37.4076 14.3447 38.1133C14.0385 39.1192 13.6334 40.0923 13.1355 41.0184C12.1918 42.9466 11.3007 44.7706 12.1455 46.0869C13.075 47.5303 13.556 49.2167 13.5276 50.9331C10.851 48.4978 8.90628 45.3648 7.91173 41.8859C6.91719 38.4069 6.9122 34.7197 7.89733 31.238C8.1667 31.6989 8.44892 32.2349 8.70157 32.7131ZM52.9 14.765L50.3041 8.47526C51.4963 7.39382 52.8354 6.48611 54.2815 5.77903C55.2167 5.31268 56.1808 4.90693 57.168 4.56427L52.9 14.765ZM58.8517 5.27191C59.2945 6.21983 59.6761 7.19513 59.9941 8.19182C60.4586 9.61789 60.7373 11.0978 60.8235 12.5951L54.7393 15.1018L58.8517 5.27191ZM47.9299 11.7557C48.1991 11.1268 48.5415 10.5318 48.9502 9.9831L51.9074 17.1424L49.2517 23.4829C48.7907 22.5077 48.3953 21.5028 48.0681 20.475C47.323 18.1136 46.6917 14.684 47.9299 11.7557ZM53.7801 22.8884C52.8748 23.3404 51.9421 23.7354 50.9874 24.071L53.7389 17.4946L60.7463 14.6024C60.6484 15.3959 60.4429 16.1723 60.1356 16.9104C58.8948 19.8393 55.9967 21.7784 53.7827 22.8884H53.7801ZM20.8391 22.3684C20.5176 22.3042 20.1962 22.2283 19.8838 22.1403L29.9969 14.7309L38.3228 16.3525C35.289 18.7415 27.9082 23.7529 20.8417 22.3684H20.8391ZM11.6016 16.6539C9.81488 14.6954 8.25284 12.5433 6.94459 10.2376L17.5392 12.3027L11.6016 16.6539ZM13.4724 4.46851L17.905 10.5101L7.24224 8.4322C9.17761 6.90102 11.2653 5.57281 13.4724 4.46851ZM20.5479 11.0288L15.1741 3.70173C16.8078 3.01211 18.524 2.53682 20.2798 2.28774L27.7153 12.4248L20.5479 11.0288ZM19.9789 12.779L27.5559 14.2572L17.8324 21.3812C16.0181 20.5116 14.3544 19.3579 12.9041 17.9638L19.9789 12.779ZM44.7682 30.6133C41.4729 32.368 39.8618 33.746 39.0942 35.4267C38.2726 37.2315 38.5735 39.1686 38.9901 41.8501C39.2363 43.4312 37.3572 46.3755 34.8943 47.4296C33.9833 47.8197 33.334 47.7735 32.9657 47.2921C32.2399 46.3479 32.2585 43.489 32.2752 41.1926C32.2971 38.0149 32.3157 35.2711 31.0049 34.1052C30.7691 33.8974 30.4907 33.7436 30.1892 33.6548C29.8876 33.566 29.5703 33.5442 29.2595 33.5911C28.6854 33.6624 28.1023 33.7556 27.5398 33.8482C24.1814 34.3829 22.0683 34.5976 20.9741 32.3474C19.2004 28.7031 22.7909 26.0037 24.4167 25.0126C24.7476 24.8086 25.0571 24.5717 25.3405 24.3056C29.2704 23.8358 32.9837 22.1505 36.2926 20.0385C40.2981 22.4294 43.3073 26.1839 44.7682 30.6133Z" fill="#F37021" stroke="#F37021" stroke-linecap="round"/>
</g>
<defs>
<clipPath id="clip0_95_1263">
<rect width="63" height="63" fill="white"/>
</clipPath>
</defs>
</svg>
