<svg width="256" height="62" viewBox="0 0 256 62" fill="none" xmlns="http://www.w3.org/2000/svg">
<g clip-path="url(#clip0_1465_14334)">
<g opacity="0.15">
<path d="M0.015625 60.7534V12.5868C0.015625 12.3431 0.112425 12.1094 0.284737 11.9371C0.45705 11.7648 0.690765 11.668 0.934452 11.668H9.33283C9.57652 11.668 9.81024 11.7648 9.98255 11.9371C10.1549 12.1094 10.2517 12.3431 10.2517 12.5868V60.7534C10.2517 60.9971 10.1549 61.2308 9.98255 61.4031C9.81024 61.5754 9.57652 61.6722 9.33283 61.6722H0.934452C0.690765 61.6722 0.45705 61.5754 0.284737 61.4031C0.112425 61.2308 0.015625 60.9971 0.015625 60.7534Z" fill="white"/>
<path d="M81.9219 60.7569V33.0624C81.9221 32.8188 82.019 32.5852 82.1912 32.413C82.3635 32.2407 82.597 32.1438 82.8406 32.1436H91.239C91.4827 32.1436 91.7164 32.2404 91.8887 32.4127C92.061 32.585 92.1578 32.8187 92.1578 33.0624V60.7569C92.1578 61.0006 92.061 61.2343 91.8887 61.4067C91.7164 61.579 91.4827 61.6758 91.239 61.6758H82.8406C82.597 61.6755 82.3635 61.5786 82.1912 61.4064C82.019 61.2341 81.9221 61.0006 81.9219 60.7569Z" fill="white"/>
<path d="M61.4453 60.7512V43.3026C61.4452 43.1819 61.4688 43.0623 61.5149 42.9507C61.5611 42.8391 61.6287 42.7377 61.7141 42.6523C61.7994 42.5669 61.9007 42.4991 62.0123 42.4529C62.1238 42.4066 62.2434 42.3828 62.3641 42.3828H70.7625C71.0062 42.3831 71.24 42.4801 71.4122 42.6526C71.5845 42.825 71.6813 43.0589 71.6813 43.3026V60.7512C71.6813 60.9949 71.5845 61.2286 71.4122 61.4009C71.2399 61.5732 71.0061 61.67 70.7625 61.67H62.3641C62.1205 61.67 61.8867 61.5732 61.7144 61.4009C61.5421 61.2286 61.4453 60.9949 61.4453 60.7512Z" fill="white"/>
<path d="M20.4922 60.7537V23.536C20.4921 23.4154 20.5157 23.2959 20.5618 23.1845C20.6079 23.073 20.6754 22.9717 20.7607 22.8864C20.8459 22.801 20.9471 22.7333 21.0585 22.6872C21.17 22.641 21.2894 22.6172 21.41 22.6172H29.8084C29.9291 22.6171 30.0486 22.6407 30.1602 22.6868C30.2717 22.733 30.373 22.8006 30.4584 22.886C30.5437 22.9713 30.6114 23.0727 30.6576 23.1842C30.7037 23.2958 30.7273 23.4153 30.7272 23.536V60.7537C30.7272 60.9974 30.6304 61.2311 30.4581 61.4034C30.2858 61.5757 30.0521 61.6725 29.8084 61.6725H21.41C21.1665 61.6723 20.9331 61.5753 20.761 61.4031C20.5889 61.2308 20.4922 60.9972 20.4922 60.7537Z" fill="white"/>
<path d="M102.398 60.7534V12.5868C102.398 12.3433 102.495 12.1097 102.667 11.9374C102.839 11.7652 103.073 11.6682 103.316 11.668H111.715C111.958 11.6682 112.192 11.7651 112.364 11.9374C112.536 12.1096 112.633 12.3432 112.633 12.5868V60.7534C112.633 60.997 112.536 61.2305 112.364 61.4028C112.192 61.575 111.958 61.6719 111.715 61.6722H103.316C103.073 61.6719 102.839 61.575 102.667 61.4027C102.495 61.2304 102.398 60.9969 102.398 60.7534Z" fill="white"/>
<path d="M122.875 60.7534V12.5868C122.875 12.3431 122.972 12.1094 123.144 11.9371C123.316 11.7648 123.55 11.668 123.794 11.668H132.192C132.436 11.6682 132.669 11.7652 132.841 11.9374C133.013 12.1097 133.11 12.3433 133.11 12.5868V60.7534C133.11 60.9969 133.013 61.2304 132.841 61.4027C132.669 61.575 132.436 61.6719 132.192 61.6722H123.794C123.55 61.6722 123.316 61.5754 123.144 61.4031C122.972 61.2308 122.875 60.9971 122.875 60.7534Z" fill="white"/>
<path d="M91.3171 11.6677H82.7667C82.5428 11.6674 82.328 11.5784 82.1696 11.42C82.0112 11.2616 81.9221 11.0469 81.9219 10.8229V2.27355C81.9221 2.04956 82.0112 1.83485 82.1696 1.67647C82.328 1.51809 82.5428 1.42898 82.7667 1.42871H91.3171C91.428 1.42871 91.5377 1.45056 91.6402 1.49303C91.7426 1.5355 91.8357 1.59776 91.9141 1.67622C91.9924 1.75468 92.0546 1.84781 92.0969 1.95031C92.1393 2.0528 92.161 2.16265 92.1609 2.27355V10.8229C92.161 10.9338 92.1393 11.0436 92.0969 11.1461C92.0546 11.2486 91.9924 11.3417 91.9141 11.4202C91.8357 11.4987 91.7426 11.5609 91.6402 11.6034C91.5377 11.6459 91.428 11.6677 91.3171 11.6677Z" fill="white"/>
<path d="M204.789 60.7569V33.0624C204.789 32.9417 204.813 32.8222 204.859 32.7108C204.905 32.5993 204.973 32.498 205.058 32.4127C205.143 32.3273 205.245 32.2597 205.356 32.2135C205.468 32.1673 205.587 32.1436 205.708 32.1436H214.106C214.35 32.1436 214.584 32.2404 214.756 32.4127C214.928 32.585 215.025 32.8187 215.025 33.0624V60.7569C215.025 61.0006 214.928 61.2343 214.756 61.4067C214.584 61.579 214.35 61.6758 214.106 61.6758H205.708C205.587 61.6758 205.468 61.652 205.356 61.6058C205.245 61.5597 205.143 61.492 205.058 61.4067C204.973 61.3213 204.905 61.22 204.859 61.1086C204.813 60.9971 204.789 60.8776 204.789 60.7569Z" fill="white"/>
<path d="M184.313 60.7512V43.3026C184.312 43.1819 184.336 43.0622 184.382 42.9505C184.428 42.8389 184.496 42.7374 184.581 42.652C184.666 42.5665 184.768 42.4988 184.879 42.4526C184.991 42.4064 185.111 42.3827 185.231 42.3828H193.63C193.874 42.3831 194.107 42.4801 194.28 42.6526C194.452 42.825 194.549 43.0589 194.549 43.3026V60.7512C194.548 60.9948 194.451 61.2284 194.279 61.4006C194.107 61.5729 193.873 61.6698 193.63 61.67H185.231C185.111 61.6702 184.991 61.6465 184.88 61.6004C184.768 61.5543 184.667 61.4866 184.581 61.4012C184.496 61.3159 184.428 61.2145 184.382 61.103C184.336 60.9915 184.312 60.8719 184.313 60.7512Z" fill="white"/>
<path d="M163.836 60.752V1.88758C163.836 1.64397 163.933 1.41042 164.105 1.23817C164.278 1.06591 164.511 0.969015 164.755 0.96875H173.153C173.397 0.969015 173.63 1.06591 173.803 1.23817C173.975 1.41042 174.072 1.64397 174.072 1.88758V60.752C174.072 60.9957 173.975 61.2294 173.803 61.4018C173.631 61.5741 173.397 61.6709 173.153 61.6709H164.755C164.511 61.6706 164.278 61.5737 164.105 61.4014C163.933 61.2292 163.836 60.9956 163.836 60.752Z" fill="white"/>
<path d="M143.359 60.7537V23.536C143.359 23.4153 143.383 23.2957 143.429 23.1841C143.475 23.0725 143.543 22.9711 143.628 22.8857C143.713 22.8003 143.815 22.7327 143.926 22.6866C144.038 22.6405 144.157 22.6169 144.278 22.6172H152.677C152.797 22.6171 152.917 22.6407 153.028 22.6868C153.14 22.733 153.241 22.8007 153.327 22.886C153.412 22.9713 153.48 23.0727 153.526 23.1842C153.572 23.2958 153.595 23.4153 153.595 23.536V60.7537C153.595 60.9974 153.499 61.2311 153.326 61.4034C153.154 61.5757 152.92 61.6725 152.677 61.6725H144.278C144.158 61.6727 144.038 61.649 143.926 61.6028C143.815 61.5567 143.714 61.489 143.628 61.4037C143.543 61.3184 143.475 61.217 143.429 61.1055C143.383 60.9939 143.359 60.8744 143.359 60.7537Z" fill="white"/>
<path d="M225.266 60.7534V12.5868C225.266 12.3432 225.363 12.1096 225.535 11.9374C225.707 11.7651 225.941 11.6682 226.184 11.668H234.583C234.703 11.668 234.823 11.6917 234.934 11.7379C235.046 11.7841 235.147 11.8518 235.232 11.9371C235.317 12.0225 235.385 12.1238 235.431 12.2353C235.477 12.3467 235.501 12.4662 235.501 12.5868V60.7534C235.501 60.874 235.477 60.9935 235.431 61.1049C235.385 61.2164 235.317 61.3177 235.232 61.403C235.147 61.4884 235.046 61.556 234.934 61.6022C234.823 61.6484 234.703 61.6722 234.583 61.6722H226.184C225.941 61.6719 225.707 61.575 225.535 61.4028C225.363 61.2305 225.266 60.997 225.266 60.7534Z" fill="white"/>
<path d="M245.742 60.7534V12.5868C245.742 12.3431 245.839 12.1094 246.011 11.9371C246.184 11.7648 246.417 11.668 246.661 11.668H255.059C255.303 11.668 255.537 11.7648 255.709 11.9371C255.881 12.1094 255.978 12.3431 255.978 12.5868V60.7534C255.978 60.9971 255.881 61.2308 255.709 61.4031C255.537 61.5754 255.303 61.6722 255.059 61.6722H246.661C246.417 61.6722 246.184 61.5754 246.011 61.4031C245.839 61.2308 245.742 60.9971 245.742 60.7534Z" fill="white"/>
<path d="M214.183 11.6677H205.634C205.523 11.6677 205.413 11.6458 205.311 11.6034C205.208 11.5609 205.115 11.4987 205.036 11.4203C204.958 11.3418 204.896 11.2487 204.853 11.1462C204.811 11.0437 204.789 10.9338 204.789 10.8229V2.27355C204.789 2.04948 204.878 1.8346 205.036 1.67616C205.195 1.51772 205.41 1.42871 205.634 1.42871H214.183C214.294 1.42858 214.404 1.45035 214.507 1.49276C214.609 1.53517 214.702 1.59738 214.781 1.67586C214.859 1.75433 214.922 1.84753 214.964 1.95009C215.006 2.05265 215.028 2.16257 215.028 2.27355V10.8229C215.028 10.9339 215.006 11.0438 214.964 11.1463C214.922 11.2489 214.859 11.3421 214.781 11.4206C214.702 11.499 214.609 11.5613 214.507 11.6037C214.404 11.6461 214.294 11.6678 214.183 11.6677Z" fill="white"/>
</g>
</g>
<defs>
<clipPath id="clip0_1465_14334">
<rect width="255.964" height="60.7031" fill="white" transform="translate(0.015625 0.96875)"/>
</clipPath>
</defs>
</svg>
