<svg width="256" height="62" viewBox="0 0 256 62" fill="none" xmlns="http://www.w3.org/2000/svg">
<g opacity="0.15">
<path d="M0.015625 1.29383V49.4604C0.015625 49.7041 0.112425 49.9378 0.284737 50.1101C0.45705 50.2824 0.690765 50.3792 0.934452 50.3792H9.33283C9.57652 50.3792 9.81024 50.2824 9.98255 50.1101C10.1549 49.9378 10.2517 49.7041 10.2517 49.4604V1.29383C10.2517 1.05014 10.1549 0.816425 9.98255 0.644112C9.81024 0.4718 9.57652 0.375 9.33283 0.375H0.934452C0.690765 0.375 0.45705 0.4718 0.284737 0.644112C0.112425 0.816425 0.015625 1.05014 0.015625 1.29383Z" fill="white"/>
<path d="M81.9219 1.29285V28.9874C81.9221 29.231 82.019 29.4646 82.1912 29.6368C82.3635 29.8091 82.597 29.906 82.8406 29.9062H91.239C91.4827 29.9062 91.7164 29.8094 91.8887 29.6371C92.061 29.4648 92.1578 29.2311 92.1578 28.9874V1.29285C92.1578 1.04916 92.061 0.815448 91.8887 0.643136C91.7164 0.470824 91.4827 0.374023 91.239 0.374023H82.8406C82.597 0.374288 82.3635 0.471186 82.1912 0.643441C82.019 0.815696 81.9221 1.04924 81.9219 1.29285Z" fill="white"/>
<path d="M61.4453 1.29383V18.7434C61.4452 18.8641 61.4688 18.9837 61.5149 19.0953C61.5611 19.2069 61.6287 19.3083 61.7141 19.3938C61.7994 19.4792 61.9007 19.547 62.0123 19.5932C62.1238 19.6394 62.2434 19.6632 62.3641 19.6632H70.7625C71.0062 19.663 71.24 19.5659 71.4122 19.3935C71.5845 19.221 71.6813 18.9872 71.6813 18.7434V1.29383C71.6813 1.05014 71.5845 0.816425 71.4122 0.644112C71.2399 0.4718 71.0061 0.375 70.7625 0.375H62.3641C62.1205 0.375 61.8867 0.4718 61.7144 0.644112C61.5421 0.816425 61.4453 1.05014 61.4453 1.29383Z" fill="white"/>
<path d="M20.4922 1.2938V38.5115C20.4921 38.6321 20.5157 38.7516 20.5618 38.8631C20.6079 38.9745 20.6754 39.0758 20.7607 39.1612C20.8459 39.2465 20.9471 39.3142 21.0585 39.3604C21.17 39.4066 21.2894 39.4303 21.41 39.4303H29.8084C29.9291 39.4305 30.0486 39.4068 30.1602 39.3607C30.2717 39.3145 30.373 39.2469 30.4584 39.1615C30.5437 39.0762 30.6114 38.9748 30.6576 38.8633C30.7037 38.7518 30.7273 38.6322 30.7272 38.5115V1.2938C30.7272 1.05011 30.6304 0.816425 30.4581 0.644112C30.2858 0.4718 30.0521 0.375 29.8084 0.375H21.41C21.1665 0.375265 20.9331 0.472164 20.761 0.644448C20.5889 0.816732 20.4922 1.05028 20.4922 1.2938Z" fill="white"/>
<path d="M102.398 1.29383V49.4604C102.398 49.7039 102.495 49.9375 102.667 50.1097C102.839 50.282 103.073 50.379 103.316 50.3792H111.715C111.958 50.379 112.192 50.2821 112.364 50.1098C112.536 49.9375 112.633 49.704 112.633 49.4604V1.29383C112.633 1.05022 112.536 0.816672 112.364 0.644417C112.192 0.472163 111.958 0.375265 111.715 0.375H103.316C103.073 0.375265 102.839 0.472195 102.667 0.644479C102.495 0.816762 102.398 1.05031 102.398 1.29383Z" fill="white"/>
<path d="M122.875 1.29383V49.4604C122.875 49.7041 122.972 49.9378 123.144 50.1101C123.316 50.2824 123.55 50.3792 123.794 50.3792H132.192C132.436 50.379 132.669 50.282 132.841 50.1097C133.013 49.9375 133.11 49.7039 133.11 49.4604V1.29383C133.11 1.05031 133.013 0.816762 132.841 0.644479C132.669 0.472195 132.436 0.375265 132.192 0.375H123.794C123.55 0.375 123.316 0.4718 123.144 0.644112C122.972 0.816425 122.875 1.05014 122.875 1.29383Z" fill="white"/>
<path d="M91.3171 50.3789H82.7667C82.5428 50.3792 82.328 50.4683 82.1696 50.6266C82.0112 50.785 81.9221 50.9998 81.9219 51.2237V59.7731C81.9221 59.997 82.0112 60.2118 82.1696 60.3701C82.328 60.5285 82.5428 60.6176 82.7667 60.6179H91.3171C91.428 60.6179 91.5377 60.5961 91.6402 60.5536C91.7426 60.5111 91.8357 60.4489 91.9141 60.3704C91.9924 60.2919 92.0546 60.1988 92.0969 60.0963C92.1393 59.9938 92.161 59.884 92.1609 59.7731V51.2237C92.161 51.1128 92.1393 51.003 92.0969 50.9005C92.0546 50.798 91.9924 50.7049 91.9141 50.6264C91.8357 50.548 91.7426 50.4857 91.6402 50.4432C91.5377 50.4008 91.428 50.3789 91.3171 50.3789Z" fill="white"/>
<path d="M204.789 1.29285V28.9874C204.789 29.1081 204.813 29.2276 204.859 29.339C204.905 29.4505 204.973 29.5518 205.058 29.6371C205.143 29.7224 205.245 29.7901 205.356 29.8363C205.468 29.8825 205.587 29.9062 205.708 29.9062H214.106C214.35 29.9062 214.584 29.8094 214.756 29.6371C214.928 29.4648 215.025 29.2311 215.025 28.9874V1.29285C215.025 1.04916 214.928 0.815448 214.756 0.643136C214.584 0.470824 214.35 0.374023 214.106 0.374023H205.708C205.587 0.374023 205.468 0.397781 205.356 0.443956C205.245 0.490131 205.143 0.557815 205.058 0.643136C204.973 0.728456 204.905 0.829758 204.859 0.941234C204.813 1.05271 204.789 1.17219 204.789 1.29285Z" fill="white"/>
<path d="M184.313 1.29383V18.7434C184.312 18.8642 184.336 18.9838 184.382 19.0955C184.428 19.2071 184.496 19.3086 184.581 19.3941C184.666 19.4795 184.768 19.5472 184.879 19.5934C184.991 19.6396 185.111 19.6634 185.231 19.6632H193.63C193.874 19.663 194.107 19.5659 194.28 19.3935C194.452 19.221 194.549 18.9872 194.549 18.7434V1.29383C194.548 1.05022 194.451 0.816673 194.279 0.644418C194.107 0.472163 193.873 0.375265 193.63 0.375001H185.231C185.111 0.374869 184.991 0.398561 184.88 0.444689C184.768 0.490817 184.667 0.558492 184.581 0.643838C184.496 0.729185 184.428 0.830523 184.382 0.942059C184.336 1.05359 184.312 1.17313 184.313 1.29383Z" fill="white"/>
<path d="M163.836 1.29383V60.1583C163.836 60.4019 163.933 60.6354 164.105 60.8077C164.278 60.98 164.511 61.0769 164.755 61.0771H173.153C173.397 61.0769 173.63 60.98 173.803 60.8077C173.975 60.6354 174.072 60.4019 174.072 60.1583V1.29383C174.072 1.05014 173.975 0.816425 173.803 0.644112C173.631 0.4718 173.397 0.375 173.153 0.375H164.755C164.511 0.375265 164.278 0.472163 164.105 0.644418C163.933 0.816672 163.836 1.05022 163.836 1.29383Z" fill="white"/>
<path d="M143.359 1.2938V38.5115C143.359 38.6323 143.383 38.7518 143.429 38.8634C143.475 38.975 143.543 39.0764 143.628 39.1618C143.713 39.2472 143.815 39.3148 143.926 39.3609C144.038 39.407 144.157 39.4306 144.278 39.4303H152.677C152.797 39.4305 152.917 39.4068 153.028 39.3607C153.14 39.3145 153.241 39.2469 153.327 39.1615C153.412 39.0762 153.48 38.9748 153.526 38.8633C153.572 38.7518 153.595 38.6322 153.595 38.5115V1.2938C153.595 1.05011 153.499 0.816425 153.326 0.644113C153.154 0.471801 152.92 0.375001 152.677 0.375001H144.278C144.158 0.374869 144.038 0.39853 143.926 0.444659C143.815 0.490787 143.714 0.558461 143.628 0.643808C143.543 0.729154 143.475 0.830492 143.429 0.942028C143.383 1.05356 143.359 1.1731 143.359 1.2938Z" fill="white"/>
<path d="M225.266 1.29383V49.4604C225.266 49.704 225.363 49.9375 225.535 50.1098C225.707 50.2821 225.941 50.379 226.184 50.3792H234.583C234.703 50.3792 234.823 50.3554 234.934 50.3093C235.046 50.2631 235.147 50.1954 235.232 50.1101C235.317 50.0247 235.385 49.9234 235.431 49.812C235.477 49.7005 235.501 49.581 235.501 49.4604V1.29383C235.501 1.17321 235.477 1.05377 235.431 0.942302C235.385 0.830832 235.317 0.729507 235.232 0.644173C235.147 0.55884 235.046 0.49115 234.934 0.444963C234.823 0.398776 234.703 0.375 234.583 0.375H226.184C225.941 0.375265 225.707 0.472163 225.535 0.644417C225.363 0.816672 225.266 1.05022 225.266 1.29383Z" fill="white"/>
<path d="M245.742 1.29383V49.4604C245.742 49.7041 245.839 49.9378 246.011 50.1101C246.184 50.2824 246.417 50.3792 246.661 50.3792H255.059C255.303 50.3792 255.537 50.2824 255.709 50.1101C255.881 49.9378 255.978 49.7041 255.978 49.4604V1.29383C255.978 1.05014 255.881 0.816425 255.709 0.644112C255.537 0.4718 255.303 0.375 255.059 0.375H246.661C246.417 0.375 246.184 0.4718 246.011 0.644112C245.839 0.816425 245.742 1.05014 245.742 1.29383Z" fill="white"/>
<path d="M214.183 50.3789H205.634C205.41 50.3789 205.195 50.4679 205.036 50.6264C204.878 50.7848 204.789 50.9997 204.789 51.2237V59.7731C204.789 59.9971 204.878 60.212 205.036 60.3705C205.195 60.5289 205.41 60.6179 205.634 60.6179H214.183C214.294 60.618 214.404 60.5963 214.507 60.5539C214.609 60.5114 214.702 60.4492 214.781 60.3708C214.859 60.2923 214.922 60.1991 214.964 60.0965C215.006 59.994 215.028 59.884 215.028 59.7731V51.2237C215.028 51.1128 215.006 51.0028 214.964 50.9003C214.922 50.7977 214.859 50.7045 214.781 50.6261C214.702 50.5476 214.609 50.4854 214.507 50.443C214.404 50.4005 214.294 50.3788 214.183 50.3789Z" fill="white"/>
</g>
</svg>
