<svg width="24" height="26" viewBox="0 0 24 26" fill="none" xmlns="http://www.w3.org/2000/svg">
<g id="Camada_1" clip-path="url(#clip0_1997_12990)">
<path id="Vector" d="M22.5548 0.506865C22.7756 0.635091 22.8344 0.832206 22.8339 1.08061C22.8289 4.32799 22.8309 7.57537 22.8304 10.8228C22.8304 11.2602 22.6998 11.391 22.2671 11.391C18.6441 11.391 15.0205 11.3925 11.3975 11.388C11.212 11.388 11.1024 11.4292 10.9992 11.6077C10.6353 12.2368 9.84365 12.4434 9.20608 12.098C8.65225 11.7978 8.10241 11.491 7.55008 11.1878C7.48179 11.1501 7.411 11.1174 7.30682 11.0651C7.30682 11.1959 7.30682 11.2899 7.30682 11.3844C7.30532 12.1739 7.30482 12.9634 7.30183 13.7528C7.30034 14.1189 7.16425 14.2647 6.80982 14.2652C5.43796 14.2677 4.06611 14.2677 2.69425 14.2652C2.34581 14.2647 2.20872 14.1259 2.20224 13.78C2.19925 13.6115 2.20174 13.4426 2.20174 13.2963C1.97443 13.2837 1.77104 13.2983 1.57912 13.257C1.11901 13.1585 0.730684 12.7512 0.727195 12.2825C0.71872 11.2185 0.621514 10.1494 0.81493 9.09196C0.951517 8.34624 1.24762 7.66438 1.67533 7.04135C2.05169 6.49325 2.59206 6.20512 3.23013 6.17746C4.18026 6.13572 5.13338 6.14427 6.08501 6.15936C6.67273 6.16891 7.1463 6.45956 7.53961 6.88798C7.61439 6.96995 7.68218 7.05845 7.79285 7.1922C7.79285 7.05442 7.79285 6.96944 7.79285 6.88496C7.79285 4.948 7.79584 3.01104 7.78936 1.07408C7.78836 0.823155 7.85018 0.628554 8.07649 0.505859H22.5548V0.506865ZM13.1736 6.34139C13.1218 6.42385 13.0809 6.49325 13.0365 6.55962C12.361 7.57185 11.6916 8.58811 11.0036 9.59128C10.8601 9.80047 10.8028 9.95836 11.0017 10.151C11.051 10.1987 11.0874 10.2752 11.1009 10.3435C11.1392 10.5427 11.2524 10.5814 11.4423 10.5809C14.8799 10.5743 18.3171 10.5764 21.7547 10.5764H22.0049V1.32852H8.62932C8.61786 1.36221 8.6039 1.38483 8.6039 1.40696C8.60191 3.74268 8.59991 6.0784 8.60639 8.41412C8.60639 8.50262 8.6697 8.63034 8.74248 8.67309C9.1991 8.94161 9.66719 9.19152 10.1398 9.45199C10.9388 8.25723 11.725 7.08158 12.5181 5.89536C12.7534 6.05527 12.9587 6.19506 13.1736 6.34089V6.34139ZM6.50574 13.4471C6.50574 13.3254 6.50574 13.2294 6.50574 13.1328C6.50973 12.0668 6.51371 11.0008 6.5177 9.93473C6.5192 9.53245 6.63584 9.35444 6.90204 9.3469C7.17721 9.33936 7.29834 9.5239 7.3143 9.93573C7.31778 10.0247 7.36265 10.154 7.42895 10.1917C8.15127 10.6035 8.87757 11.0098 9.61235 11.3985C9.97376 11.5896 10.3905 11.314 10.4035 10.9032C10.4124 10.6126 10.2544 10.4346 10.0201 10.3053C9.46829 10.0016 8.91197 9.70593 8.36711 9.39014C8.22006 9.30466 8.07998 9.17694 7.98577 9.03564C7.67969 8.57755 7.40004 8.10135 7.10244 7.63722C6.8477 7.23997 6.49377 6.96995 6.01472 6.95989C5.15183 6.94179 4.28794 6.94229 3.42504 6.9614C2.97391 6.97145 2.57362 7.13136 2.30742 7.53665C1.94651 8.08576 1.64791 8.6756 1.59657 9.33081C1.52379 10.2611 1.52578 11.1979 1.51033 12.1322C1.50684 12.3595 1.66536 12.4907 1.86127 12.4852C2.05768 12.4796 2.19277 12.3469 2.19626 12.1141C2.20523 11.5609 2.19975 11.0073 2.20074 10.4542C2.20124 10.1122 2.19476 9.7703 2.20872 9.42886C2.21819 9.20158 2.39615 9.05022 2.60801 9.05676C2.80891 9.06279 2.96842 9.21515 2.99036 9.42635C2.99784 9.49876 2.99435 9.57268 2.99435 9.64609C2.99435 10.8263 2.99435 12.0059 2.99435 13.1861C2.99435 13.2716 2.99435 13.3576 2.99435 13.4466H6.50524L6.50574 13.4471Z" fill="#004042"/>
<path id="Vector_2" d="M8.33175 23.8161C8.33175 23.3851 8.29835 22.9507 8.33873 22.5233C8.42597 21.601 8.92496 20.9262 9.6742 20.4214C11.2036 19.3905 13.2703 19.4856 14.6621 20.6502C15.3416 21.2184 15.704 21.943 15.7135 22.836C15.7209 23.5601 15.7179 24.2847 15.7144 25.0093C15.7125 25.385 15.5265 25.5439 15.1631 25.5001C15.0435 25.4855 14.9223 25.4765 14.8017 25.4765C12.8247 25.475 10.8477 25.4755 8.87062 25.4755C8.38659 25.4755 8.27791 25.3593 8.2834 24.8665C8.28739 24.5165 8.28439 24.1666 8.28439 23.8171C8.30035 23.8171 8.3158 23.8171 8.33175 23.8171V23.8161ZM14.9069 24.6644C14.9069 24.0192 14.9104 23.4012 14.9059 22.7837C14.9019 22.2718 14.719 21.8268 14.3575 21.4703C13.1572 20.2866 11.2454 20.174 9.87708 21.2762C9.39055 21.6684 9.12785 22.1803 9.11937 22.8164C9.11239 23.3127 9.10242 23.8085 9.09445 24.3049C9.09245 24.423 9.09445 24.5412 9.09445 24.6644H14.9074H14.9069Z" fill="#004042"/>
<path id="Vector_3" d="M0.0543908 23.799C0.0543908 23.36 0.0145113 22.916 0.0623668 22.4826C0.173531 21.4713 0.765243 20.7804 1.61219 20.2851C3.31504 19.2885 5.53234 19.6133 6.7706 21.0394C7.22174 21.5588 7.42463 22.1718 7.43061 22.8537C7.43659 23.5697 7.4351 24.2863 7.43111 25.0023C7.42911 25.3935 7.24666 25.5459 6.86332 25.4976C6.75166 25.4836 6.6385 25.477 6.52584 25.4765C4.54084 25.4755 2.55583 25.476 0.570831 25.4755C0.115207 25.4755 -0.00293598 25.3523 5.49877e-05 24.8977C0.00254746 24.5317 0.000553482 24.1656 0.000553482 23.7995H0.0543908V23.799ZM0.860456 24.6579H6.62554C6.62554 24.0228 6.62953 23.4053 6.62454 22.7878C6.62006 22.2764 6.4396 21.8304 6.07819 21.4729C4.77015 20.1775 2.65055 20.2022 1.36842 21.4899C1.08627 21.7736 0.884882 22.121 0.868432 22.5208C0.839519 23.2258 0.860456 23.9333 0.860456 24.6579Z" fill="#004042"/>
<path id="Vector_4" d="M23.9979 23.8801C23.9979 24.2627 24.0018 24.6449 23.9969 25.0276C23.9919 25.3846 23.8034 25.542 23.4515 25.5002C23.3319 25.4862 23.2107 25.4761 23.0906 25.4761C21.1136 25.4746 19.1365 25.4751 17.16 25.4751C16.6705 25.4751 16.5603 25.3599 16.5688 24.8712C16.5798 24.2607 16.6082 23.6503 16.5942 23.0403C16.5638 21.6982 17.2004 20.7705 18.3519 20.1957C19.9625 19.3922 21.5094 19.5491 22.9371 20.6518C23.6529 21.2044 23.9934 21.9677 23.9979 22.8794C23.9994 23.2133 23.9979 23.5467 23.9979 23.8806V23.8801ZM23.1883 24.6635C23.1883 24.0088 23.1933 23.3828 23.1868 22.7572C23.1813 22.2634 23.0014 21.833 22.6554 21.4865C21.5527 20.3808 19.7736 20.152 18.3509 21.1305C17.7462 21.5464 17.4013 22.1101 17.4013 22.8683C17.4013 23.3727 17.3843 23.8771 17.3759 24.3809C17.3744 24.4744 17.3759 24.568 17.3759 24.664H23.1888L23.1883 24.6635Z" fill="#004042"/>
<path id="Vector_5" d="M2.44734 3.41648C2.45731 2.16288 3.47424 1.14864 4.70353 1.16624C5.94876 1.18384 6.9298 2.19657 6.92133 3.45469C6.91285 4.7093 5.90041 5.718 4.66564 5.70292C3.4204 5.68733 2.43737 4.6741 2.44734 3.41698V3.41648ZM4.66414 4.90038C5.45525 4.90993 6.11526 4.25975 6.12972 3.4552C6.14417 2.65768 5.49264 1.98035 4.70353 1.9723C3.90693 1.96426 3.25091 2.61092 3.23895 3.41547C3.22699 4.2155 3.87553 4.89082 4.66414 4.90038Z" fill="#004042"/>
<path id="Vector_6" d="M5.76626 17.0035C5.76027 18.16 4.84255 19.0777 3.699 19.0707C2.57191 19.0636 1.66215 18.1374 1.66016 16.9954C1.65817 15.8379 2.59334 14.9036 3.74337 14.9142C4.86647 14.9242 5.77174 15.8595 5.76626 17.0035ZM2.45974 16.9713C2.45027 17.6748 2.99961 18.2536 3.69302 18.2712C4.37346 18.2882 4.96069 17.713 4.97365 17.0166C4.98661 16.3176 4.43179 15.7358 3.73838 15.7197C3.04996 15.7041 2.46971 16.2723 2.46024 16.9713H2.45974Z" fill="#004042"/>
<path id="Vector_7" d="M18.2305 16.9878C18.234 15.8338 19.1527 14.9106 20.2932 14.9141C21.4164 14.9181 22.3301 15.8448 22.3361 16.9868C22.3426 18.1343 21.4198 19.0701 20.2818 19.0706C19.1412 19.0706 18.227 18.1428 18.2305 16.9873V16.9878ZM21.5375 17.0029C21.541 16.2989 20.9847 15.7267 20.2903 15.7201C19.6018 15.7136 19.0281 16.2863 19.0236 16.9853C19.0191 17.6822 19.5849 18.2645 20.2728 18.2716C20.9587 18.2781 21.534 17.7013 21.5375 17.0029Z" fill="#004042"/>
<path id="Vector_8" d="M9.94531 16.9928C9.94531 15.8408 10.8665 14.9116 12.0046 14.9141C13.1407 14.9166 14.0584 15.8554 14.0499 17.0059C14.0414 18.1524 13.1337 19.0681 12.0036 19.0706C10.863 19.0731 9.94531 18.1464 9.94581 16.9928H9.94531ZM13.2548 16.9908C13.2533 16.2909 12.6845 15.7176 11.9941 15.7201C11.3022 15.7226 10.7389 16.2969 10.7404 16.9979C10.7419 17.6948 11.3157 18.2741 12.0011 18.2716C12.6885 18.2691 13.2568 17.6888 13.2553 16.9908H13.2548Z" fill="#004042"/>
<path id="Vector_9" d="M20.7482 9.57709H19.9785V2.63379H20.7482V9.57709Z" fill="#004042"/>
<path id="Vector_10" d="M15.4302 9.57086H14.668V5.48926H15.4302V9.57086Z" fill="#004042"/>
<path id="Vector_11" d="M18.6007 9.57104H17.832V5.75293H18.6007V9.57104Z" fill="#004042"/>
<path id="Vector_12" d="M17.0485 6.96973V9.57246H16.2773V6.96973H17.0485Z" fill="#004042"/>
</g>
<defs>
<clipPath id="clip0_1997_12990">
<rect width="24" height="25" fill="white" transform="translate(0 0.506836)"/>
</clipPath>
</defs>
</svg>
