<svg width="31" height="31" viewBox="0 0 31 31" fill="none" xmlns="http://www.w3.org/2000/svg">
<g clip-path="url(#clip0_2440_16122)">
<path d="M9.106 20.623C9.62309 20.5004 10.1003 20.2478 10.4925 19.8891C10.8846 19.5305 11.1787 19.0777 11.3469 18.5736H21.9655C22.656 18.5711 23.3271 18.3456 23.8791 17.9307C24.431 17.5158 24.8341 16.9337 25.0283 16.2712L26.3109 11.8415C27.2275 11.6118 28.0732 11.1594 28.7729 10.5244C29.4726 9.88938 30.0047 9.09143 30.322 8.20138C30.6392 7.31132 30.7318 6.3567 30.5915 5.42227C30.4512 4.48784 30.0824 3.6025 29.5178 2.84485C28.9531 2.08721 28.2101 1.4807 27.3548 1.07916C26.4995 0.677626 25.5582 0.493492 24.6146 0.543105C23.671 0.592719 22.7542 0.874546 21.9457 1.36357C21.1372 1.85258 20.4619 2.53367 19.9798 3.34635H17.8864C17.7311 3.34635 17.5821 3.40805 17.4723 3.51787C17.3625 3.62769 17.3008 3.77665 17.3008 3.93196C17.3008 4.08727 17.3625 4.23623 17.4723 4.34605C17.5821 4.45587 17.7311 4.51757 17.8864 4.51757H19.4502C19.1735 5.37838 19.1041 6.29238 19.2477 7.18509C19.3913 8.0778 19.7437 8.92397 20.2763 9.65463C20.8089 10.3853 21.5066 10.9798 22.3126 11.3897C23.1185 11.7995 24.0099 12.0132 24.9141 12.0132C24.957 12.0132 24.9997 12.0132 25.0422 12.0115L23.9036 15.9448C23.7806 16.3638 23.5256 16.732 23.1765 16.9944C22.8274 17.2568 22.4028 17.3994 21.9661 17.401H11.5035C11.4937 17.2369 11.471 17.0738 11.4354 16.9133L8.67182 4.51757H12.6168C12.7721 4.51757 12.9211 4.45587 13.0309 4.34605C13.1407 4.23623 13.2024 4.08727 13.2024 3.93196C13.2024 3.77665 13.1407 3.62769 13.0309 3.51787C12.9211 3.40805 12.7721 3.34635 12.6168 3.34635H8.41033L8.32683 2.97194C8.1759 2.27918 7.79175 1.65921 7.23858 1.21568C6.68542 0.772148 5.99678 0.531933 5.28777 0.535189H1.25358C1.09827 0.535189 0.949314 0.596887 0.83949 0.70671C0.729667 0.816534 0.667969 0.965486 0.667969 1.1208L0.667969 3.6976C0.667969 3.85291 0.729667 4.00187 0.83949 4.11169C0.949314 4.22151 1.09827 4.28321 1.25358 4.28321H4.77977L7.64976 17.1619C6.73082 17.5274 5.96801 18.2018 5.49259 19.0691C5.01718 19.9363 4.85887 20.9421 5.04492 21.9134C5.23097 22.8847 5.74974 23.7608 6.51197 24.3909C7.27419 25.0211 8.23221 25.3659 9.22119 25.366H10.7943C10.3195 25.7336 9.97146 26.2406 9.79902 26.8159C9.62657 27.3912 9.63832 28.006 9.83261 28.5742C10.0269 29.1425 10.394 29.6358 10.8826 29.9851C11.3711 30.3344 11.9567 30.5222 12.5572 30.5222C13.1578 30.5222 13.7433 30.3344 14.2319 29.9851C14.7205 29.6358 15.0876 29.1425 15.2819 28.5742C15.4762 28.006 15.4879 27.3912 15.3155 26.8159C15.143 26.2406 14.795 25.7336 14.3201 25.366H20.7774C20.3026 25.7336 19.9547 26.2406 19.7823 26.8158C19.6098 27.391 19.6216 28.0058 19.8159 28.574C20.0102 29.1422 20.3773 29.6355 20.8658 29.9847C21.3543 30.334 21.9398 30.5217 22.5403 30.5217C23.1408 30.5217 23.7263 30.334 24.2148 29.9847C24.7034 29.6355 25.0705 29.1422 25.2647 28.574C25.459 28.0058 25.4708 27.391 25.2984 26.8158C25.126 26.2406 24.778 25.7336 24.3032 25.366H27.3728C27.4498 25.366 27.5259 25.3508 27.5969 25.3214C27.668 25.292 27.7326 25.2488 27.7869 25.1944C27.8413 25.1401 27.8845 25.0755 27.9139 25.0045C27.9433 24.9334 27.9585 24.8573 27.9585 24.7803V22.2035C27.9585 22.1266 27.9433 22.0505 27.9139 21.9794C27.8845 21.9084 27.8413 21.8438 27.7869 21.7895C27.7326 21.7351 27.668 21.6919 27.5969 21.6625C27.5259 21.6331 27.4498 21.6179 27.3728 21.6179H9.22119C9.09761 21.6178 8.97839 21.5723 8.88616 21.49C8.79394 21.4077 8.73514 21.2945 8.72092 21.1717C8.70671 21.049 8.73808 20.9253 8.80907 20.8241C8.88006 20.7229 8.98572 20.6514 9.106 20.623ZM20.3465 6.2744C20.3465 5.37094 20.6144 4.48776 21.1163 3.73656C21.6182 2.98536 22.3317 2.39987 23.1664 2.05413C24.0011 1.70839 24.9195 1.61793 25.8056 1.79418C26.6917 1.97044 27.5057 2.4055 28.1445 3.04434C28.7834 3.68319 29.2184 4.49713 29.3947 5.38323C29.5709 6.26934 29.4805 7.18781 29.1347 8.0225C28.789 8.85719 28.2035 9.57061 27.4523 10.0725C26.7011 10.5745 25.8179 10.8424 24.9145 10.8424C23.7034 10.841 22.5423 10.3593 21.686 9.50291C20.8296 8.64655 20.3479 7.48548 20.3465 6.2744ZM12.5572 29.3483C12.2194 29.3483 11.8892 29.2482 11.6084 29.0605C11.3275 28.8729 11.1086 28.6061 10.9794 28.294C10.8501 27.982 10.8163 27.6386 10.8822 27.3073C10.9481 26.976 11.1107 26.6717 11.3496 26.4328C11.5884 26.194 11.8927 26.0313 12.224 25.9654C12.5553 25.8995 12.8987 25.9333 13.2108 26.0626C13.5229 26.1919 13.7896 26.4108 13.9773 26.6916C14.1649 26.9725 14.2651 27.3027 14.2651 27.6405C14.2646 28.0933 14.0844 28.5273 13.7643 28.8475C13.4441 29.1677 13.01 29.3478 12.5572 29.3483ZM22.5403 29.3483C22.2025 29.3483 21.8723 29.2482 21.5915 29.0605C21.3106 28.8729 21.0917 28.6061 20.9625 28.294C20.8332 27.982 20.7994 27.6386 20.8653 27.3073C20.9312 26.976 21.0938 26.6717 21.3327 26.4328C21.5715 26.194 21.8758 26.0313 22.2071 25.9654C22.5384 25.8995 22.8818 25.9333 23.1939 26.0626C23.506 26.1919 23.7727 26.4108 23.9604 26.6916C24.148 26.9725 24.2482 27.3027 24.2482 27.6405C24.2476 28.0933 24.0675 28.5273 23.7474 28.8475C23.4272 29.1677 22.9931 29.3478 22.5403 29.3483ZM7.54576 21.1139C7.54627 21.5581 7.72295 21.984 8.03704 22.2981C8.35113 22.6122 8.77699 22.7888 9.22119 22.7893H26.7872V24.1949H9.22119C8.46887 24.1949 7.74256 23.9196 7.17923 23.421C6.61589 22.9223 6.25447 22.2348 6.16311 21.4881C6.07176 20.7413 6.25678 19.9869 6.68329 19.3672C7.10981 18.7475 7.74833 18.3052 8.47845 18.1238C8.6269 18.087 8.75507 17.9937 8.83557 17.8636C8.91606 17.7336 8.9425 17.5772 8.90922 17.428L5.82081 3.57027C5.79185 3.44027 5.71945 3.32403 5.61554 3.24072C5.51163 3.1574 5.38243 3.112 5.24924 3.11199H1.83919V1.70641H5.28796C5.73033 1.70434 6.16001 1.85419 6.50517 2.13089C6.85033 2.40759 7.09005 2.79438 7.18426 3.22661L10.2913 17.1685C10.4007 17.6677 10.3098 18.1899 10.0381 18.6227C9.76647 19.0555 9.33573 19.3643 8.83862 19.4827C8.47006 19.5679 8.14138 19.7758 7.90648 20.0724C7.67158 20.3689 7.54439 20.7364 7.54576 21.1147V21.1139Z" fill="white"/>
<path d="M15.2505 4.5173C15.386 4.51716 15.5173 4.47001 15.622 4.38389C15.7267 4.29778 15.7983 4.17803 15.8246 4.04505C15.8508 3.91207 15.8302 3.7741 15.7661 3.65464C15.702 3.53519 15.5985 3.44165 15.4732 3.38996C15.3479 3.33828 15.2086 3.33165 15.0789 3.3712C14.9493 3.41075 14.8374 3.49405 14.7622 3.60688C14.6871 3.71971 14.6535 3.8551 14.667 3.98997C14.6805 4.12485 14.7404 4.25085 14.8364 4.34652C14.9466 4.45566 15.0954 4.51702 15.2505 4.5173Z" fill="white"/>
</g>
<defs>
<clipPath id="clip0_2440_16122">
<rect width="29.9851" height="29.9844" fill="white" transform="translate(0.667969 0.535156)"/>
</clipPath>
</defs>
</svg>
