<svg width="53" height="53" viewBox="0 0 53 53" fill="none" xmlns="http://www.w3.org/2000/svg">
<path d="M45.3407 7.65931C40.3306 2.72607 33.5738 -0.0269603 26.5426 0.000199058C19.5115 0.0273585 12.7761 2.83251 7.8043 7.8043C2.83251 12.7761 0.0273585 19.5115 0.000199058 26.5426C-0.0269603 33.5738 2.72607 40.3306 7.65931 45.3407C12.6694 50.2739 19.4262 53.027 26.4574 52.9998C33.4885 52.9726 40.2239 50.1675 45.1957 45.1957C50.1675 40.2239 52.9726 33.4885 52.9998 26.4574C53.027 19.4262 50.2739 12.6694 45.3407 7.65931ZM44.2347 44.2379C39.5199 48.8917 33.1556 51.4915 26.5309 51.4698C19.9061 51.4482 13.559 48.8067 8.87477 44.1221C4.19056 39.4375 1.54969 33.0901 1.52858 26.4653C1.50747 19.8406 4.10784 13.4765 8.7621 8.7621C13.4665 4.05772 19.847 1.41482 26.5 1.41482C33.153 1.41482 39.5335 4.05772 44.2379 8.7621C48.9423 13.4665 51.5852 19.847 51.5852 26.5C51.5852 33.153 48.9423 39.5335 44.2379 44.2379H44.2347Z" fill="#004042"/>
<path d="M41.1301 9.43126C36.8312 5.74392 31.2986 3.81561 25.6391 4.03206C19.9795 4.24851 14.6104 6.59376 10.6057 10.5987C6.60098 14.6036 4.25599 19.9728 4.03983 25.6324C3.82366 31.2919 5.75225 36.8244 9.43981 41.1231C9.57473 41.2803 9.76655 41.3774 9.97307 41.3931C10.1796 41.4088 10.3839 41.3418 10.541 41.2069C10.6982 41.0719 10.7953 40.8801 10.811 40.6736C10.8267 40.4671 10.7597 40.2628 10.6248 40.1056C7.1949 36.1053 5.40159 30.9575 5.60346 25.692C5.80532 20.4264 7.98748 15.4311 11.7135 11.705C15.4396 7.97894 20.4349 5.79678 25.7005 5.59492C30.9661 5.39305 36.1138 7.18636 40.1142 10.6162C40.2713 10.7511 40.4756 10.8181 40.6821 10.8024C40.8887 10.7867 41.0805 10.6896 41.2154 10.5325C41.3503 10.3753 41.4173 10.171 41.4016 9.96453C41.3859 9.75801 41.2872 9.56619 41.1301 9.43126Z" fill="#004042"/>
<path d="M43.5594 11.8777C43.4244 11.7205 43.2326 11.6234 43.0261 11.6077C42.8196 11.592 42.6153 11.659 42.4582 11.7939C42.301 11.9289 42.2039 12.1207 42.1882 12.3272C42.1725 12.5337 42.2395 12.738 42.3744 12.8951C45.8041 16.8957 47.5971 22.0435 47.395 27.3091C47.1928 32.5747 45.0104 37.5699 41.2841 41.2957C37.5579 45.0216 32.5624 47.2035 27.2968 47.4051C22.0312 47.6066 16.8836 45.8131 12.8834 42.383C12.7263 42.2481 12.522 42.1811 12.3155 42.1968C12.1089 42.2125 11.9171 42.3096 11.7822 42.4667C11.6473 42.6239 11.5803 42.8281 11.596 43.0347C11.6117 43.2412 11.7088 43.433 11.8659 43.5679C15.9329 47.0641 21.1203 48.9833 26.4835 48.976C26.7536 48.976 27.027 48.976 27.2987 48.9618C31.5251 48.8098 35.6228 47.4684 39.1209 45.0917C42.619 42.7151 45.3755 39.3997 47.0737 35.5265C48.7719 31.6534 49.3428 27.3797 48.7209 23.1966C48.0989 19.0135 46.3094 15.0908 43.5578 11.8792L43.5594 11.8777Z" fill="#004042"/>
<path d="M26.4875 7.35938C26.2805 7.35938 26.082 7.4416 25.9356 7.58797C25.7893 7.73434 25.707 7.93286 25.707 8.13985V10.6425C25.707 10.8495 25.7893 11.048 25.9356 11.1944C26.082 11.3407 26.2805 11.423 26.4875 11.423C26.6945 11.423 26.893 11.3407 27.0394 11.1944C27.1858 11.048 27.268 10.8495 27.268 10.6425V8.13985C27.268 7.93286 27.1858 7.73434 27.0394 7.58797C26.893 7.4416 26.6945 7.35938 26.4875 7.35938Z" fill="#004042"/>
<path d="M26.4875 41.5703C26.2805 41.5703 26.082 41.6525 25.9356 41.7989C25.7893 41.9453 25.707 42.1438 25.707 42.3508V44.8534C25.707 45.0604 25.7893 45.2589 25.9356 45.4053C26.082 45.5517 26.2805 45.6339 26.4875 45.6339C26.6945 45.6339 26.893 45.5517 27.0394 45.4053C27.1858 45.2589 27.268 45.0604 27.268 44.8534V42.3492C27.2676 42.1425 27.1852 41.9444 27.0388 41.7983C26.8925 41.6523 26.6942 41.5703 26.4875 41.5703Z" fill="#004042"/>
<path d="M44.8589 25.7188H42.3547C42.1477 25.7188 41.9492 25.801 41.8028 25.9473C41.6564 26.0937 41.5742 26.2922 41.5742 26.4992C41.5742 26.7062 41.6564 26.9047 41.8028 27.0511C41.9492 27.1975 42.1477 27.2797 42.3547 27.2797H44.8573C45.0643 27.2797 45.2628 27.1975 45.4092 27.0511C45.5556 26.9047 45.6378 26.7062 45.6378 26.4992C45.6378 26.2922 45.5556 26.0937 45.4092 25.9473C45.2628 25.801 45.0643 25.7188 44.8573 25.7188H44.8589Z" fill="#004042"/>
<path d="M42.808 35.0051L41.3624 34.171C41.183 34.0675 40.9699 34.0394 40.7699 34.093C40.5699 34.1467 40.3994 34.2776 40.2959 34.4569C40.1924 34.6363 40.1644 34.8494 40.2181 35.0494C40.2717 35.2493 40.4025 35.4199 40.5819 35.5234L42.0275 36.3575C42.2069 36.461 42.42 36.4891 42.62 36.4355C42.82 36.3818 42.9905 36.2509 43.094 36.0716C43.1975 35.8922 43.2255 35.6791 43.1718 35.4791C43.1182 35.2791 42.9874 35.1086 42.808 35.0051Z" fill="#004042"/>
<path d="M36.0677 9.92883C35.9789 9.87755 35.8808 9.84427 35.7792 9.83089C35.6775 9.81751 35.5742 9.8243 35.4752 9.85085C35.3761 9.87741 35.2833 9.92322 35.202 9.98566C35.1207 10.0481 35.0524 10.126 35.0012 10.2148L34.167 11.6604C34.1158 11.7492 34.0825 11.8473 34.0692 11.9489C34.0558 12.0506 34.0626 12.1539 34.0891 12.2529C34.1157 12.3519 34.1615 12.4447 34.2239 12.5261C34.2864 12.6074 34.3642 12.6756 34.453 12.7269C34.5418 12.7781 34.6398 12.8114 34.7415 12.8248C34.8431 12.8381 34.9464 12.8313 35.0454 12.8048C35.1445 12.7782 35.2373 12.7324 35.3186 12.67C35.4 12.6076 35.4682 12.5297 35.5194 12.4409L36.3536 10.9953C36.4049 10.9065 36.4382 10.8085 36.4516 10.7068C36.465 10.6051 36.4582 10.5018 36.4316 10.4028C36.4051 10.3038 36.3593 10.2109 36.2968 10.1296C36.2344 10.0483 36.1565 9.98005 36.0677 9.92883Z" fill="#004042"/>
<path d="M43.0744 16.9336C43.0232 16.8447 42.955 16.7669 42.8737 16.7044C42.7923 16.642 42.6995 16.5962 42.6005 16.5696C42.5014 16.543 42.3981 16.5363 42.2965 16.5496C42.1948 16.563 42.0968 16.5963 42.008 16.6476L40.5624 17.4818C40.383 17.5853 40.2522 17.7558 40.1985 17.9558C40.1449 18.1558 40.1729 18.3689 40.2764 18.5483C40.3799 18.7276 40.5504 18.8585 40.7504 18.9121C40.9504 18.9657 41.1635 18.9377 41.3429 18.8342L42.7885 18C42.8773 17.9488 42.9552 17.8806 43.0176 17.7992C43.0801 17.7179 43.1259 17.6251 43.1525 17.526C43.179 17.427 43.1858 17.3237 43.1724 17.222C43.159 17.1204 43.1257 17.0224 43.0744 16.9336Z" fill="#004042"/>
<path d="M36.3536 42.0002L35.5195 40.5545C35.416 40.3752 35.2454 40.2443 35.0454 40.1907C34.8454 40.1371 34.6324 40.1651 34.453 40.2686C34.2737 40.3721 34.1428 40.5426 34.0891 40.7426C34.0355 40.9426 34.0636 41.1557 34.1671 41.3351L35.0012 42.7807C35.1047 42.96 35.2752 43.0909 35.4752 43.1445C35.6752 43.1982 35.8883 43.1701 36.0677 43.0666C36.247 42.9631 36.3779 42.7927 36.4315 42.5927C36.4852 42.3927 36.4571 42.1795 36.3536 42.0002Z" fill="#004042"/>
<path d="M8.57859 27.2734L11.0828 27.2734C11.2898 27.2734 11.4883 27.1912 11.6347 27.0448C11.7811 26.8985 11.8633 26.6999 11.8633 26.4929C11.8633 26.2859 11.7811 26.0874 11.6347 25.9411C11.4883 25.7947 11.2898 25.7125 11.0828 25.7125L8.58018 25.7125C8.37318 25.7125 8.17467 25.7947 8.0283 25.9411C7.88193 26.0874 7.79971 26.2859 7.79971 26.4929C7.79971 26.6999 7.88193 26.8985 8.0283 27.0448C8.17467 27.1912 8.37318 27.2734 8.58018 27.2734L8.57859 27.2734Z" fill="#004042"/>
<path d="M10.6295 17.991L12.0751 18.8251C12.2545 18.9286 12.4676 18.9567 12.6676 18.9031C12.8676 18.8494 13.0381 18.7185 13.1416 18.5392C13.2451 18.3598 13.2731 18.1467 13.2194 17.9467C13.1658 17.7467 13.035 17.5762 12.8556 17.4727L11.41 16.6386C11.2306 16.5351 11.0175 16.507 10.8175 16.5606C10.6175 16.6143 10.447 16.7452 10.3435 16.9245C10.24 17.1039 10.212 17.3169 10.2657 17.5169C10.3193 17.7169 10.4501 17.8875 10.6295 17.991Z" fill="#004042"/>
<path d="M17.3503 43.0673C17.4391 43.1185 17.5371 43.1518 17.6388 43.1652C17.7404 43.1786 17.8437 43.1718 17.9428 43.1452C18.0418 43.1187 18.1346 43.0729 18.216 43.0104C18.2973 42.948 18.3655 42.8701 18.4167 42.7813L19.2509 41.3357C19.3022 41.2469 19.3354 41.1488 19.3488 41.0472C19.3622 40.9455 19.3554 40.8422 19.3288 40.7432C19.3023 40.6442 19.2565 40.5513 19.194 40.47C19.1316 40.3887 19.0538 40.3204 18.965 40.2692C18.8762 40.2179 18.7781 40.1847 18.6765 40.1713C18.5748 40.158 18.4716 40.1648 18.3725 40.1913C18.2735 40.2179 18.1807 40.2637 18.0993 40.3261C18.018 40.3885 17.9498 40.4664 17.8985 40.5552L17.0643 42.0008C17.0131 42.0896 16.9798 42.1876 16.9664 42.2893C16.953 42.391 16.9598 42.4943 16.9863 42.5933C17.0129 42.6923 17.0587 42.7852 17.1211 42.8665C17.1836 42.9478 17.2615 43.016 17.3503 43.0673Z" fill="#004042"/>
<path d="M10.3474 36.0625C10.3987 36.1514 10.4669 36.2292 10.5482 36.2917C10.6295 36.3541 10.7224 36.3999 10.8214 36.4265C10.9204 36.453 11.0237 36.4598 11.1254 36.4465C11.2271 36.4331 11.3251 36.3998 11.4139 36.3485L12.8595 35.5143C13.0389 35.4108 13.1697 35.2403 13.2234 35.0403C13.277 34.8403 13.249 34.6272 13.1455 34.4478C13.042 34.2685 12.8715 34.1376 12.6715 34.084C12.4715 34.0303 12.2583 34.0584 12.079 34.1619L10.6334 34.9961C10.5446 35.0473 10.4667 35.1155 10.4042 35.1968C10.3418 35.2782 10.296 35.371 10.2694 35.4701C10.2429 35.5691 10.2361 35.6724 10.2495 35.7741C10.2628 35.8757 10.2962 35.9737 10.3474 36.0625Z" fill="#004042"/>
<path d="M17.0643 10.9959L17.8985 12.4415C18.002 12.6209 18.1725 12.7518 18.3725 12.8054C18.5725 12.859 18.7856 12.831 18.965 12.7275C19.1443 12.624 19.2752 12.4535 19.3288 12.2535C19.3825 12.0535 19.3544 11.8404 19.2509 11.661L18.4167 10.2154C18.3132 10.0361 18.1427 9.90517 17.9427 9.85155C17.7427 9.79792 17.5296 9.82596 17.3503 9.92946C17.171 10.033 17.04 10.2034 16.9864 10.4034C16.9328 10.6034 16.9608 10.8166 17.0643 10.9959Z" fill="#004042"/>
<path d="M37.3527 25.7178H28.821C28.6998 25.36 28.4978 25.0349 28.2306 24.7677C27.9635 24.5006 27.6384 24.2986 27.2806 24.1773V13.9836C27.2806 13.7766 27.1984 13.5781 27.052 13.4317C26.9056 13.2854 26.7071 13.2031 26.5001 13.2031C26.2931 13.2031 26.0946 13.2854 25.9482 13.4317C25.8018 13.5781 25.7196 13.7766 25.7196 13.9836V24.171C25.3618 24.2923 25.0367 24.4943 24.7696 24.7614C24.5024 25.0286 24.3004 25.3536 24.1792 25.7115H23.1633C22.9563 25.7115 22.7578 25.7937 22.6114 25.94C22.465 26.0864 22.3828 26.285 22.3828 26.492C22.3828 26.6989 22.465 26.8975 22.6114 27.0438C22.7578 27.1902 22.9563 27.2724 23.1633 27.2724H24.1792C24.3004 27.6302 24.5024 27.9553 24.7696 28.2225C25.0367 28.4896 25.3618 28.6916 25.7196 28.8129V29.8288C25.7196 30.0358 25.8018 30.2343 25.9482 30.3806C26.0946 30.527 26.2931 30.6092 26.5001 30.6092C26.7071 30.6092 26.9056 30.527 27.052 30.3806C27.1984 30.2343 27.2806 30.0358 27.2806 29.8288V28.8129C27.6384 28.6916 27.9635 28.4896 28.2306 28.2225C28.4978 27.9553 28.6998 27.6302 28.821 27.2724H37.3527C37.5597 27.2724 37.7582 27.1902 37.9046 27.0438C38.0509 26.8975 38.1331 26.6989 38.1331 26.492C38.1331 26.285 38.0509 26.0864 37.9046 25.94C37.7582 25.7937 37.5597 25.7115 37.3527 25.7115V25.7178ZM26.5064 27.3862C26.3308 27.3862 26.1591 27.3341 26.0131 27.2365C25.8671 27.139 25.7533 27.0003 25.6861 26.838C25.6189 26.6758 25.6013 26.4973 25.6356 26.325C25.6698 26.1528 25.7544 25.9946 25.8786 25.8704C26.0027 25.7462 26.161 25.6617 26.3332 25.6274C26.5054 25.5931 26.684 25.6107 26.8462 25.6779C27.0085 25.7451 27.1471 25.8589 27.2447 26.0049C27.3423 26.151 27.3944 26.3227 27.3944 26.4983C27.3944 26.7342 27.3006 26.9604 27.1338 27.1272C26.967 27.2941 26.7408 27.3878 26.5048 27.3878L26.5064 27.3862Z" fill="#004042"/>
</svg>
