<svg width="56" height="54" viewBox="0 0 56 54" fill="none" xmlns="http://www.w3.org/2000/svg">
<g clipPath="url(#clip0_4663_41081)">
<path d="M0 38.7047C0.300724 38.2082 0.741706 38.0434 1.30631 38.0483C3.59918 38.0652 5.89086 38.0531 8.18373 38.0568C9.0027 38.0568 9.23091 38.2239 9.54471 39.1093C9.88704 38.9966 10.2757 38.9482 10.5776 38.758C12.4794 37.5541 14.4775 36.6203 16.7193 36.3102C19.282 35.9553 21.8328 36.0086 24.2647 36.9546C26.478 37.8157 28.715 38.1864 31.0791 38.0786C33.3114 37.9768 35.5532 38.104 37.789 38.0422C39.6967 37.9889 41.3121 38.4189 42.2618 40.3278C43.8688 39.3842 45.4343 38.4661 46.9985 37.5468C48.0861 36.9073 49.1642 36.2497 50.2637 35.6319C52.7574 34.2294 55.5768 35.6719 55.9703 38.5388C56.1724 40.008 55.4009 41.5062 53.9829 42.3432C49.5885 44.9364 45.1894 47.5223 40.7915 50.1106C39.8477 50.6653 38.8908 51.1995 37.9625 51.7784C34.7306 53.7926 31.2503 54.3437 27.524 53.8181C24.0115 53.3227 20.4873 52.8673 16.9546 52.5839C14.5845 52.3937 12.1882 52.5306 9.80383 52.5402C9.67665 52.5402 9.48766 52.6941 9.43298 52.8237C9.22854 53.2997 8.88621 53.508 8.39055 53.508C5.95029 53.5068 3.51003 53.5019 1.06977 53.5116C0.559846 53.514 0.253179 53.2367 0.00356589 52.8382V38.7084L0 38.7047ZM24.6487 43.856H25.4046C29.7301 43.856 34.0567 43.856 38.3821 43.8535C38.6579 43.8535 38.9396 43.8487 39.2094 43.7966C40.2566 43.5931 40.9151 42.491 40.6334 41.4408C40.3766 40.4852 39.673 39.9898 38.5247 39.9874C35.2893 39.9826 32.0538 39.9608 28.8196 39.9995C27.7474 40.0116 26.7323 39.8699 25.7351 39.4775C25.0302 39.2001 24.3111 38.9543 23.586 38.7362C19.7681 37.5892 16.0762 37.7867 12.5519 39.8166C11.5927 40.3689 10.744 41.2313 9.50311 40.9503V50.5926C9.78957 50.5926 10.0285 50.5926 10.2674 50.5926C12.5222 50.5999 14.789 50.4618 17.0307 50.6484C20.5823 50.9427 24.1233 51.4005 27.6559 51.8886C30.6917 52.3089 33.6026 52.0836 36.3008 50.5103C41.8933 47.2473 47.4692 43.9517 53.0462 40.662C54.0732 40.0564 54.3799 38.9252 53.8224 37.9562C53.2816 37.0163 52.1726 36.7353 51.1694 37.3203C48.3975 38.9385 45.6316 40.5676 42.8704 42.2051C42.7147 42.2972 42.5566 42.48 42.509 42.652C41.9361 44.7547 40.6262 45.7854 38.476 45.7854C34.0757 45.7878 29.6766 45.7854 25.2762 45.7854H24.6487V43.8535V43.856ZM7.52523 51.5459V40.0262H1.93509V51.5459H7.52523Z" fill="#004042"/>
<path d="M49.8898 10.856C49.2099 16.8744 47.1583 22.7293 43.1752 27.7982C40.6779 30.9776 37.5981 33.4182 34.0215 35.2253C33.4165 35.5305 32.8864 35.5232 32.2802 35.2241C24.44 31.3458 19.6831 24.8865 17.2785 16.5062C16.7495 14.6616 16.4785 12.7358 16.1564 10.8354C15.9627 9.69566 16.4239 8.94108 17.496 8.41906C19.815 7.29143 21.3115 5.48069 21.9201 2.9287C22.0128 2.5387 22.0544 2.13658 22.1079 1.73809C22.2386 0.760659 22.8912 0.122358 23.8611 0.115091C29.9101 0.0678542 35.9578 0.0290959 42.0068 2.71292e-05C43.0337 -0.00481766 43.6982 0.639539 43.8301 1.68601C44.2129 4.72369 45.7486 6.90748 48.4765 8.21073C49.526 8.71216 49.954 9.39407 49.8898 10.8548V10.856ZM23.9312 1.88102C23.8908 2.03968 23.8706 2.09661 23.8623 2.15596C23.3702 5.80772 21.5243 8.45418 18.2555 10.0699C18.0808 10.1559 17.9061 10.5265 17.9405 10.7264C18.2377 12.4281 18.4742 14.1529 18.9331 15.811C20.8681 22.7972 24.5684 28.5334 30.779 32.3051C33.6923 34.0746 32.5286 33.9753 35.4634 32.3378C35.4978 32.3184 35.5311 32.2966 35.5644 32.2748C43.2845 27.1841 46.9598 19.6614 48.114 10.6162C48.177 10.1244 47.9404 9.95606 47.566 9.77196C44.7347 8.38272 42.9529 6.12626 42.2469 3.00016C42.1601 2.615 42.0995 2.22257 42.0353 1.88344H23.9312V1.88102Z" fill="#004042"/>
<path d="M32.9882 5.30934C31.0115 5.30934 29.0337 5.32145 27.057 5.29965C26.673 5.29481 26.5138 5.42441 26.3866 5.78292C25.5094 8.26224 24.0057 10.2692 21.8995 11.7917C21.5417 12.0509 21.4692 12.2883 21.5797 12.694C21.7533 13.3335 21.8828 13.9851 22.0136 14.6356C22.1277 15.206 21.89 15.6396 21.4145 15.7814C20.9628 15.917 20.4589 15.6445 20.3246 15.1055C20.0726 14.0917 19.8467 13.0695 19.6649 12.0412C19.5698 11.5058 19.8146 11.0444 20.2663 10.7488C22.5889 9.22999 24.1531 7.13219 24.9721 4.44334C25.1599 3.82563 25.6401 3.50345 26.282 3.4986C30.7108 3.46469 35.1397 3.4332 39.5685 3.41019C40.3423 3.40655 40.8071 3.736 41.0436 4.47483C41.8744 7.06921 43.4268 9.0798 45.6876 10.5332C46.2688 10.9063 46.497 11.4392 46.3532 12.1356C46.169 13.021 46.0144 13.9137 45.8183 14.7966C45.6733 15.4495 45.2418 15.7692 44.7367 15.6566C44.1899 15.5343 43.9427 15.0619 44.0817 14.3788C44.2101 13.749 44.3397 13.1179 44.4954 12.4942C44.5845 12.1381 44.5191 11.9164 44.197 11.6924C42.0456 10.1929 40.5099 8.18351 39.5923 5.70177C39.4425 5.29723 39.2452 5.21002 38.8613 5.21245C36.9036 5.2294 34.9471 5.22092 32.9894 5.22092C32.9894 5.24999 32.9894 5.27906 32.9894 5.30692L32.9882 5.30934Z" fill="#004042"/>
<path d="M33.1471 31.7671C32.8238 31.6314 32.5219 31.5406 32.2521 31.388C27.3692 28.618 23.9614 24.5096 21.7505 19.322C21.4843 18.6958 21.6222 18.2223 22.1155 17.98C22.6147 17.7342 23.1068 17.9582 23.3813 18.6026C24.7221 21.7469 26.5324 24.5665 29.0737 26.8302C30.1981 27.8319 31.4819 28.647 32.6848 29.5591C33.0057 29.8025 33.2601 29.7553 33.5905 29.5494C37.677 27.0131 40.5808 23.4437 42.5159 19.0168C42.6039 18.8145 42.6812 18.6074 42.7762 18.4088C43.0449 17.848 43.4989 17.6457 43.978 17.8625C44.4593 18.0806 44.6353 18.5626 44.4047 19.1307C43.6059 21.0904 42.6134 22.9423 41.3867 24.6586C39.4148 27.4165 36.9817 29.656 34.0719 31.3492C33.7878 31.5152 33.4705 31.623 33.1471 31.7671Z" fill="#004042"/>
<path d="M32.4595 19.4819C34.1961 16.8112 35.8744 14.229 37.554 11.6479C37.6633 11.4808 37.7644 11.3015 37.9022 11.161C38.2386 10.8194 38.6392 10.7613 39.0291 11.0411C39.4106 11.3148 39.5354 11.7012 39.3286 12.153C39.2537 12.3153 39.1551 12.4679 39.0576 12.6193C37.2259 15.4377 35.3942 18.255 33.5614 21.071C32.9801 21.9637 32.5023 22.0242 31.7523 21.3024C30.6468 20.2377 29.5426 19.1719 28.4431 18.1012C27.9403 17.6106 27.8642 17.0801 28.2208 16.6756C28.6048 16.2396 29.129 16.2771 29.6674 16.7931C30.5862 17.6712 31.5003 18.5566 32.4595 19.4819Z" fill="#004042"/>
</g>
<defs>
<clipPath id="clip0_4663_41081">
<rect width="56" height="54" fill="white"/>
</clipPath>
</defs>
</svg>
