<svg
      width="719"
      height="130"
      viewBox="0 0 719 130"
      fill="none"
      xmlns="http://www.w3.org/2000/svg"
    >
      <rect
        y="88.1816"
        width="22.7532"
        height="40.9557"
        rx="1"
        fill="#FFFFFF"
        fill-opacity="0.3"
      />
      <rect
        x="43.2266"
        y="66.5742"
        width="22.7532"
        height="62.5712"
        rx="1"
        fill="#FFFFFF"
        fill-opacity="0.3"
      />
      <rect
        x="86.4609"
        y="23.3477"
        width="22.7532"
        height="105.802"
        rx="1"
        fill="#FFFFFF"
        fill-opacity="0.3"
      />
      <rect
        x="129.688"
        y="23.3477"
        width="22.7532"
        height="105.802"
        rx="1"
        fill="#FFFFFF"
        fill-opacity="0.3"
      />
      <rect
        x="172.914"
        y="47.2324"
        width="22.7532"
        height="81.9114"
        rx="1"
        fill="#FFFFFF"
        fill-opacity="0.3"
      />
      <rect
        x="216.156"
        y="0.589844"
        width="22.7532"
        height="128.555"
        rx="1"
        fill="#FFFFFF"
        fill-opacity="0.3"
      />
      <rect
        x="259.391"
        y="88.1816"
        width="22.7532"
        height="40.9557"
        rx="1"
        fill="#FFFFFF"
        fill-opacity="0.3"
      />
      <rect
        x="43.2266"
        y="0.589844"
        width="22.7532"
        height="22.7532"
        rx="1"
        fill="#FFFFFF"
        fill-opacity="0.3"
      />
      <rect
        x="566.555"
        y="0.589844"
        width="22.7532"
        height="22.7532"
        rx="1"
        fill="#FFFFFF"
        fill-opacity="0.3"
      />
      <rect
        x="302.609"
        y="66.5742"
        width="22.7532"
        height="62.5712"
        rx="1"
        fill="#FFFFFF"
        fill-opacity="0.3"
      />
      <rect
        x="348.117"
        y="23.3457"
        width="22.7532"
        height="105.802"
        rx="1"
        fill="#FFFFFF"
        fill-opacity="0.3"
      />
      <rect
        x="393.625"
        y="23.3477"
        width="22.7532"
        height="105.802"
        rx="1"
        fill="#FFFFFF"
        fill-opacity="0.3"
      />
      <rect
        x="480.086"
        y="0.589844"
        width="22.7532"
        height="128.555"
        rx="1"
        fill="#FFFFFF"
        fill-opacity="0.3"
      />
      <rect
        x="523.305"
        y="88.1816"
        width="22.7532"
        height="40.9557"
        rx="1"
        fill="#FFFFFF"
        fill-opacity="0.3"
      />
      <rect
        x="566.555"
        y="66.5742"
        width="22.7532"
        height="62.5712"
        rx="1"
        fill="#FFFFFF"
        fill-opacity="0.3"
      />
      <rect
        x="609.797"
        y="23.3477"
        width="22.7532"
        height="105.802"
        rx="1"
        fill="#FFFFFF"
        fill-opacity="0.3"
      />
      <rect
        x="653.008"
        y="23.3477"
        width="22.7532"
        height="105.802"
        rx="1"
        fill="#FFFFFF"
        fill-opacity="0.3"
      />
      <rect
        x="696.25"
        y="108.67"
        width="22.7532"
        height="20.4779"
        rx="1"
        fill="#FFFFFF"
        fill-opacity="0.3"
      />
    </svg>