<svg width="16" height="17" viewBox="0 0 16 17" fill="none" xmlns="http://www.w3.org/2000/svg">
<path d="M7.32812 5.17415H8.66146V6.50749H7.32812V5.17415ZM7.32812 7.84082H8.66146V11.8408H7.32812V7.84082ZM7.99479 1.84082C4.31479 1.84082 1.32812 4.82749 1.32812 8.50749C1.32812 12.1875 4.31479 15.1742 7.99479 15.1742C11.6748 15.1742 14.6615 12.1875 14.6615 8.50749C14.6615 4.82749 11.6748 1.84082 7.99479 1.84082ZM7.99479 13.8408C5.05479 13.8408 2.66146 11.4475 2.66146 8.50749C2.66146 5.56749 5.05479 3.17415 7.99479 3.17415C10.9348 3.17415 13.3281 5.56749 13.3281 8.50749C13.3281 11.4475 10.9348 13.8408 7.99479 13.8408Z" fill="#F37021"/>
</svg>
