<svg xmlns="http://www.w3.org/2000/svg" width="24" height="24" viewBox="0 0 24 24" fill="none">
<g clip-path="url(#clip0_4846_39482)">
<path d="M2.34681 3.13656C4.54098 5.33073 6.66615 7.4559 8.76372 9.53967C9.10871 9.20847 9.45371 8.87728 9.8125 8.54608C7.70113 6.43471 5.58976 4.30955 3.40939 2.12918C3.58879 2.12918 3.69919 2.10158 3.80959 2.10158C4.58238 2.10158 5.35517 2.10158 6.12795 2.10158C6.55575 2.10158 6.55575 2.10158 6.55575 1.65998C6.55575 1.39779 6.55575 1.13559 6.55575 0.859596C6.56955 0.680199 6.48675 0.625 6.30735 0.625C4.73418 0.625 3.1472 0.625 1.57402 0.625C1.17383 0.625 0.870234 0.942395 0.870234 1.37019C0.870234 2.92957 0.870234 4.48894 0.870234 6.04832C0.870234 6.22772 0.953032 6.29672 1.11863 6.29672C1.40843 6.29672 1.71202 6.29672 2.00182 6.29672C2.26401 6.29672 2.36061 6.21392 2.34681 5.95172C2.34681 5.15133 2.34681 4.36474 2.34681 3.56436C2.34681 3.45396 2.34681 3.32976 2.34681 3.12276V3.13656Z" fill="white"/>
<path d="M3.34821 21.6709C5.54238 19.4767 7.69514 17.3516 9.82031 15.2402C9.44772 14.8676 9.13032 14.5364 8.78533 14.1914C6.67396 16.3166 4.56259 18.4417 2.36842 20.6359C2.36842 20.4289 2.34082 20.3323 2.34082 20.2357C2.34082 19.4215 2.34082 18.6073 2.34082 17.7932C2.34082 17.531 2.25803 17.4344 1.99583 17.4482C1.70603 17.462 1.43004 17.4482 1.14024 17.4482C0.947043 17.4482 0.864246 17.5034 0.864246 17.7242C0.864246 19.2559 0.864246 20.8015 0.864246 22.3333C0.864246 22.8301 1.16784 23.1199 1.66463 23.1199C3.19641 23.1199 4.71439 23.1199 6.24617 23.1199C6.48076 23.1199 6.57736 23.0647 6.56356 22.8163C6.54976 22.5265 6.54976 22.2505 6.56356 21.9607C6.56356 21.7399 6.49456 21.6709 6.27376 21.6709C5.39058 21.6709 4.52119 21.6709 3.638 21.6709C3.58281 21.6709 3.51381 21.6709 3.36201 21.6709H3.34821Z" fill="white"/>
<path d="M20.7981 2.18438C18.673 4.30955 16.5478 6.43471 14.4364 8.55988C14.7814 8.89108 15.1126 9.22227 15.4714 9.56727C17.5828 7.4559 19.7217 5.31693 21.9159 3.12276V6.31052C22.3713 6.31052 22.7853 6.31052 23.1993 6.31052C23.2545 6.31052 23.3511 6.17252 23.3511 6.10352C23.3511 4.51654 23.3511 2.92957 23.3511 1.34259C23.3649 0.942395 23.0751 0.625 22.7301 0.625C21.0741 0.625 19.4181 0.625 17.7208 0.625C17.7208 1.06659 17.7208 1.50819 17.7346 1.93598C17.7346 1.99118 17.9278 2.08778 18.0382 2.08778C18.8386 2.08778 19.6251 2.08778 20.4255 2.08778C20.5359 2.08778 20.6601 2.08778 20.7705 2.08778C20.7705 2.11538 20.7843 2.14298 20.7981 2.15678V2.18438Z" fill="white"/>
<path d="M15.4935 14.1641C15.1071 14.5367 14.7759 14.8679 14.4447 15.199C16.5561 17.3242 18.6812 19.4494 20.8616 21.6298C20.6822 21.6298 20.5718 21.6435 20.4614 21.6435C19.661 21.6435 18.8468 21.6435 18.0465 21.6435C17.8119 21.6435 17.7015 21.6987 17.7153 21.9609C17.7429 22.3335 17.7153 22.6923 17.7153 23.1201H18.0741C19.5368 23.1201 20.9996 23.1201 22.4624 23.1201C23.1248 23.1201 23.3594 22.8717 23.3594 22.2231C23.3594 20.7466 23.3594 19.2838 23.3594 17.8072C23.3594 17.5174 23.2766 17.4346 23.0006 17.4484C22.6556 17.4622 22.3106 17.4484 21.9104 17.4484V20.6086C19.73 18.4282 17.6049 16.2892 15.4797 14.1641H15.4935Z" fill="white"/>
</g>
<defs>
<clipPath id="clip0_4846_39482">
<rect width="22.5075" height="22.5075" fill="white" transform="matrix(-1 0 0 1 23.375 0.625)"/>
</clipPath>
</defs>
</svg>