<svg width="52" height="49" viewBox="0 0 52 49" fill="none" xmlns="http://www.w3.org/2000/svg">
<path d="M0 34.8162C0.275651 34.3695 0.679892 34.2214 1.19742 34.2257C3.29912 34.241 5.39972 34.2301 7.50143 34.2333C8.25211 34.2333 8.4613 34.3837 8.74893 35.1801C9.06272 35.0788 9.41901 35.0352 9.69575 34.8642C11.439 33.7812 13.2705 32.9412 15.3253 32.6622C17.6744 32.343 20.0125 32.3909 22.2417 33.2419C24.2704 34.0165 26.3209 34.3499 28.488 34.2529C30.5341 34.1614 32.589 34.2758 34.6384 34.2203C36.3871 34.1723 37.8677 34.5591 38.7383 36.2762C40.2113 35.4275 41.6462 34.6016 43.08 33.7746C44.077 33.1994 45.0652 32.6078 46.073 32.0521C48.3588 30.7904 50.9432 32.0881 51.3038 34.667C51.489 35.9886 50.7819 37.3363 49.4821 38.0892C45.4541 40.4219 41.4218 42.748 37.3905 45.0763C36.5254 45.5753 35.6484 46.0558 34.7974 46.5766C31.835 48.3885 28.6448 48.8842 25.2292 48.4114C22.0096 47.9658 18.7792 47.5561 15.5411 47.3012C13.3686 47.1301 11.1721 47.2532 8.98647 47.2619C8.86989 47.2619 8.69664 47.4003 8.64652 47.5169C8.45912 47.9451 8.14534 48.1325 7.691 48.1325C5.4542 48.1314 3.21738 48.127 0.980577 48.1357C0.513169 48.1379 0.232073 47.8884 0.00327178 47.53V34.8195L0 34.8162ZM22.5936 39.45H23.2866C27.2514 39.45 31.2172 39.45 35.182 39.4478C35.4348 39.4478 35.693 39.4435 35.9403 39.3966C36.9002 39.2136 37.5038 38.2221 37.2456 37.2775C37.0103 36.4178 36.3653 35.9722 35.3128 35.97C32.3471 35.9657 29.3814 35.9461 26.4168 35.9809C25.434 35.9918 24.5035 35.8644 23.5894 35.5114C22.9433 35.2619 22.2842 35.0407 21.6196 34.8446C18.12 33.8128 14.7359 33.9904 11.5054 35.8164C10.6262 36.3133 9.84828 37.089 8.71082 36.8362V45.51C8.97339 45.51 9.19238 45.51 9.41138 45.51C11.4782 45.5165 13.5559 45.3923 15.6108 45.5601C18.8663 45.8248 22.112 46.2367 25.3501 46.6758C28.1328 47.0538 30.801 46.8512 33.2743 45.4359C38.4005 42.5007 43.5115 39.5361 48.6236 36.5769C49.5649 36.0321 49.846 35.0145 49.335 34.1429C48.8393 33.2974 47.8228 33.0447 46.9032 33.5709C44.3624 35.0265 41.8271 36.4919 39.2961 37.965C39.1534 38.0478 39.0085 38.2123 38.9649 38.367C38.4397 40.2584 37.2391 41.1856 35.2681 41.1856C31.2347 41.1878 27.2023 41.1856 23.1689 41.1856H22.5936V39.4478V39.45ZM6.89782 46.3674V36.0049H1.77376V46.3674H6.89782Z" fill="white"/>
<path d="M45.726 9.76548C45.1028 15.1794 43.2223 20.4461 39.5713 25.0058C37.2822 27.8658 34.4592 30.0612 31.1808 31.6868C30.6262 31.9614 30.1403 31.9549 29.5846 31.6857C22.3981 28.1971 18.0378 22.3866 15.8337 14.8481C15.3488 13.1888 15.1004 11.4564 14.8052 9.74696C14.6276 8.72171 15.0503 8.04294 16.0331 7.57335C18.1587 6.559 19.5305 4.93015 20.0883 2.63451C20.1733 2.28368 20.2114 1.92196 20.2604 1.5635C20.3803 0.684249 20.9784 0.110067 21.8675 0.10353C27.411 0.0610381 32.9546 0.0261731 38.4981 2.4404e-05C39.4394 -0.00433372 40.0485 0.575296 40.1694 1.51665C40.5203 4.24919 41.9279 6.21361 44.4284 7.38595C45.3904 7.83702 45.7827 8.45042 45.7239 9.76439L45.726 9.76548ZM21.9318 1.69315C21.8947 1.83588 21.8762 1.88709 21.8686 1.94048C21.4175 5.22541 19.7255 7.60603 16.7293 9.05947C16.5691 9.13682 16.4089 9.47022 16.4405 9.64999C16.7129 11.1808 16.9297 12.7323 17.3503 14.2238C19.124 20.5083 22.5158 25.6683 28.2086 29.0611C30.879 30.6529 29.8123 30.5635 32.5024 29.0905C32.534 29.073 32.5645 29.0534 32.595 29.0338C39.6715 24.4545 43.0403 17.6875 44.0983 9.55085C44.156 9.1085 43.9392 8.95705 43.596 8.79144C41.0007 7.54175 39.3675 5.51196 38.7203 2.69988C38.6408 2.35341 38.5852 2.0004 38.5264 1.69533H21.9318V1.69315Z" fill="white"/>
<path d="M30.239 4.77872C28.4271 4.77872 26.6141 4.78962 24.8022 4.77001C24.4503 4.76565 24.3043 4.88223 24.1877 5.20473C23.3837 7.435 22.0054 9.24035 20.0748 10.6099C19.7468 10.843 19.6803 11.0566 19.7817 11.4216C19.9407 11.9969 20.0595 12.583 20.1794 13.1681C20.284 13.6813 20.066 14.0713 19.6302 14.1988C19.2162 14.3208 18.7543 14.0757 18.6311 13.5908C18.4002 12.6789 18.1931 11.7593 18.0264 10.8343C17.9393 10.3528 18.1637 9.93765 18.5778 9.6718C20.7067 8.30553 22.1405 6.41847 22.8912 3.99971C23.0633 3.44405 23.5035 3.15423 24.0919 3.14987C28.1514 3.11937 32.211 3.09104 36.2706 3.07034C36.9799 3.06707 37.4059 3.36342 37.6227 4.02804C38.3843 6.36181 39.8072 8.17043 41.8795 9.47787C42.4123 9.81344 42.6215 10.2928 42.4897 10.9193C42.3208 11.7158 42.1792 12.5187 41.9994 13.313C41.8665 13.9003 41.471 14.1879 41.0079 14.0866C40.5067 13.9765 40.2801 13.5516 40.4076 12.9371C40.5252 12.3706 40.644 11.8029 40.7867 11.2418C40.8684 10.9215 40.8085 10.7221 40.5132 10.5205C38.5412 9.17171 37.1335 7.36418 36.2924 5.13173C36.1551 4.76783 35.9743 4.68938 35.6224 4.69156C33.8279 4.70681 32.0345 4.69919 30.2401 4.69919C30.2401 4.72534 30.2401 4.75148 30.2401 4.77654L30.239 4.77872Z" fill="white"/>
<path d="M30.3812 28.5766C30.0848 28.4546 29.8081 28.3729 29.5607 28.2356C25.085 25.7439 21.9613 22.0482 19.9347 17.3817C19.6907 16.8184 19.8171 16.3924 20.2692 16.1745C20.7268 15.9533 21.1779 16.1549 21.4296 16.7345C22.6586 19.563 24.3179 22.0994 26.6473 24.1357C27.678 25.0368 28.8547 25.77 29.9574 26.5904C30.2515 26.8094 30.4847 26.7669 30.7876 26.5817C34.5334 24.3002 37.1951 21.0894 38.9689 17.1072C39.0495 16.9252 39.1203 16.7389 39.2075 16.5602C39.4537 16.0558 39.8699 15.8738 40.309 16.0688C40.7502 16.2649 40.9115 16.6986 40.7001 17.2096C39.9679 18.9724 39.0582 20.6383 37.9338 22.1822C36.1263 24.663 33.896 26.6776 31.2288 28.2007C30.9684 28.35 30.6775 28.447 30.3812 28.5766Z" fill="white"/>
<path d="M29.7517 17.5263C31.3436 15.1239 32.882 12.801 34.4215 10.4792C34.5217 10.3289 34.6143 10.1676 34.7407 10.0413C35.049 9.734 35.4162 9.68171 35.7736 9.93339C36.1233 10.1796 36.2377 10.5272 36.0481 10.9336C35.9795 11.0796 35.8891 11.2169 35.7997 11.353C34.1208 13.8884 32.4418 16.4226 30.7617 18.9558C30.229 19.7588 29.791 19.8132 29.1035 19.1639C28.0902 18.2062 27.078 17.2474 26.0702 16.2843C25.6093 15.843 25.5396 15.3658 25.8665 15.0019C26.2184 14.6097 26.6989 14.6434 27.1924 15.1076C28.0346 15.8975 28.8725 16.6939 29.7517 17.5263Z" fill="white"/>
</svg>
