<svg width="20" height="21" viewBox="0 0 20 21" fill="none" xmlns="http://www.w3.org/2000/svg">
<g clipPath="url(#clip0_4509_6044)">
<path d="M19.9804 6.75505C19.9336 5.69238 19.7617 4.9618 19.5156 4.32874C19.2616 3.65676 18.8709 3.05514 18.359 2.55502C17.8589 2.0471 17.2533 1.65243 16.5891 1.40245C15.9524 1.15627 15.2256 0.984427 14.163 0.937573C13.0923 0.886752 12.7525 0.875 10.0371 0.875C7.32171 0.875 6.98183 0.886752 5.91519 0.933605C4.85251 0.980459 4.12193 1.15246 3.48902 1.39848C2.8169 1.65243 2.21528 2.04314 1.71515 2.55502C1.20724 3.05514 0.812721 3.66073 0.56258 4.32492C0.316408 4.9618 0.14456 5.68841 0.0977066 6.75109C0.0468849 7.8217 0.0351334 8.16158 0.0351334 10.877C0.0351334 13.5923 0.0468849 13.9322 0.0937386 14.9989C0.140592 16.0615 0.312592 16.7921 0.558765 17.4252C0.812721 18.0971 1.20724 18.6988 1.71515 19.1989C2.21528 19.7068 2.82086 20.1015 3.48506 20.3515C4.12193 20.5976 4.84854 20.7695 5.91137 20.8163C6.97787 20.8633 7.3179 20.8749 10.0333 20.8749C12.7486 20.8749 13.0885 20.8633 14.1552 20.8163C15.2178 20.7695 15.9484 20.5976 16.5813 20.3515C17.9254 19.8318 18.9881 18.7691 19.5078 17.4252C19.7538 16.7883 19.9258 16.0615 19.9727 14.9989C20.0195 13.9322 20.0313 13.5923 20.0313 10.877C20.0313 8.16158 20.0273 7.8217 19.9804 6.75505ZM18.1794 14.9207C18.1364 15.8975 17.9723 16.4249 17.8355 16.7765C17.4995 17.6478 16.808 18.3393 15.9367 18.6754C15.585 18.8122 15.0538 18.9762 14.0808 19.0191C13.026 19.0661 12.7096 19.0777 10.0411 19.0777C7.37253 19.0777 7.05219 19.0661 6.00111 19.0191C5.02436 18.9762 4.49691 18.8122 4.14528 18.6754C3.71169 18.5152 3.31702 18.2612 2.99668 17.9291C2.66458 17.6048 2.41063 17.2141 2.25038 16.7805C2.11363 16.4289 1.94957 15.8975 1.90668 14.9247C1.85968 13.8698 1.84808 13.5533 1.84808 10.8847C1.84808 8.21622 1.85968 7.89587 1.90668 6.84495C1.94957 5.86819 2.11363 5.34075 2.25038 4.98912C2.41063 4.55538 2.66458 4.16086 3.00065 3.84036C3.32481 3.50827 3.71551 3.25431 4.14925 3.09421C4.50088 2.95747 5.03229 2.7934 6.00508 2.75037C7.05997 2.70351 7.3765 2.69176 10.0449 2.69176C12.7174 2.69176 13.0337 2.70351 14.0848 2.75037C15.0616 2.7934 15.589 2.95747 15.9406 3.09421C16.3742 3.25431 16.7689 3.50827 17.0892 3.84036C17.4213 4.16467 17.6753 4.55538 17.8355 4.98912C17.9723 5.34075 18.1364 5.87201 18.1794 6.84495C18.2262 7.89984 18.238 8.21622 18.238 10.8847C18.238 13.5533 18.2262 13.8658 18.1794 14.9207Z" fill="white"/>
<path d="M10.0362 5.73828C7.19976 5.73828 4.89844 8.03945 4.89844 10.876C4.89844 13.7126 7.19976 16.0137 10.0362 16.0137C12.8727 16.0137 15.1739 13.7126 15.1739 10.876C15.1739 8.03945 12.8727 5.73828 10.0362 5.73828ZM10.0362 14.2087C8.19605 14.2087 6.70345 12.7163 6.70345 10.876C6.70345 9.03574 8.19605 7.54329 10.0362 7.54329C11.8764 7.54329 13.3689 9.03574 13.3689 10.876C13.3689 12.7163 11.8764 14.2087 10.0362 14.2087Z" fill="white"/>
<path d="M16.5767 5.53536C16.5767 6.19772 16.0397 6.73478 15.3772 6.73478C14.7148 6.73478 14.1777 6.19772 14.1777 5.53536C14.1777 4.87285 14.7148 4.33594 15.3772 4.33594C16.0397 4.33594 16.5767 4.87285 16.5767 5.53536Z" fill="white"/>
</g>
<defs>
<clipPath id="clip0_4509_6044">
<rect width="20" height="20" fill="white" transform="translate(0 0.875)"/>
</clipPath>
</defs>
</svg>
