<svg width="30" height="27" viewBox="0 0 30 27" fill="none" xmlns="http://www.w3.org/2000/svg">
<path d="M0 26.25H5.45455V10.5H0V26.25ZM30 11.8125C30 10.3687 28.7727 9.1875 27.2727 9.1875H18.6682L19.9636 3.18938L20.0045 2.76937C20.0045 2.23125 19.7727 1.7325 19.4045 1.37812L17.9591 0L8.98636 8.64937C8.48182 9.12187 8.18182 9.77812 8.18182 10.5V23.625C8.18182 25.0688 9.40909 26.25 10.9091 26.25H23.1818C24.3136 26.25 25.2818 25.5938 25.6909 24.6488L29.8091 15.3956C29.9318 15.0937 30 14.7788 30 14.4375V11.8125Z" fill="#404040"/>
</svg>
