<svg width="20" height="21" viewBox="0 0 20 21" fill="none" xmlns="http://www.w3.org/2000/svg">
<g clip-path="url(#clip0_4509_6038)">
<path d="M19.9951 20.8758L20.0001 20.875V13.54C20.0001 9.95167 19.2276 7.1875 15.0326 7.1875C13.0159 7.1875 11.6626 8.29417 11.1101 9.34333H11.0517V7.5225H7.07422V20.875H11.2159V14.2633C11.2159 12.5225 11.5459 10.8392 13.7017 10.8392C15.8259 10.8392 15.8576 12.8258 15.8576 14.375V20.8758H19.9951Z" fill="white"/>
<path d="M0.330078 7.52344H4.47675V20.8759H0.330078V7.52344Z" fill="white"/>
<path d="M2.40167 0.875C1.07583 0.875 0 1.95083 0 3.27667C0 4.6025 1.07583 5.70083 2.40167 5.70083C3.7275 5.70083 4.80333 4.6025 4.80333 3.27667C4.8025 1.95083 3.72667 0.875 2.40167 0.875Z" fill="white"/>
</g>
<defs>
<clipPath id="clip0_4509_6038">
<rect width="20" height="20" fill="white" transform="translate(0 0.875)"/>
</clipPath>
</defs>
</svg>
