<svg width="20" height="28" viewBox="0 0 20 28" fill="none" xmlns="http://www.w3.org/2000/svg">
<path d="M9.63322 27.0285C9.4337 26.8361 9.19678 26.6691 9.04022 26.447C7.47389 24.2224 5.89579 22.006 4.37172 19.7524C3.11159 17.8892 2.01149 15.9315 1.255 13.802C0.785309 12.481 0.487426 11.1269 0.508901 9.71484C0.569864 5.69252 3.32289 2.09306 7.19817 0.972108C12.2934 -0.501339 17.5327 2.46004 18.8795 7.57365C19.3935 9.52652 19.1961 11.4435 18.5837 13.3378C17.9151 15.4072 16.9093 17.3173 15.7122 19.1198C14.3218 21.2134 12.8587 23.2587 11.4275 25.3254C11.1677 25.7006 10.9231 26.0876 10.6426 26.4463C10.4735 26.6629 10.2484 26.8354 10.0489 27.0278H9.63391L9.63322 27.0285ZM9.82927 24.8687C9.87776 24.8135 9.9027 24.7908 9.92141 24.7639C11.345 22.7227 12.7964 20.7002 14.1819 18.6335C15.3727 16.8579 16.4015 14.9878 17.0762 12.9466C17.5833 11.4111 17.8071 9.84797 17.4413 8.2476C16.3239 3.36232 11.1573 0.805172 6.57054 2.86082C3.47529 4.24804 1.62078 7.69161 2.14658 11.0365C2.37173 12.4707 2.86289 13.8117 3.48568 15.1113C4.3738 16.9634 5.47806 18.6887 6.65159 20.3704C7.69557 21.8673 8.75688 23.3525 9.82927 24.8687Z" fill="white"/>
<path d="M9.84661 5.23828C12.4167 5.24173 14.5082 7.33119 14.5047 9.89316C14.5013 12.4524 12.4022 14.5349 9.82999 14.5322C7.26054 14.5287 5.16842 12.4379 5.17188 9.87661C5.17534 7.31808 7.2744 5.23552 9.8473 5.23828H9.84661ZM9.84592 6.78692C8.13273 6.78416 6.72782 8.17897 6.72712 9.88351C6.72712 11.5777 8.12095 12.976 9.81752 12.9828C11.5335 12.9904 12.9439 11.6011 12.9495 9.89868C12.9543 8.1907 11.557 6.78968 9.84592 6.78692Z" fill="white"/>
</svg>
