<svg width="39" height="29" viewBox="0 0 39 29" fill="none" xmlns="http://www.w3.org/2000/svg">
    <path
        d="M35.0057 0.09375H3.68696C2.85648 0.0945428 2.06023 0.424803 1.47299 1.01205C0.885742 1.59929 0.55548 2.39554 0.554688 3.22603L0.554688 25.148C0.55548 25.9785 0.885742 26.7747 1.47299 27.362C2.06023 27.9492 2.85648 28.2795 3.68696 28.2803H35.0057C35.8362 28.2795 36.6325 27.9492 37.2197 27.362C37.807 26.7747 38.1372 25.9785 38.138 25.148V3.22603C38.1372 2.39554 37.807 1.59929 37.2197 1.01205C36.6325 0.424803 35.8362 0.0945428 35.0057 0.09375ZM3.68696 1.65989H35.0057C35.0875 1.66944 35.1683 1.68579 35.2473 1.7088L20.1748 13.9434C19.9318 14.0848 19.6571 14.1627 19.376 14.1699C19.095 14.177 18.8167 14.1132 18.5668 13.9844L3.44441 1.7088C3.52374 1.68569 3.60488 1.66933 3.68696 1.65989ZM36.5719 25.148C36.5714 25.5632 36.4062 25.9612 36.1126 26.2548C35.819 26.5484 35.4209 26.7136 35.0057 26.7141H3.68696C3.27176 26.7136 2.87371 26.5484 2.58012 26.2548C2.28653 25.9612 2.12135 25.5632 2.12083 25.148V3.22603C2.12656 3.05694 2.16029 2.88998 2.22064 2.73193L17.6514 15.2501C18.146 15.5722 18.7221 15.7466 19.3123 15.7528C19.9025 15.759 20.4822 15.5967 20.9834 15.285C21.0292 15.2614 21.0724 15.233 21.1121 15.2002L36.4721 2.73193C36.533 2.89154 36.5667 3.06024 36.5719 3.23102V25.148Z"
        fill="#ffffff" />
</svg>