<svg width="118" height="56" viewBox="0 0 118 56" fill="none" xmlns="http://www.w3.org/2000/svg">
<path d="M38.1499 51.6804C37.7449 51.6804 37.4209 51.3564 37.4209 50.9514V31.646C37.4209 30.809 37.3669 30.1069 37.2589 29.5669C37.1778 29.1079 37.0158 28.7029 36.7728 28.4329C36.5568 28.1629 36.2328 27.9739 35.8278 27.8389C35.3688 27.7039 34.7208 27.6229 33.9108 27.6229C33.2358 27.6229 32.5877 27.6499 31.9937 27.7309C31.3727 27.8119 30.7787 27.9199 30.2117 28.0279C29.6447 28.1629 29.1587 28.2979 28.6997 28.4329C28.4566 28.5139 28.2676 28.5679 28.0516 28.6489C28.0786 28.9729 28.1056 29.2969 28.1056 29.6479C28.1326 30.1879 28.1326 30.62 28.1326 30.971V50.9514C28.1326 51.3564 27.8086 51.6804 27.4036 51.6804H20.9505C20.5455 51.6804 20.2215 51.3564 20.2215 50.9514V31.646C20.2215 30.809 20.1675 30.1339 20.0595 29.5669C19.9515 29.0809 19.7895 28.7029 19.5734 28.4329C19.3574 28.1629 19.0604 27.9739 18.6554 27.8389C18.1964 27.7039 17.6024 27.6229 16.8734 27.6229C16.0094 27.6229 15.1723 27.6769 14.4433 27.8119C13.6603 27.9469 12.9583 28.0819 12.3643 28.2169C11.8513 28.3519 11.3653 28.4869 10.9062 28.6219V50.8974C10.9062 51.3024 10.5822 51.6264 10.1772 51.6264H3.64308C3.23807 51.6264 2.91406 51.3024 2.91406 50.8974V21.9528C2.91406 21.5477 3.23807 21.2237 3.64308 21.2237H8.42219C8.7192 21.2237 8.9892 21.4127 9.09721 21.6827L9.61022 23.0598C10.4472 22.6548 11.3383 22.2498 12.2293 21.9258C13.2553 21.5477 14.4163 21.1967 15.6854 20.8727C16.9814 20.5487 18.3584 20.3867 19.7354 20.3867C21.4365 20.3867 22.8945 20.6567 24.0555 21.2237C25.0276 21.7097 25.8376 22.3578 26.4586 23.2218C26.8096 23.0328 27.2416 22.8438 27.7006 22.6008C28.4566 22.2498 29.3207 21.8988 30.2387 21.5747C31.1837 21.2507 32.2367 20.9537 33.3438 20.7377C34.4778 20.4947 35.6928 20.3867 36.9618 20.3867C39.8509 20.3867 42.011 21.2507 43.388 22.9248C44.738 24.5718 45.413 27.0559 45.413 30.3769V50.9514C45.413 51.3564 45.089 51.6804 44.684 51.6804H38.1499Z" fill="white"/>
<path d="M51.4062 50.951V29.3775C51.4062 28.9724 51.7303 28.6484 52.1353 28.6484H58.6694C59.0744 28.6484 59.3984 28.9724 59.3984 29.3775V50.951C59.3984 51.356 59.0744 51.68 58.6694 51.68H52.1083C51.7303 51.68 51.4062 51.356 51.4062 50.951Z" fill="white"/>
<path d="M65.3672 50.9513V13.4204C65.3672 13.0154 65.6912 12.6914 66.0962 12.6914H72.6304C73.0354 12.6914 73.3594 13.0154 73.3594 13.4204V50.9513C73.3594 51.3563 73.0354 51.6803 72.6304 51.6803H66.0962C65.6642 51.6803 65.3672 51.3563 65.3672 50.9513Z" fill="white"/>
<path d="M79.3281 50.9513V13.4204C79.3281 13.0154 79.6521 12.6914 80.0571 12.6914H86.5913C86.9963 12.6914 87.3203 13.0154 87.3203 13.4204V50.9513C87.3203 51.3563 86.9963 51.6803 86.5913 51.6803H80.0571C79.6251 51.6803 79.3281 51.3563 79.3281 50.9513Z" fill="white"/>
<path d="M103.713 52.5439C102.255 52.5439 100.851 52.4359 99.555 52.2469C98.2859 52.0579 97.1249 51.8419 96.1529 51.5989C95.0189 51.3288 93.9388 51.0048 92.9668 50.6538C92.6968 50.5458 92.5078 50.2758 92.5078 49.9788V45.4157C92.5078 44.9567 92.9398 44.6057 93.3718 44.7137C94.1548 44.9027 95.0459 45.0647 96.0179 45.1997C96.8549 45.3347 97.8269 45.4427 98.961 45.5237C100.068 45.6047 101.337 45.6587 102.687 45.6587C104.145 45.6587 105.333 45.6047 106.17 45.4967C107.142 45.3887 107.628 45.1727 107.898 45.0377C108.195 44.8757 108.357 44.6597 108.438 44.3627C108.546 43.9577 108.6 43.4447 108.6 42.8237C108.6 42.4996 108.573 42.2026 108.546 41.9326C108.519 41.7436 108.438 41.5816 108.33 41.4196C108.222 41.2576 108.06 41.1226 107.817 41.0146C107.547 40.8796 107.169 40.7716 106.656 40.6906L100.554 39.5566C99.123 39.3136 97.8809 38.9626 96.8819 38.5576C95.8289 38.1255 94.9649 37.5045 94.3168 36.7485C93.6688 35.9925 93.2098 35.0745 92.9398 33.9945C92.6698 32.9684 92.5348 31.6994 92.5348 30.2414C92.5348 26.9743 93.6418 24.4902 95.8559 22.8702C97.9889 21.2772 101.067 20.4941 104.955 20.4941C106.305 20.4941 107.547 20.5751 108.708 20.7371C109.842 20.8991 110.841 21.0882 111.678 21.2772C112.65 21.4932 113.541 21.7632 114.351 22.0332C114.648 22.1412 114.837 22.4112 114.837 22.7082V27.4063C114.837 27.8383 114.432 28.1893 114 28.1083C113.136 27.9733 112.218 27.8383 111.273 27.7303C110.463 27.6493 109.545 27.5413 108.519 27.4603C107.52 27.3793 106.521 27.3253 105.495 27.3253C104.334 27.3253 103.362 27.3793 102.606 27.4603C101.904 27.5413 101.364 27.7033 100.986 27.8923C100.662 28.0543 100.446 28.2433 100.338 28.4863C100.203 28.7563 100.122 29.1343 100.122 29.5933C100.122 29.9714 100.149 30.3224 100.23 30.6194C100.284 30.8354 100.365 31.0514 100.527 31.2404C100.689 31.4294 100.959 31.6184 101.283 31.7804C101.634 31.9424 102.147 32.1044 102.795 32.2124L109.086 33.4004C110.355 33.6434 111.462 33.9674 112.38 34.3725C113.325 34.8045 114.108 35.3985 114.729 36.1275C115.323 36.8565 115.755 37.8015 116.025 38.9356C116.268 40.0156 116.403 41.3116 116.403 42.8507C116.403 44.3087 116.241 45.6587 115.944 46.8197C115.62 48.0618 114.972 49.1418 114 50.0058C113.055 50.8428 111.732 51.4909 110.058 51.9229C108.492 52.3279 106.332 52.5439 103.713 52.5439Z" fill="white"/>
<path d="M58.5884 12.7181H52.1893C51.7573 12.7181 51.4062 12.3671 51.4062 11.9351V5.53595C51.4062 5.10394 51.7573 4.75293 52.1893 4.75293H58.5884C59.0204 4.75293 59.3714 5.10394 59.3714 5.53595V11.9351C59.3714 12.3671 59.0204 12.7181 58.5884 12.7181Z" fill="white"/>
</svg>
