<svg width="129" height="55" viewBox="0 0 129 55" fill="none" xmlns="http://www.w3.org/2000/svg">
<path d="M39.8547 54.2032C39.3966 54.2032 39.0301 53.8318 39.0301 53.3676V31.2395C39.0301 30.2801 38.969 29.4754 38.8468 28.8564C38.7552 28.3303 38.572 27.8661 38.2971 27.5566C38.0528 27.2471 37.6863 27.0305 37.2282 26.8757C36.709 26.721 35.9761 26.6282 35.0599 26.6282C34.2964 26.6282 33.5634 26.6591 32.8916 26.752C32.1891 26.8448 31.5173 26.9686 30.8759 27.0924C30.2346 27.2471 29.6849 27.4019 29.1657 27.5566C28.8908 27.6495 28.677 27.7114 28.4327 27.8042C28.4633 28.1756 28.4938 28.547 28.4938 28.9493C28.5243 29.5683 28.5243 30.0634 28.5243 30.4658V53.3676C28.5243 53.8318 28.1579 54.2032 27.6998 54.2032H20.4007C19.9426 54.2032 19.5761 53.8318 19.5761 53.3676V31.2395C19.5761 30.2801 19.515 29.5064 19.3929 28.8564C19.2707 28.2994 19.0875 27.8661 18.8432 27.5566C18.5988 27.2471 18.2629 27.0305 17.8048 26.8757C17.2856 26.721 16.6137 26.6282 15.7892 26.6282C14.8119 26.6282 13.8651 26.6901 13.0406 26.8448C12.1549 26.9995 11.3609 27.1543 10.689 27.309C10.1087 27.4638 9.55901 27.6185 9.03983 27.7733V53.3057C9.03983 53.7699 8.67335 54.1413 8.21525 54.1413H0.824579C0.36648 54.1413 0 53.7699 0 53.3057V20.129C0 19.6648 0.36648 19.2934 0.824579 19.2934H6.23016C6.56609 19.2934 6.87149 19.51 6.99365 19.8195L7.57391 21.3979C8.52065 20.9337 9.52847 20.4694 10.5363 20.098C11.6968 19.6648 13.01 19.2624 14.4454 18.8911C15.9113 18.5197 17.4689 18.334 19.0264 18.334C20.9504 18.334 22.5996 18.6435 23.9128 19.2934C25.0122 19.8505 25.9284 20.5932 26.6309 21.5836C27.0279 21.3669 27.5165 21.1503 28.0357 20.8718C28.8908 20.4694 29.8681 20.0671 30.9065 19.6957C31.9754 19.3243 33.1664 18.9839 34.4185 18.7363C35.7012 18.4578 37.0755 18.334 38.5109 18.334C41.7787 18.334 44.2219 19.3243 45.7794 21.2431C47.3064 23.131 48.0699 25.9782 48.0699 29.7849V53.3676C48.0699 53.8318 47.7034 54.2032 47.2453 54.2032H39.8547Z" fill="#F37021"/>
<path d="M55.1641 53.3699V28.731C55.1641 28.2685 55.5155 27.8984 55.9548 27.8984H63.0417C63.481 27.8984 63.8324 28.2685 63.8324 28.731V53.3699C63.8324 53.8325 63.481 54.2025 63.0417 54.2025H55.9255C55.5155 54.2025 55.1641 53.8325 55.1641 53.3699Z" fill="#F37021"/>
<path d="M70.9238 53.3524V9.61711C70.9238 9.14515 71.2752 8.76758 71.7145 8.76758H78.8015C79.2408 8.76758 79.5922 9.14515 79.5922 9.61711V53.3524C79.5922 53.8244 79.2408 54.2019 78.8015 54.2019H71.7145C71.246 54.2019 70.9238 53.8244 70.9238 53.3524Z" fill="#F37021"/>
<path d="M86.6836 53.3524V9.61711C86.6836 9.14515 87.067 8.76758 87.5462 8.76758H95.2774C95.7566 8.76758 96.14 9.14515 96.14 9.61711V53.3524C96.14 53.8244 95.7566 54.2019 95.2774 54.2019H87.5462C87.035 54.2019 86.6836 53.8244 86.6836 53.3524Z" fill="#F37021"/>
<path d="M114.218 55.0003C112.583 55.0003 111.009 54.8768 109.556 54.6605C108.133 54.4443 106.831 54.1972 105.741 53.9192C104.47 53.6103 103.259 53.2396 102.169 52.838C101.866 52.7145 101.654 52.4056 101.654 52.0658V46.8454C101.654 46.3202 102.139 45.9187 102.623 46.0422C103.501 46.2585 104.5 46.4438 105.59 46.5983C106.529 46.7527 107.618 46.8763 108.89 46.9689C110.131 47.0616 111.554 47.1234 113.068 47.1234C114.703 47.1234 116.035 47.0616 116.973 46.938C118.063 46.8145 118.608 46.5674 118.911 46.4129C119.244 46.2276 119.426 45.9805 119.516 45.6407C119.637 45.1773 119.698 44.5904 119.698 43.8799C119.698 43.5093 119.668 43.1695 119.637 42.8606C119.607 42.6443 119.516 42.459 119.395 42.2737C119.274 42.0883 119.092 41.9339 118.82 41.8103C118.517 41.6559 118.093 41.5323 117.518 41.4396L110.676 40.1423C109.072 39.8643 107.679 39.4627 106.559 38.9993C105.378 38.5051 104.409 37.7946 103.683 36.9297C102.956 36.0648 102.441 35.0145 102.139 33.7789C101.836 32.6051 101.685 31.1533 101.685 29.4852C101.685 25.7476 102.926 22.9057 105.408 21.0523C107.8 19.2298 111.251 18.334 115.611 18.334C117.125 18.334 118.517 18.4267 119.819 18.612C121.091 18.7973 122.211 19.0136 123.149 19.2298C124.239 19.4769 125.238 19.7858 126.146 20.0947C126.48 20.2183 126.691 20.5272 126.691 20.867V26.2418C126.691 26.736 126.237 27.1376 125.753 27.0449C124.784 26.8905 123.755 26.736 122.695 26.6125C121.787 26.5198 120.758 26.3963 119.607 26.3036C118.487 26.2109 117.367 26.1491 116.216 26.1491C114.915 26.1491 113.825 26.2109 112.977 26.3036C112.19 26.3963 111.584 26.5816 111.161 26.7978C110.797 26.9832 110.555 27.1994 110.434 27.4774C110.283 27.7863 110.192 28.2188 110.192 28.7439C110.192 29.1763 110.222 29.5779 110.313 29.9177C110.373 30.1648 110.464 30.4119 110.646 30.6282C110.828 30.8444 111.13 31.0606 111.494 31.246C111.887 31.4313 112.462 31.6166 113.189 31.7402L120.243 33.0994C121.666 33.3774 122.907 33.748 123.936 34.2114C124.996 34.7056 125.874 35.3852 126.57 36.2192C127.236 37.0533 127.721 38.1344 128.024 39.4318C128.296 40.6674 128.447 42.1501 128.447 43.9108C128.447 45.5789 128.266 47.1234 127.933 48.4517C127.569 49.8726 126.843 51.1082 125.753 52.0967C124.693 53.0542 123.21 53.7956 121.333 54.2898C119.577 54.7532 117.155 55.0003 114.218 55.0003Z" fill="#F37021"/>
<path d="M62.9803 9.56513H56.0162C55.5461 9.56513 55.1641 9.14361 55.1641 8.62483V0.940301C55.1641 0.421514 55.5461 0 56.0162 0H62.9803C63.4504 0 63.8324 0.421514 63.8324 0.940301V8.62483C63.8324 9.14361 63.4504 9.56513 62.9803 9.56513Z" fill="#F37021"/>
</svg>
