<svg width="58" height="57" viewBox="0 0 58 57" fill="none" xmlns="http://www.w3.org/2000/svg">
<path d="M49.8754 0C50.6904 0.284068 51.3865 0.716862 51.7062 1.56906C52.0959 2.61164 51.8788 3.53969 51.1069 4.33092C49.52 5.95798 48.2379 7.79476 47.4913 9.94534C45.2857 16.3004 46.3655 22.0413 50.9284 27.0206C52.2104 28.4187 51.9918 29.8226 51.3553 30.6273C50.396 31.8394 48.6663 31.9078 47.5434 30.7641C44.6269 27.791 42.6533 24.287 41.865 20.1911C40.464 12.9035 42.2666 6.49191 47.3456 1.05001C47.7561 0.608291 48.3584 0.345046 48.873 0C49.2076 0 49.5408 0 49.8754 0ZM43.0548 15.7605C43.1247 21.0627 44.9422 25.63 48.5979 29.4538C48.7005 29.5609 48.8016 29.6739 48.9251 29.7542C49.3013 29.9996 49.6761 29.9654 49.9855 29.6457C50.277 29.3452 50.3097 28.9794 50.0792 28.6269C49.9483 28.4276 49.7683 28.2595 49.6018 28.0855C44.0349 22.2302 43.1188 13.079 47.469 6.28518C48.1844 5.16825 49.1288 4.20152 49.92 3.12921C50.0985 2.88678 50.1937 2.46142 50.1134 2.18479C50.0479 1.96468 49.6583 1.7163 49.4054 1.70887C49.1437 1.70143 48.818 1.9156 48.6172 2.12381C44.9481 5.93419 43.1307 10.5031 43.0578 15.7605H43.0548Z" fill="#004042"/>
<path d="M8.1252 0C9.32542 0.392638 10.0244 1.38018 10.7755 2.28444C17.6883 10.5923 17.1023 23.1121 9.4563 30.77C8.4167 31.8111 6.87441 31.8557 5.86604 30.8727C4.85322 29.8851 4.83091 28.3488 5.86307 27.2854C8.26946 24.8046 9.83853 21.894 10.3606 18.4689C11.1741 13.1251 9.73591 8.45362 6.03708 4.49749C5.54182 3.96802 5.14323 3.41179 5.11349 2.65774C5.06292 1.39803 5.64742 0.623164 7.12278 0.00297453H8.1252V0ZM13.9315 16.4268C13.924 12.2476 13.0912 8.8879 11.2143 5.85685C10.362 4.47964 9.26742 3.24967 8.24418 1.98401C7.8917 1.54824 7.37116 1.57055 7.02016 1.92303C6.68999 2.25469 6.69594 2.71426 7.04098 3.1188C7.17335 3.27347 7.32356 3.41327 7.46039 3.56497C11.3273 7.85127 12.8517 12.8634 12.0337 18.5655C11.4924 22.3343 9.82068 25.5661 7.18525 28.3071C6.7004 28.8113 6.65281 29.3036 7.02611 29.668C7.41577 30.0487 7.8917 29.9862 8.37952 29.4761C12.0337 25.6538 13.8631 21.0909 13.93 16.4268H13.9315Z" fill="#004042"/>
<path d="M0 7.1249C0.0371816 7.04162 0.0817996 6.95982 0.111545 6.87504C0.782302 4.9877 2.9552 4.49988 4.36215 5.93212C6.28072 7.8849 7.57613 10.1961 8.08775 12.8821C9.00242 17.6756 7.80517 21.8905 4.50344 25.5194C2.91653 27.2625 0.471463 26.388 0.0713887 24.572C0.0639524 24.5423 0.0252835 24.5185 0 24.4917C0 24.1571 0 23.8239 0 23.4893C0.25581 22.5047 1.06934 21.9083 1.64194 21.1439C2.0093 20.6546 2.49563 20.5668 2.89124 20.8672C3.29727 21.1766 3.34337 21.6555 2.96858 22.1433C2.62949 22.5835 2.2428 22.9851 1.89329 23.4179C1.49768 23.9072 1.65384 24.5214 2.21305 24.7416C2.65031 24.9141 2.96115 24.7074 3.24521 24.4069C5.5237 21.9931 6.71203 19.1331 6.715 15.809C6.71798 12.4434 5.52817 9.54617 3.19167 7.1249C2.77524 6.6936 2.27849 6.66683 1.92155 7.02377C1.57353 7.37179 1.59286 7.82392 1.97509 8.25969C2.24428 8.56606 2.53133 8.85906 2.7797 9.18179C4.79048 11.8083 5.4419 14.7531 4.82618 17.9938C4.7414 18.443 4.52575 18.7553 4.04982 18.8074C3.45789 18.8713 3.07269 18.3657 3.19465 17.6934C3.7375 14.7204 3.07566 12.0745 1.10653 9.75588C0.682655 9.25913 0.365867 8.67166 0 8.12583C0 7.7912 0 7.45805 0 7.12342V7.1249Z" fill="#004042"/>
<path d="M28.5063 55.6606C27.4756 56.7225 26.2932 57.2118 24.8551 56.9054C23.2176 56.5559 22.0203 55.1564 21.9445 53.4773C21.9133 52.7916 21.9251 52.1045 21.937 51.4174C21.9475 50.8552 22.2806 50.4938 22.7595 50.4864C23.2637 50.4789 23.5924 50.8448 23.5998 51.4486C23.6087 52.0614 23.5909 52.6742 23.6058 53.2854C23.634 54.441 24.4996 55.314 25.6076 55.3274C26.6978 55.3393 27.5782 54.5228 27.6422 53.388C27.6824 52.6846 27.6586 51.9781 27.6586 51.2731C27.6586 47.0434 27.6586 42.8121 27.66 38.5823C27.66 38.3607 27.6541 38.1332 27.6987 37.9175C27.7865 37.5026 28.0646 37.2824 28.4914 37.281C28.9168 37.281 29.2008 37.4951 29.2856 37.913C29.3332 38.1465 29.3273 38.3919 29.3273 38.6329C29.3288 43.4204 29.3332 48.2064 29.3243 52.9939C29.3228 53.7822 29.5102 54.4708 30.1795 54.9422C30.8011 55.381 31.4823 55.4613 32.1828 55.143C32.9041 54.8158 33.2849 54.2328 33.3756 53.4565C33.3994 53.2542 33.386 53.0489 33.386 52.8452C33.386 44.3663 33.386 35.8859 33.386 27.407C33.386 26.5191 33.618 26.1532 34.1891 26.1369C34.784 26.1205 35.0547 26.5176 35.0562 27.4085C35.0562 31.1564 35.0562 34.9043 35.0562 38.6522C35.0562 39.4137 35.3834 39.9833 36.0824 40.2882C36.7353 40.5738 37.354 40.4667 37.8954 39.9952C38.3698 39.5832 38.4769 39.033 38.4754 38.4336C38.471 35.5394 38.4725 32.6452 38.4725 29.7494C38.4725 28.4689 38.4799 27.1884 38.471 25.9093C38.4531 23.3483 36.8067 21.6944 34.2531 21.687C30.413 21.6781 26.5714 21.6781 22.7312 21.687C20.2029 21.6929 18.5282 23.3408 18.5193 25.8558C18.503 30.0677 18.5178 34.2797 18.5119 38.4916C18.5119 39.1638 18.6948 39.7454 19.2674 40.135C19.8162 40.5083 20.4215 40.5559 21.009 40.2451C21.6351 39.9134 21.9341 39.3676 21.9341 38.6507C21.9311 34.94 21.9341 31.2293 21.9341 27.5185C21.9341 27.3698 21.9296 27.2211 21.9341 27.0739C21.9564 26.4715 22.2821 26.122 22.7997 26.1369C23.2964 26.1518 23.5983 26.4864 23.5998 27.0739C23.6072 29.0772 23.6028 31.082 23.6028 33.0854C23.6028 37.687 23.6028 42.2886 23.6028 46.8902C23.6028 47.0389 23.6072 47.1876 23.6028 47.3349C23.582 47.8985 23.2607 48.2466 22.7684 48.2451C22.2806 48.2421 21.943 47.8911 21.9385 47.3259C21.9266 45.916 21.9341 44.5061 21.9341 43.0962C21.9341 42.653 21.9341 42.2098 21.9341 41.7814C21.3689 41.8915 20.8365 42.0655 20.2996 42.0878C18.5595 42.1577 17.1049 40.8816 16.8922 39.1534C16.8655 38.9333 16.8491 38.7102 16.8491 38.4871C16.8461 34.2945 16.8387 30.1004 16.8491 25.9078C16.8565 23.2471 18.2932 21.1218 20.6595 20.347C21.3154 20.1313 22.0382 20.0391 22.7327 20.0331C26.5729 20.0034 30.4145 20.0093 34.2546 20.0227C37.7318 20.0346 40.1233 22.4202 40.1382 25.9078C40.156 29.971 40.043 34.0372 40.1754 38.0975C40.2721 41.0333 37.827 42.9415 35.0547 41.7115C35.0547 41.9361 35.0547 42.128 35.0547 42.3198C35.0547 45.9562 35.0651 49.5925 35.0503 53.2304C35.0413 55.4628 33.2819 57.1315 31.115 56.9917C30.0843 56.9248 29.2351 56.4682 28.5033 55.665L28.5063 55.6606Z" fill="#004042"/>
<path d="M48.6109 15.0948C48.6496 11.9908 49.9583 8.72033 52.5834 5.98674C53.6423 4.88467 55.1682 4.80585 56.2049 5.78298C57.2653 6.78094 57.2608 8.30687 56.193 9.45058C52.7395 13.1449 52.7291 18.3757 56.1781 22.0968C56.9083 22.8836 57.2132 23.7685 56.8503 24.7977C56.5216 25.7287 55.8316 26.2894 54.8514 26.4411C53.9829 26.5764 53.2541 26.2716 52.6399 25.6528C50.052 23.0442 48.6034 19.5015 48.6094 15.0948H48.6109ZM50.2736 15.6926C50.293 19.0568 51.4307 21.9302 53.7048 24.3485C54.2 24.875 54.6536 24.9449 55.0537 24.582C55.4523 24.2206 55.4107 23.7387 54.9362 23.2241C50.9236 18.8694 50.9266 12.6586 54.9451 8.34405C55.4017 7.85326 55.4493 7.39964 55.0805 7.02782C54.7027 6.6456 54.2075 6.70063 53.733 7.20035C51.459 9.59187 50.3183 12.4444 50.2722 15.6941L50.2736 15.6926Z" fill="#004042"/>
<path d="M35.0548 12.6805C35.0117 16.1711 32.3346 18.9821 28.7771 19.2156C25.5155 19.4297 22.4264 16.8092 22.0546 13.5149C21.662 10.0347 24.0059 6.89356 27.4103 6.32393C29.0983 6.04135 30.651 6.37599 32.0832 7.29958C32.4759 7.55242 32.6335 7.91085 32.4625 8.35108C32.3123 8.73777 31.9866 8.93409 31.5746 8.85229C31.347 8.80767 31.1359 8.6634 30.9291 8.54293C28.2982 7.02741 24.9459 8.27076 23.9449 11.1352C23.2816 13.036 23.8988 15.2103 25.459 16.4611C27.0786 17.7595 29.2678 17.9038 31.0213 16.827C32.7778 15.7502 33.6523 13.7082 33.2195 11.7004C33.1883 11.5561 33.1451 11.4104 33.1333 11.2646C33.0946 10.7961 33.2879 10.4585 33.7564 10.3544C34.2145 10.2518 34.5982 10.4273 34.7202 10.8869C34.8763 11.4728 34.9477 12.0826 35.0548 12.682V12.6805Z" fill="#004042"/>
</svg>
