<svg width="52" height="52" viewBox="0 0 52 52" fill="none" xmlns="http://www.w3.org/2000/svg">
<g clipPath="url(#clip0_4663_41075)">
<path d="M49.3992 23.3992H49.3653C49.2047 18.7053 47.6287 14.1697 44.8442 10.3875C42.0596 6.60537 38.1966 3.75346 33.7622 2.20611C33.6685 1.59323 33.3587 1.03405 32.8888 0.629507C32.419 0.224961 31.82 0.00169367 31.2 0L20.8 0C20.1803 0.0020607 19.5816 0.225494 19.1121 0.630007C18.6426 1.03452 18.333 1.59349 18.2393 2.20611C13.8045 3.75303 9.94106 6.60478 7.15619 10.387C4.37133 14.1692 2.79519 18.7051 2.63469 23.3992H2.59923C2.25776 23.3992 1.91964 23.4665 1.60419 23.5972C1.28874 23.728 1.00213 23.9195 0.760752 24.1611C0.519371 24.4026 0.327945 24.6893 0.197412 25.0048C0.0668795 25.3204 -0.000202073 25.6585 4.57235e-07 26V27.7328C4.57235e-07 28.4222 0.273847 29.0833 0.761297 29.5708C1.24875 30.0582 1.90987 30.332 2.59923 30.332H49.3992C50.0886 30.332 50.7497 30.0582 51.2372 29.5708C51.7246 29.0833 51.9985 28.4222 51.9985 27.7328V26C51.9987 25.6585 51.9316 25.3204 51.801 25.0048C51.6705 24.6893 51.4791 24.4026 51.2377 24.1611C50.9963 23.9195 50.7097 23.728 50.3943 23.5972C50.0788 23.4665 49.7407 23.3992 49.3992 23.3992ZM18.1992 4.06534V19.0672C18.1992 19.297 18.2905 19.5173 18.453 19.6798C18.6155 19.8423 18.8359 19.9336 19.0656 19.9336C19.2954 19.9336 19.5158 19.8423 19.6783 19.6798C19.8408 19.5173 19.932 19.297 19.932 19.0672V2.59923C19.932 2.36944 20.0233 2.14907 20.1858 1.98659C20.3483 1.8241 20.5687 1.73282 20.7985 1.73282H25.129V20.8C25.129 21.0298 25.2202 21.2502 25.3827 21.4126C25.5452 21.5751 25.7656 21.6664 25.9954 21.6664C26.2252 21.6664 26.4455 21.5751 26.608 21.4126C26.7705 21.2502 26.8618 21.0298 26.8618 20.8V1.73282H31.1954C31.3092 1.73282 31.4218 1.75523 31.5269 1.79877C31.6321 1.84231 31.7276 1.90613 31.808 1.98659C31.8885 2.06704 31.9523 2.16255 31.9958 2.26767C32.0394 2.37279 32.0618 2.48545 32.0618 2.59923V19.0672C32.0618 19.181 32.0842 19.2936 32.1277 19.3987C32.1713 19.5039 32.2351 19.5994 32.3155 19.6798C32.396 19.7603 32.4915 19.8241 32.5966 19.8676C32.7018 19.9112 32.8144 19.9336 32.9282 19.9336C33.042 19.9336 33.1546 19.9112 33.2598 19.8676C33.3649 19.8241 33.4604 19.7603 33.5408 19.6798C33.6213 19.5994 33.6851 19.5039 33.7287 19.3987C33.7722 19.2936 33.7946 19.181 33.7946 19.0672V4.06534C37.7432 5.57612 41.1605 8.2143 43.6217 11.6518C46.0828 15.0893 47.4792 19.1745 47.6371 23.3992H4.36751C4.52455 19.1757 5.91932 15.0914 8.37846 11.6541C10.8376 8.21671 14.2527 5.5778 18.1992 4.06534ZM50.2656 27.7328C50.2656 27.8466 50.2432 27.9593 50.1997 28.0644C50.1562 28.1695 50.0923 28.265 50.0119 28.3455C49.9314 28.4259 49.8359 28.4897 49.7308 28.5333C49.6257 28.5768 49.513 28.5992 49.3992 28.5992H2.59923C2.48545 28.5992 2.37279 28.5768 2.26767 28.5333C2.16255 28.4897 2.06704 28.4259 1.98659 28.3455C1.90613 28.265 1.84231 28.1695 1.79877 28.0644C1.75523 27.9593 1.73282 27.8466 1.73282 27.7328V26C1.73282 25.7702 1.8241 25.5498 1.98659 25.3874C2.14907 25.2249 2.36944 25.1336 2.59923 25.1336H49.3992C49.629 25.1336 49.8494 25.2249 50.0119 25.3874C50.1744 25.5498 50.2656 25.7702 50.2656 26V27.7328Z" fill="#004042"/>
<path d="M21.668 38.1328H10.4C9.71065 38.1328 9.04953 38.4066 8.56208 38.8941C8.07463 39.3815 7.80078 40.0427 7.80078 40.732V44.1992C7.80078 44.429 7.89206 44.6494 8.05454 44.8119C8.21703 44.9744 8.4374 45.0656 8.66719 45.0656C8.89697 45.0656 9.11736 44.9744 9.27984 44.8119C9.44232 44.6494 9.5336 44.429 9.5336 44.1992V40.732C9.5336 40.5023 9.62488 40.2819 9.78736 40.1194C9.94985 39.9569 10.1702 39.8656 10.4 39.8656H21.6664C21.8962 39.8656 22.1166 39.7743 22.2791 39.6118C22.4416 39.4494 22.5328 39.229 22.5328 38.9992C22.5328 38.7695 22.4416 38.5491 22.2791 38.3866C22.1166 38.2241 21.8978 38.1328 21.668 38.1328Z" fill="#004042"/>
<path d="M51.1336 38.1351H47.5878C47.3864 37.1556 46.853 36.2756 46.0778 35.6438C45.3025 35.0121 44.3329 34.6674 43.3328 34.668H8.66718C7.51822 34.6692 6.41666 35.1261 5.60422 35.9386C4.79178 36.751 4.33482 37.8526 4.33359 39.0016H0.86641C0.636624 39.0016 0.416249 39.0929 0.253766 39.2553C0.0912822 39.4178 0 39.6382 0 39.8679L0 46.8054C0 47.0352 0.0912822 47.2556 0.253766 47.418C0.416249 47.5805 0.636624 47.6718 0.86641 47.6718H4.59259C4.96656 48.9222 5.73333 50.0189 6.77932 50.7994C7.82531 51.58 9.09489 52.0028 10.4 52.0054H15.6C17.5499 51.9997 19.4652 51.4909 21.1608 50.528C22.8563 49.5652 24.2747 48.181 25.2785 46.5094C25.3551 46.3874 25.4614 46.2869 25.5875 46.2172C25.7135 46.1475 25.8552 46.1109 25.9992 46.1109C26.1433 46.1109 26.285 46.1475 26.411 46.2172C26.5371 46.2869 26.6434 46.3874 26.72 46.5094C27.7238 48.181 29.1421 49.5652 30.8377 50.528C32.5332 51.4909 34.4486 51.9997 36.3985 52.0054H41.5985C43.056 52.0037 44.4642 51.4772 45.5655 50.5223C46.6667 49.5675 47.3873 48.248 47.5955 46.8054H51.132C51.3618 46.8054 51.5822 46.7141 51.7447 46.5517C51.9072 46.3892 51.9985 46.1688 51.9985 45.939V39.0016C51.9985 38.772 51.9074 38.5519 51.7452 38.3895C51.5831 38.227 51.3631 38.1355 51.1336 38.1351ZM4.33359 45.9359H1.73282V43.3352H4.33359V45.9359ZM4.33359 41.6023H1.73282V40.7359H4.33359V41.6023ZM45.9336 45.9359C45.9324 47.0849 45.4754 48.1865 44.663 48.9989C43.8505 49.8113 42.749 50.2683 41.6 50.2695H36.4C34.75 50.2635 33.1295 49.8318 31.6951 49.0162C30.2608 48.2005 29.0611 47.0286 28.2123 45.6137C27.9823 45.2333 27.6581 44.9187 27.271 44.7003C26.8838 44.4819 26.4468 44.3672 26.0023 44.3672C25.5578 44.3672 25.1208 44.4819 24.7337 44.7003C24.3465 44.9187 24.0223 45.2333 23.7924 45.6137C22.9429 47.0278 21.743 48.1988 20.3087 49.0136C18.8744 49.8284 17.2542 50.2593 15.6046 50.2649H10.4C9.25104 50.2637 8.14948 49.8067 7.33704 48.9942C6.5246 48.1818 6.06763 47.0803 6.06641 45.9313V38.9939C6.06621 38.6524 6.13329 38.3142 6.26382 37.9987C6.39435 37.6832 6.58578 37.3964 6.82716 37.1549C7.06854 36.9134 7.35515 36.7218 7.6706 36.5911C7.98605 36.4604 8.32417 36.3931 8.66564 36.3931H43.3328C43.6744 36.3929 44.0127 36.46 44.3283 36.5907C44.644 36.7213 44.9308 36.9128 45.1723 37.1544C45.4138 37.3959 45.6054 37.6827 45.736 37.9983C45.8667 38.314 45.9338 38.6523 45.9336 38.9939V45.9359ZM50.2672 45.0695H47.6664V42.4687H50.2656L50.2672 45.0695ZM50.2672 40.7359H47.6664V39.8695H50.2656L50.2672 40.7359Z" fill="#004042"/>
<path d="M26.8649 38.1328H25.132C24.9022 38.1328 24.6819 38.2241 24.5194 38.3866C24.3569 38.5491 24.2656 38.7695 24.2656 38.9992C24.2656 39.229 24.3569 39.4494 24.5194 39.6118C24.6819 39.7743 24.9022 39.8656 25.132 39.8656H26.8649C27.0946 39.8656 27.315 39.7743 27.4775 39.6118C27.64 39.4494 27.7313 39.229 27.7313 38.9992C27.7313 38.7695 27.64 38.5491 27.4775 38.3866C27.315 38.2241 27.0946 38.1328 26.8649 38.1328Z" fill="#004042"/>
</g>
<defs>
<clipPath id="clip0_4663_41075">
<rect width="52" height="52" fill="white"/>
</clipPath>
</defs>
</svg>
