<svg width="29" height="29" viewBox="0 0 29 29" fill="none" xmlns="http://www.w3.org/2000/svg">
<path d="M21.8173 19.0952C21.5584 18.8345 21.2504 18.6277 20.9112 18.4865C20.572 18.3454 20.2082 18.2727 19.8407 18.2727C19.4733 18.2727 19.1095 18.3454 18.7703 18.4865C18.4311 18.6277 18.1231 18.8345 17.8642 19.0952L16.5155 20.447C14.9968 19.4809 13.5901 18.3493 12.3211 17.0729C11.0495 15.7981 9.92053 14.3885 8.95411 12.8692L10.3028 11.5174C10.5629 11.2574 10.7693 10.9486 10.9101 10.6088C11.0509 10.269 11.1233 9.90476 11.1233 9.53693C11.1233 9.16911 11.0509 8.80488 10.9101 8.46507C10.7693 8.12525 10.5629 7.8165 10.3028 7.55644L7.6702 4.92698C7.41477 4.66562 7.10933 4.45837 6.77209 4.31757C6.43486 4.17678 6.07272 4.10532 5.70728 4.10747C5.33935 4.10656 4.97488 4.17851 4.6349 4.31916C4.29491 4.45982 3.98614 4.66639 3.7264 4.92698L2.46123 6.18591C1.85813 6.83621 1.40815 7.6132 1.14427 8.45996C0.880384 9.30671 0.809276 10.2018 0.936155 11.0796C1.23352 14.5746 3.52191 18.7783 7.04738 22.3186C10.5728 25.8589 14.814 28.1442 18.302 28.4798C18.562 28.4937 18.8225 28.4937 19.0825 28.4798C19.8335 28.5111 20.5833 28.392 21.2876 28.1295C21.992 27.8669 22.6367 27.4661 23.184 26.9508L24.4398 25.688C24.7002 25.4272 24.9066 25.1175 25.0471 24.7768C25.1876 24.4361 25.2594 24.071 25.2585 23.7024C25.2607 23.3364 25.1894 22.9737 25.0488 22.6359C24.9081 22.298 24.701 21.9918 24.4398 21.7356L21.8173 19.0952ZM23.1285 24.3705L21.8634 25.6286C21.396 26.0191 20.85 26.3045 20.2626 26.4653C19.6752 26.6261 19.06 26.6586 18.4589 26.5605C15.4361 26.2999 11.5851 24.1559 8.40464 20.9683C5.22415 17.7808 3.08406 13.9502 2.79918 10.9211C2.69842 10.3193 2.72912 9.70271 2.88917 9.11383C3.04923 8.52494 3.33484 7.97768 3.7264 7.50961L5.03762 6.2421C5.21379 6.06898 5.45091 5.97197 5.69791 5.97197C5.94491 5.97197 6.18203 6.06898 6.3582 6.2421L8.99079 8.90747C9.16334 9.08268 9.26005 9.31873 9.26005 9.56464C9.26005 9.81055 9.16334 10.0466 8.99079 10.2218L7.13011 12.0864C6.98492 12.232 6.89166 12.4213 6.86472 12.6251C6.83778 12.8289 6.87865 13.0359 6.98103 13.2142C8.09436 15.1138 9.44796 16.8619 11.0084 18.4154C12.5576 19.9784 14.3021 21.3349 16.1986 22.4513C16.3763 22.5544 16.5831 22.5957 16.7868 22.5687C16.9904 22.5417 17.1794 22.448 17.3241 22.3022L19.184 20.4384C19.358 20.2649 19.5938 20.1675 19.8396 20.1675C20.0853 20.1675 20.3211 20.2649 20.4952 20.4384L23.1278 23.0764C23.2133 23.1613 23.2812 23.2622 23.3275 23.3734C23.3738 23.4845 23.3977 23.6038 23.3977 23.7242C23.3977 23.8447 23.3738 23.964 23.3275 24.0751C23.2812 24.1863 23.2133 24.2872 23.1278 24.3721L23.1285 24.3705Z" fill="white"/>
<path d="M24.7304 4.62871C23.3901 3.28328 21.7968 2.21647 20.0422 1.48976C18.2877 0.763055 16.4066 0.390835 14.5076 0.394559C14.2566 0.4017 14.0182 0.506427 13.8432 0.686488C13.6682 0.866549 13.5703 1.10775 13.5703 1.35885C13.5703 1.60995 13.6682 1.85115 13.8432 2.03122C14.0182 2.21128 14.2566 2.316 14.5076 2.32314C16.163 2.32308 17.8021 2.65087 19.3302 3.28758C20.8583 3.92428 22.2452 4.85731 23.4108 6.03282C24.5765 7.20832 25.4978 8.60303 26.1216 10.1365C26.7454 11.6699 27.0593 13.3117 27.0453 14.967C27.0416 15.096 27.0639 15.2244 27.1107 15.3446C27.1575 15.4648 27.2279 15.5743 27.3178 15.6668C27.4077 15.7593 27.5153 15.8329 27.6341 15.8831C27.7529 15.9333 27.8806 15.9592 28.0096 15.9592C28.1386 15.9592 28.2663 15.9333 28.3851 15.8831C28.5039 15.8329 28.6115 15.7593 28.7014 15.6668C28.7913 15.5743 28.8617 15.4648 28.9085 15.3446C28.9553 15.2244 28.9776 15.096 28.9739 14.967C28.9923 13.0478 28.6263 11.1443 27.8975 9.36878C27.1687 7.59322 26.0919 5.98153 24.7304 4.62871Z" fill="white"/>
<path d="M19.5092 9.88745C20.0566 10.4315 20.4895 11.0795 20.7827 11.7934C21.0758 12.5073 21.2232 13.2726 21.2162 14.0443C21.2125 14.1733 21.2347 14.3016 21.2815 14.4218C21.3283 14.542 21.3988 14.6516 21.4887 14.7441C21.5786 14.8366 21.6861 14.9102 21.805 14.9604C21.9238 15.0106 22.0515 15.0364 22.1804 15.0364C22.3094 15.0364 22.4371 15.0106 22.5559 14.9604C22.6748 14.9102 22.7823 14.8366 22.8722 14.7441C22.9621 14.6516 23.0326 14.542 23.0794 14.4218C23.1262 14.3016 23.1484 14.1733 23.1447 14.0443C23.1571 13.0233 22.9667 12.0099 22.5846 11.063C22.2024 10.1161 21.6361 9.25442 20.9185 8.52799C20.2008 7.80156 19.3461 7.22481 18.4039 6.83116C17.4617 6.43751 16.4507 6.23479 15.4296 6.23477C15.3007 6.2311 15.1723 6.25332 15.0521 6.30013C14.9319 6.34694 14.8223 6.41739 14.7298 6.50729C14.6373 6.5972 14.5638 6.70474 14.5136 6.82356C14.4634 6.94238 14.4375 7.07006 14.4375 7.19906C14.4375 7.32805 14.4634 7.45573 14.5136 7.57455C14.5638 7.69337 14.6373 7.80092 14.7298 7.89082C14.8223 7.98073 14.9319 8.05117 15.0521 8.09798C15.1723 8.14479 15.3007 8.16702 15.4296 8.16335C16.1895 8.16877 16.9409 8.32382 17.6409 8.61964C18.3409 8.91546 18.9757 9.34627 19.5092 9.88745Z" fill="white"/>
</svg>
