<svg width="74" height="74" viewBox="0 0 74 74" fill="none" xmlns="http://www.w3.org/2000/svg">
<path d="M36.9992 0.913086C29.7756 0.91324 22.7143 3.05541 16.7082 7.06872C10.7021 11.082 6.02089 16.7862 3.25661 23.46C0.492334 30.1337 -0.230885 37.4773 1.1784 44.5621C2.58769 51.6469 6.0662 58.1546 11.174 63.2625C16.2819 68.3703 22.7897 71.8488 29.8745 73.2581C36.9592 74.6674 44.3028 73.9442 50.9766 71.1799C57.6503 68.4156 63.3545 63.7345 67.3678 57.7283C71.3811 51.7222 73.5233 44.6609 73.5235 37.4373C73.5133 27.7536 69.662 18.4694 62.8146 11.622C55.9671 4.77455 46.6829 0.92322 36.9992 0.913086ZM36.9992 71.2256C30.3164 71.2254 23.7837 69.2436 18.2272 65.5307C12.6707 61.8177 8.33997 56.5405 5.78269 50.3663C3.22542 44.1921 2.55644 37.3982 3.86035 30.8438C5.16426 24.2894 8.3825 18.2689 13.1081 13.5435C17.8337 8.81812 23.8544 5.60016 30.4089 4.29656C36.9633 2.99295 43.7572 3.66224 49.9313 6.2198C56.1053 8.77736 61.3824 13.1083 65.095 18.665C68.8077 24.2216 70.7892 30.7545 70.7891 37.4373C70.7785 46.3955 67.2151 54.9838 60.8805 61.3181C54.5459 67.6524 45.9575 71.2155 36.9992 71.2256Z" fill="white"/>
<path d="M55.0469 34.7672L30.2141 20.4289C29.7456 20.1591 29.2144 20.0172 28.6737 20.0176C28.1331 20.0179 27.602 20.1605 27.1339 20.431C26.6658 20.7015 26.2771 21.0903 26.0067 21.5585C25.7364 22.0267 25.594 22.5578 25.5938 23.0984V51.775C25.5917 52.3169 25.7329 52.8496 26.0029 53.3194C26.273 53.7891 26.6623 54.1792 27.1316 54.4502C27.6008 54.7211 28.1333 54.8633 28.6751 54.8623C29.217 54.8613 29.749 54.7172 30.2172 54.4445L55.0469 40.1055C55.5152 39.8348 55.9041 39.4457 56.1745 38.9772C56.4448 38.5087 56.5872 37.9773 56.5872 37.4363C56.5872 36.8954 56.4448 36.364 56.1745 35.8955C55.9041 35.427 55.5152 35.0379 55.0469 34.7672ZM53.6797 37.736L28.8477 52.0758C28.7948 52.1061 28.7349 52.1221 28.6739 52.122C28.613 52.122 28.5531 52.1059 28.5002 52.0755C28.4474 52.045 28.4035 52.0013 28.3729 51.9485C28.3423 51.8958 28.326 51.836 28.3258 51.775V23.0984C28.3241 23.037 28.3394 22.9762 28.3702 22.923C28.401 22.8697 28.4459 22.8261 28.5 22.7969C28.5527 22.7652 28.6128 22.748 28.6742 22.7469C28.7355 22.7477 28.7954 22.765 28.8477 22.7969L53.6828 37.1352C53.7355 37.1658 53.7793 37.2098 53.8097 37.2626C53.84 37.3155 53.856 37.3754 53.856 37.4363C53.856 37.4973 53.84 37.5572 53.8097 37.6101C53.7793 37.6629 53.7355 37.7069 53.6828 37.7375L53.6797 37.736Z" fill="white"/>
</svg>
