<svg xmlns="http://www.w3.org/2000/svg" width="17" height="16" viewBox="0 0 17 16" fill="none">
<g clip-path="url(#clip0_4846_39489)">
<path d="M1.21667 7.31606H7.82145V0.711288C7.80592 0.377556 8.06981 0.0903923 8.4113 0.0748699C8.74503 0.0593475 9.03219 0.323228 9.04771 0.664721C9.04771 0.680243 9.04771 0.695765 9.04771 0.711288V7.31606H15.6525C15.994 7.31606 16.2656 7.58771 16.2656 7.9292C16.2656 8.27069 15.994 8.54233 15.6525 8.54233H9.04771V15.1471C9.04771 15.4886 8.77607 15.7602 8.43458 15.7602C8.09309 15.7602 7.82145 15.4886 7.82145 15.1471V8.54233H1.21667C0.875178 8.54233 0.603537 8.27069 0.603537 7.9292C0.603537 7.58771 0.875178 7.31606 1.21667 7.31606Z" fill="white"/>
</g>
<defs>
<clipPath id="clip0_4846_39489">
<rect width="15.6621" height="15.6776" fill="white" transform="matrix(-1 0 0 1 16.2656 0.0742188)"/>
</clipPath>
</defs>
</svg>