<svg width="38" height="40" viewBox="0 0 38 40" fill="none" xmlns="http://www.w3.org/2000/svg">
<path d="M24.1356 39.0635V40.0635H25.1356V39.0635H24.1356ZM24.1356 24.3435V23.3435H23.1356V24.3435H24.1356ZM37.6556 24.3435V25.3435H38.6556V24.3435H37.6556ZM37.6556 14.9035H38.6556V13.9035H37.6556V14.9035ZM24.1356 14.9035H23.1356V15.9035H24.1356V14.9035ZM24.1356 0.183514H25.1356V-0.816486H24.1356V0.183514ZM13.8956 0.183514V-0.816486H12.8956V0.183514H13.8956ZM13.8956 14.9035V15.9035H14.8956V14.9035H13.8956ZM0.375625 14.9035V13.9035H-0.624375V14.9035H0.375625ZM0.375625 24.3435H-0.624375V25.3435H0.375625V24.3435ZM13.8956 24.3435H14.8956V23.3435H13.8956V24.3435ZM13.8956 39.0635H12.8956V40.0635H13.8956V39.0635ZM25.1356 39.0635V24.3435H23.1356V39.0635H25.1356ZM24.1356 25.3435H37.6556V23.3435H24.1356V25.3435ZM38.6556 24.3435V14.9035H36.6556V24.3435H38.6556ZM37.6556 13.9035H24.1356V15.9035H37.6556V13.9035ZM25.1356 14.9035V0.183514H23.1356V14.9035H25.1356ZM24.1356 -0.816486H13.8956V1.18351H24.1356V-0.816486ZM12.8956 0.183514V14.9035H14.8956V0.183514H12.8956ZM13.8956 13.9035H0.375625V15.9035H13.8956V13.9035ZM-0.624375 14.9035V24.3435H1.37563V14.9035H-0.624375ZM0.375625 25.3435H13.8956V23.3435H0.375625V25.3435ZM12.8956 24.3435V39.0635H14.8956V24.3435H12.8956ZM13.8956 40.0635H24.1356V38.0635H13.8956V40.0635Z" fill="white"/>
</svg>
