<svg width="43" height="36" viewBox="0 0 43 36" fill="none" xmlns="http://www.w3.org/2000/svg">
<g clipPath="url(#clip0_73_225)">
<g opacity="0.15">
<path d="M42.8594 15.7078H31.6426L31.6426 12.4355C31.645 11.5371 32.003 10.6761 32.6383 10.0408C33.2736 9.40551 34.1345 9.04755 35.0329 9.04518H39.3431L39.3431 0.673862H35.032C31.9138 0.677567 28.9244 1.91796 26.7197 4.12292C24.5149 6.32788 23.2748 9.31735 23.2713 12.4355L23.2713 35.2959H42.8594V15.7078Z" fill="#004042"/>
<path d="M19.5859 35.2959L19.5859 15.7078H8.3692L8.3692 12.4355C8.37158 11.5371 8.72953 10.6761 9.36482 10.0408C10.0001 9.40551 10.8611 9.04755 11.7595 9.04518H16.0707V0.673862H11.7595C8.64119 0.677303 5.65157 1.91758 3.44658 4.12257C1.24159 6.32756 0.00131035 9.31717 -0.00213051 12.4355L-0.00213051 35.2959H19.5859Z" fill="#004042"/>
</g>
</g>
<defs>
<clipPath id="clip0_73_225">
<rect width="42.8594" height="34.622" fill="white" transform="translate(0 0.673828)"/>
</clipPath>
</defs>
</svg>
