<svg width="72" height="59" viewBox="0 0 72 59" fill="none" xmlns="http://www.w3.org/2000/svg">
<g clipPath="url(#clip0_4663_41087)">
<path d="M51.7751 28.9359C51.9419 26.3896 53.8076 26.8019 55.5204 26.838V25.943C55.5204 20.1094 55.5204 14.2776 55.5204 8.44389C55.5204 7.13084 55.8578 6.7983 57.2037 6.7983C59.3088 6.7964 61.4139 6.7964 63.5191 6.7983C64.8708 6.7983 65.2299 7.14224 65.2318 8.42869C65.2318 15.3284 65.2357 22.2281 65.224 29.1278C65.224 29.5573 65.3358 29.8423 65.685 30.1501C66.662 31.0109 67.5665 31.9458 68.5082 32.8465C68.9634 33.2817 69.1301 33.8157 68.7887 34.3287C68.0079 35.5031 68.1747 36.5634 68.7417 37.808C69.1772 38.7638 69.6834 39.3301 70.6977 39.636C71.918 40.0028 71.9984 40.2042 71.9984 41.4394C71.9984 42.5529 71.9886 43.6683 72.0024 44.7818C72.0102 45.407 71.7395 45.8954 71.1234 46.0189C69.705 46.3058 69.0615 47.1742 68.5494 48.4474C68.157 49.426 68.1099 50.1671 68.6024 51.0754C69.1929 52.1661 69.1007 52.3751 68.2002 53.2473C67.4036 54.0188 66.5993 54.7808 65.8145 55.5637C65.3221 56.0559 64.7453 56.2098 64.1606 55.8468C63.0188 55.14 62.0084 55.2863 60.7724 55.7841C59.66 56.2307 59.042 56.7988 58.7163 57.8782C58.424 58.8511 58.1081 58.9917 57.035 58.9917C55.8853 58.9917 54.7337 58.9746 53.584 58.9974C52.8561 59.0126 52.3107 58.7599 52.142 58.0568C51.8398 56.795 51.0453 56.1775 49.7936 55.6853C48.6753 55.2464 47.8199 55.2293 46.8056 55.7594C45.8913 56.2383 45.5774 56.1357 44.8594 55.444C44.0432 54.6592 43.2506 53.8497 42.4129 53.0877C41.8302 52.5576 41.6831 51.9894 42.0499 51.3072C42.2265 50.9785 42.3442 50.6934 42.0225 50.3533C41.8812 50.2032 41.8635 49.9143 41.8479 49.6863C41.8204 49.2854 41.838 48.8806 41.838 48.4778C41.838 46.8892 41.7949 46.8284 40.2862 46.2678C38.8285 45.7263 38.7873 45.6692 38.7873 44.151C38.7873 43.1077 38.7971 42.0645 38.7853 41.0213C38.7775 40.398 39.06 39.9857 39.6603 39.771C39.9801 39.655 40.2999 39.5353 40.6177 39.4156C41.6654 39.0204 41.8341 38.7942 41.8361 37.6921C41.842 34.9425 41.8361 32.191 41.8361 29.4413C41.8361 24.6756 41.8361 19.9098 41.8361 15.1441C41.8361 13.869 42.1539 13.5669 43.4919 13.5669C45.6696 13.5669 47.8493 13.5631 50.027 13.5669C51.1748 13.5688 51.5514 13.9412 51.5514 15.0738C51.5554 19.3892 51.5514 23.7046 51.5514 28.02C51.5514 28.2727 51.5514 28.5273 51.5514 28.7801C51.624 28.8314 51.6986 28.8827 51.7712 28.9359H51.7751ZM69.6461 41.6617C69.1792 41.4888 68.7554 41.3025 68.312 41.1733C67.5841 40.9624 67.18 40.5215 66.9936 39.7995C66.8288 39.161 66.6483 38.4807 66.2775 37.9486C65.4417 36.7477 65.3809 35.6152 66.1853 34.3971C66.2834 34.2489 66.15 33.8955 66.0303 33.6902C65.9028 33.4717 65.6634 33.314 65.4731 33.1297C64.5844 32.267 64.5805 32.2613 63.4151 32.7629C62.801 33.029 62.2419 33.2266 61.5415 32.8789C60.5252 32.3753 59.452 31.9686 58.3769 31.5924C57.8492 31.4081 57.4999 31.1458 57.29 30.6404C56.6504 29.0974 56.6367 29.1468 54.9573 29.0822C54.251 29.0537 53.9273 29.2912 53.7861 29.9069C53.5428 30.952 52.9483 31.6323 51.7829 31.7748C51.4278 31.8185 51.057 31.9496 50.7529 32.134C49.2717 33.0366 47.7905 33.4983 46.1876 32.0979C45.9149 32.438 45.7442 32.704 45.5225 32.9226C44.4179 34.0095 44.3944 34.0133 45.0418 35.3795C45.3224 35.9724 45.3243 36.495 44.9712 37.0593C44.6808 37.523 44.3669 38.0076 44.2394 38.5244C43.8333 40.1567 43.1407 41.4774 41.1416 41.5591C41.1416 42.0854 41.1416 42.4883 41.1416 42.8892C41.1416 44.1472 41.1278 44.1852 42.3717 44.5975C43.1702 44.8617 43.6038 45.312 43.8255 46.112C44.0511 46.9272 44.3826 47.7405 44.826 48.4645C45.3047 49.2474 45.3361 49.9238 44.9163 50.7257C44.365 51.7785 44.4081 51.7994 45.2439 52.6089C46.2229 53.5571 46.2288 53.5704 47.4903 53.0041C48.073 52.7419 48.6007 52.6298 49.2325 52.9205C50.286 53.407 51.4023 53.768 52.4539 54.2602C52.8541 54.4483 53.2328 54.7998 53.4702 55.1685C53.7704 55.6359 53.9175 56.1984 54.1294 56.7209C54.5571 56.7209 54.924 56.7209 55.2889 56.7209C56.674 56.7209 56.7054 56.7323 57.1586 55.4763C57.4273 54.7295 57.8864 54.3324 58.6849 54.1233C59.5266 53.9048 60.3722 53.5913 61.1157 53.1599C61.9495 52.6754 62.6617 52.6754 63.521 53.0744C64.7865 53.6654 64.3764 53.7319 65.3986 52.7552C66.3933 51.8032 66.4168 51.7823 65.7949 50.5243C65.4653 49.8554 65.479 49.2873 65.8734 48.6526C66.2128 48.1091 66.562 47.5258 66.6915 46.9177C66.9936 45.4963 67.7293 44.5728 69.2498 44.2916C69.4087 44.2612 69.6226 43.9856 69.6343 43.8127C69.6775 43.1058 69.652 42.3952 69.652 41.6674L69.6461 41.6617ZM57.9355 9.11087C57.91 9.23058 57.8747 9.31799 57.8747 9.40731C57.8707 15.0966 57.8688 20.7858 57.8747 26.4732C57.8747 26.6252 57.9276 26.7943 58.0061 26.9274C58.3082 27.4518 58.7163 27.9345 58.9243 28.4893C59.1754 29.162 59.5129 29.6143 60.2721 29.7891C60.8097 29.9126 61.3178 30.1805 61.824 30.4143C62.7402 30.8361 62.8795 30.762 62.8795 29.7853C62.8795 23.1478 62.8795 16.5122 62.8795 9.87476V9.11087H57.9355ZM44.2335 30.7753C44.2787 30.8361 44.3238 30.8988 44.3709 30.9596C45.2498 29.371 46.4014 29.7093 47.5982 30.363C47.6826 30.4086 47.7767 30.4409 47.867 30.4789C48.7302 30.838 49.207 30.5302 49.207 29.6086C49.207 25.2704 49.207 20.9303 49.207 16.592V15.9004H44.2355V30.7753H44.2335Z" fill="#004042"/>
<path d="M28.1445 35.5589C28.1445 31.0307 28.1445 26.5025 28.1445 21.9742C28.1445 20.6042 28.4682 20.2887 29.8592 20.2868C32.037 20.2868 34.2147 20.283 36.3943 20.2868C37.444 20.2887 37.8717 20.6897 37.8717 21.712C37.8775 30.9832 37.8775 40.2525 37.8717 49.5237C37.8717 50.5137 37.4557 50.9089 36.4434 50.9127C34.1911 50.9222 31.9408 50.9184 29.6886 50.9127C28.5173 50.9108 28.1485 50.5631 28.1485 49.4268C28.1426 44.8035 28.1465 40.1803 28.1465 35.557L28.1445 35.5589ZM35.4703 48.6059V22.588H30.5498V48.6059H35.4703Z" fill="#004042"/>
<path d="M14.4505 39.3569C14.4505 36.0372 14.4505 32.7176 14.4505 29.396C14.4505 28.1285 14.7958 27.7979 16.1063 27.796C18.3096 27.7941 20.5128 27.7903 22.716 27.796C23.7833 27.7998 24.1776 28.1722 24.1776 29.2154C24.1835 35.9745 24.1835 42.7336 24.1776 49.4927C24.1776 50.5359 23.7813 50.9103 22.716 50.9141C20.4637 50.9217 18.2115 50.9198 15.9592 50.9141C14.8468 50.9103 14.4544 50.5359 14.4525 49.4585C14.4466 46.0913 14.4505 42.7241 14.4505 39.355V39.3569ZM16.846 30.1067V48.5939H21.7723V30.1067H16.846Z" fill="#004042"/>
<path d="M10.4839 42.94C10.4839 45.0968 10.4879 47.2516 10.4839 49.4084C10.482 50.5561 10.1249 50.9115 8.97326 50.9134C6.74846 50.9191 4.52169 50.9191 2.29689 50.9134C1.14918 50.9096 0.77053 50.5352 0.768568 49.4084C0.764644 45.0968 0.764644 40.7833 0.768568 36.4717C0.768568 35.3543 1.17272 34.9534 2.29493 34.9496C4.51973 34.9439 6.7465 34.9439 8.9713 34.9496C10.0798 34.9515 10.4761 35.3315 10.48 36.3995C10.4879 38.579 10.482 40.7586 10.482 42.94H10.4839ZM8.08059 48.6084V37.2812H3.16994V48.6084H8.08059Z" fill="#004042"/>
<path d="M46.9321 42.9957C46.8203 38.5492 50.5969 34.8039 55.2938 34.7012C59.8827 34.6005 63.7672 38.2775 63.8575 42.8076C63.9477 47.2712 60.173 51.0089 55.4899 51.0964C50.8736 51.1819 47.0479 47.5619 46.9321 42.9976V42.9957ZM55.2977 48.8123C58.6447 48.8845 61.4345 46.2622 61.5051 42.9748C61.5758 39.7539 58.8193 37.0252 55.4487 36.9758C52.141 36.9283 49.3904 39.5221 49.2825 42.7924C49.1765 46.0114 51.9016 48.7401 55.2957 48.8142L55.2977 48.8123Z" fill="#004042"/>
</g>
<defs>
<clipPath id="clip0_4663_41087">
<rect width="72" height="59" fill="white"/>
</clipPath>
</defs>
</svg>
