<svg width="45" height="45" viewBox="0 0 45 45" fill="none" xmlns="http://www.w3.org/2000/svg">
<path d="M40.259 44.9818H38.6846C38.5819 44.9184 38.4882 44.8308 38.3794 44.7976C37.0346 44.3807 36.0797 43.4231 35.1459 42.4474C34.4418 41.7134 33.7831 40.9371 33.094 40.1879C32.3446 39.3754 31.5801 38.5749 30.8276 37.7684C29.9664 36.847 29.1565 35.8834 28.271 34.9833C27.7543 34.4577 27.2708 33.8988 26.7722 33.3551C26.2524 32.7842 25.7357 32.2133 25.2189 31.6393C25.0376 31.4369 24.8472 31.3947 24.6598 31.6212C24.5118 31.7994 24.3063 31.89 24.1098 31.9897C23.8107 32.1377 23.306 32.0169 23.1035 31.7602C22.8044 31.3856 22.8014 31.0412 23.0975 30.6969C23.2033 30.573 23.3151 30.4522 23.436 30.3495C23.7019 30.1229 23.6656 29.9145 23.4239 29.697C23.2395 29.5309 23.0643 29.3526 22.892 29.1684C22.4901 28.7394 22.3178 28.7485 21.9643 29.2258C21.922 29.2862 21.8827 29.3496 21.8283 29.401C20.3929 30.7905 19.0421 32.2616 17.5613 33.6028C17.4344 33.7176 17.377 33.8656 17.383 34.0378C17.4012 34.4969 17.4858 34.953 17.5432 35.4062C17.6097 35.9408 17.658 36.4815 17.5855 36.9951C17.4223 38.1399 17.0899 39.2485 16.5278 40.2725C15.8842 41.4506 15.0833 42.4958 13.9622 43.266C12.9015 43.994 11.7864 44.5982 10.484 44.7855C10.357 44.8036 10.073 44.6918 10.0307 44.9848H7.25655C7.30188 44.7915 7.14474 44.8429 7.05408 44.8247C6.63403 44.7341 6.217 44.6344 5.83322 44.432C5.39806 44.1995 5.25603 43.7675 5.49174 43.3386C5.58542 43.1664 5.69421 42.9912 5.83322 42.8552C6.84859 41.8493 7.83676 40.8132 8.87932 39.8315C9.06366 39.6593 9.33564 39.4962 9.33866 39.182C9.34168 38.7622 9.33261 38.3423 9.3175 37.9224C9.30844 37.6959 9.21174 37.5146 9.03646 37.3545C8.60433 36.9618 8.18126 36.557 7.7733 36.1402C7.38045 35.7384 5.9964 35.4938 5.51894 35.7656C5.49778 35.7777 5.47361 35.7868 5.45548 35.8019C4.74532 36.4997 4.03517 37.1974 3.32502 37.8922C2.80222 38.4057 2.35196 39.0008 1.74757 39.4267C1.33659 39.7137 0.883298 39.614 0.596214 39.2062C0.5116 39.0854 0.472315 38.9434 0.405833 38.8135C0.233583 38.4722 0.278912 38.0523 0.0099601 37.7502C-0.0111934 36.6628 -0.00817147 35.5753 0.115728 34.4909C0.215451 34.1918 0.321219 33.8928 0.411877 33.5907C0.973956 31.6695 2.13135 30.1864 3.74507 29.0325C5.10493 28.0598 6.63403 27.5614 8.28703 27.4556C8.58317 27.4375 8.8763 27.359 9.19058 27.4224C9.68316 27.5221 10.1908 27.5221 10.6804 27.655C10.8526 27.7003 11.0279 27.655 11.1941 27.513C11.8741 26.9361 12.4845 26.2836 13.1161 25.6553C14.4941 24.2899 15.8388 22.8853 17.2652 21.5683C17.4858 21.3629 17.51 21.2148 17.2712 20.9913C16.7031 20.4536 16.1531 19.8918 15.6031 19.3329C14.2221 17.9283 12.8048 16.5539 11.448 15.1251C9.98837 13.5876 8.46532 12.1074 6.92111 10.6514C6.75188 10.4913 6.58266 10.4218 6.35601 10.4249C5.84531 10.4339 5.32856 10.3977 4.82087 10.44C4.22857 10.4913 3.89314 10.1983 3.66045 9.71198C3.62721 9.64552 3.60606 9.57302 3.56677 9.50959C2.34893 7.56727 1.20362 5.57058 0.0280917 3.59503C0.0371575 3.37452 0.0462233 3.15401 0.0552891 2.9335C1.09181 2.02426 1.94702 0.924725 3.04096 0.0789253C3.31897 -0.0841931 3.59699 0.0517389 3.87501 0.0789253C3.93847 0.190692 4.03819 0.251106 4.15 0.314541C4.55494 0.547136 4.94779 0.797855 5.34669 1.03951C6.78815 1.90948 8.22659 2.78548 9.68014 3.63732C10.212 3.95148 10.5565 4.32303 10.487 4.99665C10.4417 5.42861 10.4991 5.87265 10.4719 6.30763C10.4507 6.63689 10.5656 6.86647 10.7952 7.09302C12.1219 8.40099 13.4394 9.72104 14.757 11.0411C16.7091 12.9955 18.6583 14.9529 20.6074 16.9073C21.0486 17.3504 21.4828 17.3383 21.9099 16.8711C21.928 16.8529 21.9431 16.8348 21.9613 16.8167C23.8046 14.9892 25.651 13.1647 27.4914 11.3341C27.6636 11.1619 27.7513 10.9807 27.6878 10.6786C27.5518 10.0322 27.3886 9.3797 27.431 8.7091C27.4551 8.33151 27.5488 7.95694 27.576 7.57935C27.6546 6.52513 28.0444 5.56152 28.5309 4.65228C29.093 3.60108 29.8243 2.66466 30.7853 1.92156C31.6314 1.26607 32.5531 0.770668 33.5685 0.423287C33.9916 0.278292 34.4267 0.359852 34.8377 0.229961C35.841 0.0698632 36.8412 -0.117421 37.8566 0.130277C38.0893 0.205795 38.3069 0.308499 38.5668 0.305479C38.7299 0.305479 38.8962 0.387038 39.0563 0.441411C39.7786 0.698171 39.9538 1.37783 39.4129 1.92458C38.319 3.0362 37.2069 4.1297 36.1039 5.23226C35.8047 5.52829 35.708 7.1051 35.9649 7.43436C35.9891 7.46457 36.0193 7.48571 36.0435 7.5129C36.3426 7.81497 36.6781 8.08683 36.9319 8.42213C37.4789 9.14408 38.1679 9.43407 39.0654 9.30116C39.3343 9.26189 39.5549 9.21054 39.7544 9.01117C40.8785 7.89653 42.0148 6.79095 43.148 5.68537C43.4049 5.43465 43.7222 5.29872 44.0606 5.43163C44.4263 5.57058 44.6197 5.86661 44.6952 6.27441C44.7617 6.63387 44.7799 7.0175 44.9793 7.34676V10.4974C44.9007 10.4974 44.8463 10.5094 44.8282 10.6122C44.7557 10.9837 44.6922 11.3583 44.5532 11.7147C44.1573 12.7327 43.6285 13.6631 42.9123 14.5028C42.048 15.5148 41.0085 16.2579 39.8088 16.8016C39.1137 17.1188 38.3854 17.3363 37.633 17.4541C36.7204 17.596 35.8077 17.593 34.8891 17.4752C34.5023 17.4269 34.0671 17.2124 33.7317 17.587C33.1122 18.2727 32.3779 18.8375 31.7342 19.5021C30.8216 20.4446 29.8606 21.3357 28.9691 22.2963C28.7787 22.4987 28.8362 22.6376 29.0084 22.7494C29.3136 22.9518 29.5584 23.2146 29.8001 23.4804C29.9694 23.6677 30.1265 23.6798 30.3018 23.4864C30.4257 23.3475 30.5617 23.2146 30.6946 23.0877C30.9727 22.8188 31.3141 22.8672 31.6103 22.9941C31.9004 23.1179 32.0636 23.3747 32.0877 23.7251C32.1119 24.0996 31.8853 24.3383 31.6707 24.5648C31.4622 24.7884 31.4139 24.9333 31.6798 25.1297C31.8581 25.2626 32.0152 25.4227 32.1784 25.5737C32.9399 26.2896 33.6531 27.0539 34.4751 27.7064C35.1762 28.2622 35.8591 28.8482 36.4605 29.5037C36.9349 30.0172 37.4426 30.5035 37.9775 30.9325C38.733 31.5427 39.4613 32.18 40.1231 32.8748C40.8513 33.6421 41.7035 34.2522 42.465 34.9712C43.2598 35.7203 44.106 36.4211 44.5623 37.4663C44.7285 37.8439 44.7285 38.2758 44.9823 38.6172V40.9401C44.8494 40.9039 44.8554 40.9945 44.8342 41.0851C44.6257 42.0427 44.0969 42.8341 43.42 43.4986C42.7219 44.1843 41.8546 44.6344 40.8816 44.8429C40.8 44.861 40.67 44.8247 40.7033 44.9879H40.4796C40.4041 44.8761 40.3285 44.8942 40.256 44.9879L40.259 44.9818ZM1.78383 36.8561C1.86542 36.8229 1.93191 36.8138 1.97119 36.7776C2.81733 35.9408 3.66045 35.1041 4.50659 34.2673C4.66373 34.1103 4.82994 33.9834 5.07169 33.9472C5.90272 33.8263 6.73678 33.8837 7.56781 33.9169C7.81258 33.926 8.07549 34.0136 8.30214 34.21C9.14828 34.9531 9.89771 35.7898 10.7046 36.5691C10.9131 36.7715 11.046 37.0132 11.0853 37.3092C11.179 37.9768 11.1669 38.6504 11.1488 39.318C11.1367 39.8315 10.9735 40.2937 10.5686 40.6682C9.94002 41.2512 9.3447 41.8705 8.73427 42.4716C8.57411 42.6287 8.39279 42.7586 8.23868 42.9187C8.13895 43.0214 8.04829 43.1785 8.31422 43.1785C9.01833 43.1785 9.72849 43.2449 10.4235 43.0576C11.9285 42.6528 13.2188 41.9007 14.207 40.6833C15.1196 39.5596 15.6847 38.2758 15.7965 36.8229C15.863 35.9438 15.7542 35.0709 15.5457 34.216C15.4097 33.6572 15.4732 33.2222 15.9355 32.7902C16.6064 32.1649 17.241 31.4974 17.8968 30.8509C19.0028 29.7544 20.0846 28.6307 21.1967 27.5432C22.6623 26.1084 24.0827 24.6313 25.5211 23.1662C26.8689 21.7918 28.2469 20.4476 29.637 19.1155C30.7611 18.034 31.843 16.9103 32.955 15.8168C33.2663 15.5117 33.6078 15.3456 34.0973 15.4997C35.1822 15.841 36.3033 15.9437 37.4245 15.7202C39.1198 15.3819 40.5673 14.6237 41.6824 13.2462C42.6977 11.9896 43.284 10.6031 43.2568 8.97492C43.2568 8.8118 43.2508 8.64869 43.2598 8.48859C43.2659 8.38891 43.3928 8.27714 43.2356 8.20162C43.0906 8.12912 43.0392 8.28016 42.9697 8.34964C42.2203 9.08065 41.4799 9.82072 40.7335 10.5548C40.3588 10.9233 39.9387 11.1468 39.3827 11.1075C38.8992 11.0713 38.4066 11.0773 37.9201 11.1075C37.3308 11.1408 36.8503 10.9354 36.4726 10.5034C35.8561 9.79958 35.1792 9.15012 34.5234 8.48557C34.2273 8.1835 34.0671 7.84216 34.0883 7.39207C34.1245 6.69429 34.1155 5.99348 34.0973 5.29268C34.0852 4.90904 34.2635 4.62812 34.5053 4.3774C35.2547 3.61014 36.0132 2.85496 36.7687 2.09676C36.8322 2.03333 36.9017 1.97291 36.8654 1.87323C36.8322 1.77959 36.7415 1.80677 36.672 1.80375C36.0858 1.77959 35.4935 1.77052 34.9253 1.89135C33.1061 2.28102 31.6375 3.23557 30.5375 4.73686C29.6642 5.93005 29.2804 7.30145 29.2471 8.75441C29.229 9.45522 29.3499 10.1681 29.5826 10.8508C29.7699 11.4036 29.5675 11.8748 29.084 12.2222C29.0235 12.2645 28.9631 12.3068 28.9117 12.3611C25.5302 15.7776 22.0912 19.1336 18.7399 22.5802C16.6245 24.7581 14.4457 26.8787 12.3001 29.0264C11.8317 29.4946 11.2999 29.6698 10.6562 29.4674C9.56832 29.1261 8.44417 29.1472 7.35023 29.3406C6.24118 29.5369 5.25301 30.0625 4.36154 30.7905C2.43053 32.3643 1.68411 34.4093 1.78081 36.8621L1.78383 36.8561ZM39.7816 43.1875C40.9601 43.2328 41.8576 42.7223 42.5557 41.8765C43.148 41.1576 43.423 40.2967 43.3142 39.3603C43.1601 38.0342 42.2807 37.1521 41.35 36.3154C40.6126 35.6539 39.8632 35.0044 39.1288 34.3368C38.6876 33.9351 38.2767 33.5001 37.8355 33.0953C37.3217 32.6271 36.7838 32.1891 36.2731 31.7209C35.3877 30.9053 34.5446 30.0384 33.6259 29.262C32.68 28.4615 31.7765 27.6157 30.8699 26.773C30.0812 26.0389 30.2111 26.0661 29.5221 26.7488C28.4705 27.794 27.4038 28.821 26.334 29.845C26.1285 30.0414 26.1436 30.1592 26.334 30.3555C27.0623 31.1047 27.7785 31.8659 28.4856 32.6331C29.5252 33.7629 30.5224 34.9289 31.5921 36.0314C32.5108 36.9769 33.3872 37.9556 34.2696 38.9343C35.2426 40.0188 36.255 41.064 37.2764 42.1031C37.9684 42.8039 38.7904 43.2509 39.7876 43.1815L39.7816 43.1875ZM6.06893 8.69098C6.29255 8.69098 6.52222 8.66983 6.74282 8.694C7.12963 8.73629 7.51039 8.79368 7.83071 9.07159C8.56504 9.70896 9.22382 10.4188 9.90074 11.1136C11.6111 12.8686 13.3639 14.5844 15.0954 16.3183C16.2649 17.4903 17.4344 18.6654 18.6009 19.8404C18.7218 19.9613 18.8124 19.9522 18.9514 19.8465C19.2868 19.5897 19.5437 19.2574 19.8308 18.9554C20 18.7802 19.9638 18.6382 19.7855 18.4871C19.5498 18.2878 19.3201 18.0824 19.1025 17.8649C17.5341 16.2911 15.9869 14.6931 14.3974 13.1405C12.5933 11.3794 10.8254 9.58511 9.06971 7.7757C8.71614 7.41019 8.61339 6.97521 8.69499 6.51606C8.75845 6.15358 8.73427 5.79713 8.74636 5.43767C8.75542 5.22924 8.66175 5.05706 8.47136 4.94529C6.91809 4.01189 5.36784 3.07547 3.80853 2.14509C3.63023 2.03937 3.43078 2.03937 3.26156 2.20551C2.91706 2.54987 2.57558 2.89725 2.22201 3.23255C2.04372 3.40171 2.04372 3.57389 2.16157 3.76419C3.00167 5.14466 3.87803 6.50096 4.66675 7.91163C5.00521 8.51275 5.35273 8.87524 6.06893 8.68493V8.69098ZM24.9499 28.7243C25.0738 28.6579 25.1705 28.5975 25.2612 28.5069C26.2826 27.4798 27.3101 26.4558 28.3345 25.4348C28.8785 24.8941 28.8845 24.8608 28.2529 24.3775C28.0233 24.1993 27.8873 23.8278 27.5609 23.864C27.2436 23.8972 27.0865 24.2416 26.8659 24.4531C25.9049 25.3683 24.959 26.2987 24.0071 27.223C23.8832 27.3439 23.7291 27.4526 23.9225 27.652C24.2247 27.9631 24.5148 28.2894 24.8109 28.6065C24.8502 28.6488 24.9016 28.6851 24.9469 28.7274L24.9499 28.7243Z" fill="#EBEBEB"/>
</svg>
