<svg xmlns="http://www.w3.org/2000/svg" width="60" height="38" viewBox="0 0 60 38" fill="none">
  <g clip-path="url(#clip0_4080_41541)">
    <path d="M60.0001 21.5933V21.7209C59.9822 21.7132 59.9516 21.6954 59.9439 21.703C59.7984 21.8204 59.9031 21.9785 59.875 22.1163C59.5788 23.5322 58.9072 24.7517 57.8014 25.6778C56.4021 26.8513 54.755 27.3539 52.924 27.16C52.3495 27.0988 51.7928 26.9406 51.2591 26.6931C50.6973 26.4329 50.1278 26.188 49.5583 25.9456C48.9838 25.7033 48.4143 25.4482 47.8449 25.1956C47.4618 25.0272 47.2167 24.4864 47.3392 24.1675C47.6099 23.4557 48.0211 23.4327 48.5624 23.5271C48.7131 23.5526 48.8612 23.6292 48.9965 23.7057C49.3694 23.9174 49.4741 23.8333 49.6452 23.4378C50.041 22.5168 50.4368 21.5984 50.8479 20.6851C51.1722 19.9657 51.5119 19.2513 51.8515 18.5395C51.9639 18.3074 51.9409 18.1441 51.7162 17.9757C51.3178 17.6798 51.1135 17.2257 50.8964 16.7996C50.7611 16.5368 50.6309 16.2843 50.4189 16.0725C48.542 14.2102 46.6702 12.3452 44.7984 10.4778C44.5839 10.266 44.3489 10.0645 44.1779 9.82211C43.9225 9.45984 43.7897 9.42413 43.4705 9.74047C42.9598 10.2456 42.4567 10.7584 41.9409 11.261C41.8106 11.386 41.7289 11.534 41.7111 11.6972C41.6344 12.3708 41.5349 13.0468 41.5195 13.7229C41.5017 14.501 41.2744 15.1235 40.6922 15.6899C38.9046 17.4272 37.1247 19.1748 35.4036 20.981C35.0333 21.3688 34.6094 21.5474 34.0655 21.5397C32.3495 21.5193 30.6334 21.5372 28.9174 21.5295C28.6748 21.5295 28.5216 21.6035 28.4194 21.828C28.0466 22.647 27.6661 23.4608 27.2805 24.2721C27.1937 24.4557 27.3137 24.4404 27.4184 24.443C27.8423 24.4481 28.2662 24.4277 28.6901 24.4506C29.3592 24.4889 29.9516 24.346 30.567 24.0374C31.6855 23.4761 32.9061 23.2975 34.1651 23.4251C35.2836 23.5373 36.3331 23.846 37.2958 24.4302C38.0415 24.8818 38.6824 25.4482 39.2366 26.1191C40.2325 27.3309 40.7815 28.7162 40.876 30.2776C40.9271 31.1271 40.8173 31.9614 40.5594 32.7752C40.1584 34.0278 39.4971 35.1223 38.5318 36.0203C37.4388 37.0357 36.1339 37.6378 34.6758 37.926C33.7974 38.0026 32.9215 38.0485 32.043 37.926C32.0098 37.8316 31.9307 37.824 31.8438 37.8061C30.8913 37.6276 30.0691 37.1632 29.2928 36.6147C28.0875 35.7601 27.2422 34.6222 26.7059 33.2523C26.6191 33.0278 26.4812 32.9283 26.2284 32.9283C22.3648 32.9334 18.5037 32.9334 14.6401 32.9283C14.4 32.9283 14.2698 33.0227 14.1855 33.2344C14.0374 33.6043 13.8791 33.9666 13.6671 34.3084C13.0619 35.2779 12.3418 36.13 11.3587 36.7525C10.5747 37.2474 9.76264 37.6429 8.84588 37.8087C8.76417 37.824 8.6799 37.8725 8.79737 37.9669C7.82699 37.9975 6.85661 38.0128 5.88623 37.9771C5.83516 37.9005 5.79941 37.824 5.68194 37.8061C4.90819 37.6837 4.22127 37.3214 3.56243 36.9362C1.72382 35.857 0.697264 34.1758 0.130359 32.1757C0.0920547 31.8057 0.0435358 31.4358 0.0154459 31.0659C-0.0305193 30.4255 0.0639648 29.7877 0.076733 29.1474C0.311667 28.8208 0.357632 28.4203 0.508296 28.0606C1.66253 25.3078 3.72076 23.7567 6.69318 23.4404C8.00063 23.3001 9.27745 23.5552 10.4496 24.119C11.0241 24.3945 11.5706 24.466 12.1682 24.4506C12.518 24.443 12.8678 24.4506 13.2151 24.4506C13.5701 24.4506 13.6365 24.3614 13.4909 24.0399C13.1641 23.323 12.8142 22.6163 12.5001 21.8944C12.375 21.6035 12.1911 21.5321 11.8924 21.5321C8.37602 21.5423 4.86223 21.5321 1.34589 21.5423C0.656406 21.5423 0.117591 21.1953 0.140574 20.356C0.163556 19.5881 0.145681 18.8176 0.145681 18.0472C0.145681 16.519 0.145681 14.9883 0.145681 13.4601C0.145681 13.029 0.219736 12.6565 0.556815 12.3197C1.34844 11.5263 2.13751 10.7278 2.9036 9.9114C3.3607 9.42413 3.88164 9.23789 4.53026 9.24554C5.9373 9.2634 7.34691 9.24554 8.75395 9.25575C9.00676 9.25575 9.11146 9.19452 9.10891 8.91899C9.09359 7.94954 9.11657 6.97753 9.09359 6.00808C9.08337 5.6203 9.05273 5.21466 8.69522 4.93403C8.46795 4.758 8.1896 4.7631 7.93424 4.69422C7.53587 4.58452 7.22944 4.13806 7.25498 3.68395C7.2754 3.34464 7.65845 2.94665 8.01851 2.92369C8.95824 2.86756 9.94139 3.34209 10.4751 4.17888C10.8581 4.78096 10.9067 5.45702 10.9322 6.12799C10.9705 7.07703 10.9526 8.02607 10.9348 8.97512C10.9296 9.2583 11.0114 9.33228 11.2897 9.32718C12.6227 9.31187 13.9582 9.31953 15.2912 9.31953C15.71 9.31953 15.7024 9.31953 15.71 8.90113C15.7483 7.08979 15.6155 5.27844 15.7739 3.46965C15.9169 1.83688 17.4159 0.313821 18.9685 0.130135C19.04 0.122482 19.1268 0.122482 19.0732 0.00512695H30.1304C30.0844 0.119931 30.1687 0.112277 30.2402 0.130135C30.5772 0.219427 30.8811 0.533224 30.8939 0.80365C30.9143 1.22205 30.7024 1.62258 30.3704 1.75524C30.2274 1.81392 30.064 1.80117 29.9107 1.82923C29.6835 1.8726 29.663 1.93893 29.7371 2.14558C29.8673 2.5155 29.9644 2.89818 30.0614 3.27831C30.2887 4.15081 30.516 5.02077 30.7305 5.89583C30.9628 6.84997 31.2693 7.78626 31.4787 8.74806C31.6166 9.38331 31.8106 10.0083 31.9817 10.6385C32.0022 10.7176 32.0328 10.8094 32.1273 10.8247C32.209 10.84 32.2473 10.7686 32.2933 10.7074C32.3801 10.59 32.4822 10.4829 32.5869 10.3783C35.207 7.7684 37.8321 5.16109 40.4496 2.54611C41.208 1.78841 42.1094 1.35981 43.187 1.40828C43.6544 1.42869 44.1038 1.60728 44.5558 1.75524C45.138 1.94148 45.5338 2.2961 45.9296 2.67878C47.1733 3.88549 48.3964 5.11516 49.6247 6.33974C51.2054 7.91382 52.7759 9.49556 54.3617 11.062C54.6809 11.3783 54.9439 11.7916 55.3678 11.9575C56.4072 12.3631 57.1656 13.0417 57.5869 14.0647C57.827 14.6439 57.9802 15.2485 57.85 15.8914C57.8091 16.0904 57.85 16.269 58.016 16.4323C59.0297 17.4298 59.6911 18.6161 59.8775 20.0396C59.8878 20.1085 59.8878 20.1978 60.0027 20.1391V21.5321C59.9874 21.5525 59.9746 21.5704 59.9593 21.5908C59.9746 21.5908 59.9874 21.5959 60.0027 21.5959L60.0001 21.5933ZM14.1702 11.1462C11.0369 11.1462 7.90104 11.1462 4.76774 11.1436C4.5277 11.1436 4.31575 11.1793 4.137 11.3528C3.53434 11.9447 2.91637 12.5238 2.32903 13.1285C2.18092 13.279 2.03026 13.4448 2.03281 13.7229C2.05069 15.6108 2.04813 17.5012 2.03792 19.3891C2.03792 19.6493 2.12219 19.708 2.36478 19.7054C8.05171 19.6978 13.7361 19.6978 19.423 19.6978C19.8009 19.6978 20.1789 19.6952 20.5594 19.7514C21.1441 19.8381 21.4889 20.4427 21.2386 20.9759C21.0497 21.3816 20.7126 21.5295 20.2963 21.5295C18.4654 21.5321 16.6319 21.5295 14.8009 21.5295C14.377 21.5295 14.3796 21.5295 14.5558 21.9046C14.898 22.6367 15.2606 23.3613 15.5645 24.1088C15.6819 24.3945 15.8326 24.4506 16.1033 24.4481C17.3316 24.4379 18.5599 24.4404 19.7882 24.4404C21.4812 24.4404 23.1768 24.4404 24.8699 24.4404C25.0512 24.4404 25.1687 24.4302 25.2759 24.2108C25.5543 23.6496 25.7994 23.0756 26.065 22.5092C26.7315 21.0805 27.3954 19.6519 28.0466 18.2181C28.6901 16.7996 29.3847 15.4041 29.972 13.9576C30.0946 13.654 29.972 13.6744 29.7652 13.6744C28.8433 13.6744 27.9215 13.654 27.0022 13.6846C26.4582 13.7025 26.0599 13.4729 25.7202 13.1029C25.2274 12.5672 24.7473 12.0212 24.2774 11.4651C24.0859 11.2355 23.8689 11.1385 23.5752 11.1411C20.4419 11.1462 17.306 11.1436 14.1727 11.1436L14.1702 11.1462ZM31.9307 19.6978C32.5129 19.6978 33.0951 19.6876 33.6773 19.7029C33.9761 19.7105 34.2008 19.6161 34.4026 19.3916C34.732 19.0243 35.0793 18.6696 35.4291 18.3201C36.0599 17.6849 36.6855 17.0471 37.3316 16.4297C37.9164 15.8735 38.4475 15.2613 39.0553 14.7281C39.2953 14.5163 39.589 14.3148 39.6298 13.9397C39.7039 13.256 39.7677 12.5697 39.7958 11.8835C39.8214 11.2023 39.9925 10.6079 40.5287 10.0976C41.8234 8.86797 43.067 7.58472 44.3311 6.32443C44.6962 5.95961 44.9031 5.53611 44.8801 5.00801C44.8495 4.3294 44.5992 3.78344 43.9659 3.4773C43.3505 3.17881 42.707 3.1533 42.135 3.54618C41.4914 3.99009 40.9705 4.58196 40.4164 5.12537C37.8321 7.66891 35.2734 10.2354 32.707 12.7968C32.6201 12.8835 32.5359 12.9728 32.472 13.0876C31.9179 14.0341 31.5093 15.0495 31.042 16.0368C30.7254 16.7078 30.4189 17.3838 30.1048 18.0574C29.875 18.5523 29.6579 19.0549 29.446 19.56C29.4026 19.6646 29.4256 19.7743 29.5915 19.7539C29.7677 19.7335 29.9439 19.7029 30.1201 19.7029C30.7228 19.6952 31.328 19.7029 31.9307 19.7029V19.6978ZM20.4828 31.0965C22.2933 31.0965 24.1038 31.0965 25.9143 31.1016C26.1339 31.1016 26.2259 31.0557 26.1952 30.8235C26.1697 30.6347 26.2003 30.4383 26.208 30.2521C26.2386 29.5811 26.4429 28.9331 26.6293 28.2902C26.8106 27.66 27.1528 27.0937 27.5308 26.5528C27.5767 26.4865 27.6636 26.4176 27.6278 26.3334C27.5869 26.239 27.4771 26.285 27.4005 26.285C23.1232 26.2901 18.8459 26.3028 14.5686 26.2977C14.2059 26.2977 13.8382 26.4202 13.4756 26.2799C13.4143 26.2569 13.2994 26.2645 13.2637 26.3054C13.1896 26.3921 13.3071 26.4508 13.3479 26.5146C13.4475 26.6727 13.5778 26.8156 13.6697 26.9789C14.3209 28.1397 14.6477 29.3923 14.6835 30.7138C14.6911 31.0353 14.7958 31.0991 15.0869 31.0991C16.8873 31.0888 18.6876 31.094 20.4879 31.094L20.4828 31.0965ZM22.4439 5.58713C22.4439 6.73772 22.4491 7.88576 22.4388 9.03635C22.4388 9.24809 22.5027 9.31698 22.7095 9.31443C23.1973 9.30677 23.685 9.29912 24.1702 9.32208C24.5405 9.33739 24.9312 9.35014 25.184 9.68945C25.7075 10.3885 26.3459 10.9855 26.8821 11.6717C26.9792 11.7942 27.0941 11.8529 27.2601 11.8554C28.2202 11.8707 29.1804 11.7814 30.138 11.9039C30.3244 11.9268 30.3857 11.8631 30.327 11.6462C30.0486 10.6436 29.7984 9.63332 29.5303 8.62815C29.2698 7.6485 28.9965 6.67139 28.7361 5.68918C28.4143 4.49012 28.0977 3.29106 27.7836 2.08945C27.758 1.99251 27.7606 1.88791 27.6252 1.90576C27.3801 1.93893 27.1503 1.83943 26.9077 1.84198C25.5313 1.84709 24.1549 1.84964 22.7785 1.83433C22.5129 1.83178 22.4312 1.90321 22.4363 2.17109C22.4491 3.31147 22.4414 4.4493 22.4414 5.58969L22.4439 5.58713ZM7.26519 36.1632C10.3781 36.1453 12.7683 33.8059 12.8168 30.8235C12.8678 27.6651 10.5619 25.5017 7.84997 25.2747C4.30809 24.9762 1.99706 27.6983 1.85916 30.2801C1.68041 33.589 4.29277 36.1504 7.26519 36.1657V36.1632ZM33.5216 25.2696C30.7024 25.142 28.0006 27.6958 28.0875 30.7725C28.1692 33.7344 30.613 36.1861 33.6084 36.1657C36.4659 36.1453 39.1651 33.7064 39.0323 30.4459C38.9225 27.7417 36.614 25.1981 33.519 25.2696H33.5216ZM58.1717 21.1264C58.1283 20.8126 58.0926 20.4912 58.0338 20.1749C57.8908 19.4018 57.5563 18.7181 57.0456 18.1211C56.946 18.0063 56.8515 17.9221 56.7085 18.0676C56.397 18.3916 56.0088 18.6084 55.59 18.7538C55.0231 18.9528 54.4434 19.134 53.8229 19.0039C53.6671 18.9707 53.5854 19.0574 53.5292 19.1824C52.7989 20.8331 52.0686 22.4811 51.3433 24.1317C51.1288 24.619 51.1339 24.6318 51.6293 24.8741C52.7299 25.4124 53.8714 25.5298 55.0512 25.1624C55.9322 24.8895 56.6319 24.3614 57.2065 23.6572C57.804 22.9225 58.0721 22.0602 58.1692 21.1239L58.1717 21.1264ZM46.7187 6.08207C46.568 6.08207 46.5093 6.12033 46.4787 6.25044C46.3433 6.81681 46.0011 7.24541 45.5849 7.63064C45.4547 7.7531 45.35 7.90362 45.2172 8.01842C45.0691 8.14598 45.1099 8.27099 45.2223 8.36283C45.9603 8.96491 46.5987 9.66904 47.2754 10.3324C48.4118 11.4498 49.5303 12.5851 50.659 13.7127C50.7713 13.8249 50.9016 14.0137 51.042 13.7407C51.3765 13.0876 51.8566 12.58 52.5154 12.2457C52.7478 12.1258 52.7197 12.011 52.5512 11.8478C52.1043 11.4141 51.6727 10.9625 51.2259 10.5313C50.5032 9.83487 49.7397 9.18176 49.0553 8.45212C48.4322 7.78881 47.8014 7.13571 47.1605 6.49026C47.0124 6.33974 46.8515 6.20197 46.7264 6.08462L46.7187 6.08207ZM20.5389 5.86266H20.5364C20.5364 5.52591 20.5415 5.1866 20.5364 4.84984C20.5211 3.93651 20.5875 3.02064 20.4751 2.10986C20.4649 2.02312 20.5057 1.90321 20.35 1.90576C19.9695 1.91087 19.5711 1.84454 19.2136 1.93893C18.1283 2.22977 17.5946 3.03339 17.5665 4.03601C17.518 5.70194 17.5563 7.36787 17.5461 9.03379C17.5461 9.2583 17.6176 9.32463 17.8372 9.32208C18.6314 9.31187 19.4256 9.30932 20.2197 9.31953C20.4649 9.32208 20.5517 9.24554 20.5492 8.99298C20.5364 7.94954 20.544 6.90355 20.544 5.86011L20.5389 5.86266ZM55.996 15.4296C56.0905 14.524 55.1916 13.5826 54.1115 13.6744C53.2407 13.7458 52.4644 14.4551 52.4439 15.4296C52.4261 16.2664 53.2815 17.2588 54.1983 17.2359C55.0997 17.2129 56.0599 16.5011 55.9986 15.4322L55.996 15.4296Z" fill="white"/>
    <path d="M5.40581 15.4909C5.439 15.1158 5.34196 14.649 5.46965 14.1974C5.58201 13.802 5.95739 13.5214 6.29447 13.552C6.86137 13.6055 7.12695 13.8275 7.19079 14.325C7.29804 15.1694 7.32613 16.0164 7.19334 16.8583C7.10907 17.3864 6.51919 17.6925 6.01868 17.491C5.63563 17.3354 5.39559 17.0854 5.40325 16.6466C5.41091 16.2894 5.40325 15.9297 5.40325 15.4883L5.40581 15.4909Z" fill="white"/>
    <path d="M14.5608 14.4397C14.6859 15.0775 14.6247 15.7613 14.64 16.445C14.6451 16.695 14.6119 16.9501 14.4689 17.1593C14.2365 17.4986 13.8484 17.6211 13.4653 17.5088C13.0389 17.3838 12.7988 17.1057 12.7835 16.6261C12.7631 15.9934 12.7835 15.3607 12.7835 14.728C12.7835 14.552 12.7912 14.3785 12.8422 14.2025C12.9571 13.8019 13.3734 13.4881 13.759 13.5621C14.2569 13.6565 14.594 13.9321 14.5583 14.4423L14.5608 14.4397Z" fill="white"/>
    <path d="M10.9396 15.6183C10.8911 16.0112 11.0264 16.4934 10.8247 16.9628C10.674 17.3098 10.4161 17.4909 10.0663 17.5317C9.72919 17.57 9.44574 17.422 9.28231 17.1159C9.07036 16.723 8.98609 16.3123 9.07036 15.853C9.13164 15.5265 9.09334 15.1821 9.09845 14.8453C9.101 14.6872 9.08568 14.5264 9.10866 14.3708C9.18527 13.8606 9.56321 13.5315 10.0126 13.5595C10.5387 13.5927 10.9115 13.9575 10.9371 14.4882C10.9549 14.8351 10.9396 15.1846 10.9396 15.6132V15.6183Z" fill="white"/>
    <path d="M3.69228 30.6831C3.72292 28.7085 5.24233 27.2084 6.98646 27.0987C9.57328 26.938 10.8246 28.8259 10.9369 30.4178C11.1003 32.6858 9.22599 34.3186 7.2648 34.3109C5.43385 34.3058 3.66419 32.5889 3.68973 30.6831H3.69228ZM9.09575 30.7061C9.09575 29.4968 8.23773 28.8973 7.30311 28.905C6.28932 28.9152 5.56919 29.6984 5.54877 30.6831C5.52834 31.65 6.40678 32.497 7.30821 32.4894C8.11516 32.4817 9.15959 31.8133 9.09831 30.7061H9.09575Z" fill="white"/>
    <path d="M29.9365 30.7189C29.8675 28.757 31.4891 27.234 33.1464 27.1038C35.6438 26.9048 37.1862 28.808 37.1785 30.673C37.1709 32.6731 35.6234 34.2319 33.5524 34.3161C31.7955 34.3875 29.8164 32.6068 29.939 30.7189H29.9365ZM31.7853 30.6321C31.7776 31.7266 32.5871 32.4486 33.5345 32.469C34.51 32.4894 35.3093 31.8082 35.3323 30.7546C35.3553 29.6117 34.607 28.9535 33.5728 28.9177C32.6433 28.8846 31.8389 29.5479 31.7878 30.6347L31.7853 30.6321Z" fill="white"/>
  </g>
  <defs>
    <clipPath id="clip0_4080_41541">
      <rect width="60" height="38" fill="white"/>
    </clipPath>
  </defs>
</svg>