<svg width="27" height="27" viewBox="0 0 27 27" fill="none" xmlns="http://www.w3.org/2000/svg">
<path d="M14.469 0C15.1151 0.0887446 15.7661 0.152134 16.4063 0.27046C18.2622 0.613289 19.9597 1.33804 21.5171 2.3792C22.0188 2.71463 22.1427 3.33637 21.8269 3.82077C21.5138 4.30094 20.8753 4.46311 20.3639 4.143C19.4009 3.5408 18.4093 2.99988 17.3127 2.67343C13.6154 1.57416 10.1504 2.05063 6.98447 4.24337C4.69152 5.83126 3.16325 7.98015 2.47509 10.6557C1.63551 13.9197 2.13937 17.0041 4.05725 19.7964C6.01448 22.6462 8.76332 24.3419 12.2623 24.7904C14.7762 25.1126 17.1446 24.6414 19.3664 23.4486C19.5 23.3768 19.631 23.3007 19.7668 23.2342C20.3143 22.9653 20.9232 23.1322 21.2131 23.6282C21.5106 24.1364 21.3613 24.7777 20.8063 25.0598C19.9662 25.4871 19.118 25.9161 18.2337 26.2388C16.6488 26.8167 14.9901 27.055 13.2991 26.9895C9.32592 26.8357 6.00047 25.3012 3.36263 22.3869C1.47762 20.3061 0.380991 17.8625 0.0468829 15.0945C0.0420329 15.0538 0.0161665 15.0158 0 14.9767C0 13.9926 0 13.008 0 12.0238C0.0630494 11.672 0.12071 11.3192 0.189687 10.9689C0.718332 8.28124 1.96261 5.95751 3.92523 4.01569C5.98214 1.97826 8.45454 0.696222 11.343 0.208127C11.8619 0.120439 12.3868 0.0686714 12.909 0C13.429 0 13.949 0 14.469 0Z" fill="#DADADA"/>
<path d="M26.9995 12.987C26.9484 15.8875 26.2346 18.2677 24.8854 20.4445C24.5423 20.9977 23.9755 21.1556 23.4599 20.8372C22.9859 20.5444 22.851 19.9007 23.184 19.3532C23.8637 18.2368 24.3888 17.0535 24.6873 15.7657C25.1021 13.9748 25.0915 12.1844 24.6762 10.3951C24.5865 10.0092 24.6181 9.64681 24.8864 9.34563C25.1427 9.05804 25.4642 8.93986 25.8384 9.02928C26.2422 9.12549 26.4965 9.3953 26.5968 9.80838C26.8736 10.9514 27.0091 12.1133 26.9995 12.987Z" fill="#DADADA"/>
<path d="M23.5295 4.69257L14.2758 15.0949L9.32609 10.8357C9.32609 10.8357 8.81287 10.4195 8.25008 10.8357C7.68728 11.2519 8.25008 11.876 8.25008 11.876L12.9845 16.2449L10.8325 18.4236C10.8325 18.4236 10.0548 19.3279 10.8325 19.8684C11.5613 20.3749 12.3389 19.2558 12.3389 19.2558L14.2758 16.8691L17.2886 19.2558C17.2886 19.2558 18.1234 19.9023 18.663 19.3657C19.2025 18.8292 18.5798 18.1173 18.5798 18.1173L15.6501 15.8289L24.8207 5.31671C24.8207 5.31671 25.2241 4.36092 24.8207 4.06843C24.3697 3.74142 23.5295 4.69257 23.5295 4.69257Z" fill="#DADADA" stroke="#DADADA"/>
</svg>
