<svg width="460" height="174" viewBox="0 0 460 174" fill="none" xmlns="http://www.w3.org/2000/svg">
<path d="M126.858 171.433C121.141 171.433 115.298 171.331 114.149 171.305C113.156 171.338 112.169 171.124 111.277 170.684C110.877 170.398 110.541 170.03 110.292 169.605C110.042 169.181 109.884 168.708 109.829 168.219C109.32 165.837 109.717 20.8752 109.722 19.4121C109.715 19.3186 109.729 19.2247 109.762 19.1369C109.795 19.0491 109.846 18.9694 109.912 18.9032C110.782 17.9465 114.526 17.4631 121.035 17.4631C126.86 17.4631 132.82 17.8651 132.879 17.8702L135.73 25.1779L135.766 25.1627C136.884 24.7174 142.85 22.379 150.589 20.089C159.847 17.1332 169.456 15.422 179.165 15C179.559 15 179.952 15 180.336 15.0153C184.643 15.098 188.854 16.3048 192.551 18.5165C195.811 20.5093 198.667 23.0989 200.969 26.1499C204.334 30.4353 206.732 35.3986 207.999 40.6993C208.376 42.9003 209.27 52.0834 209.662 63.3453C210.215 76.0548 209.697 88.7883 208.114 101.411C207.469 106.402 206.091 111.27 204.024 115.858C202.547 119.07 200.476 121.973 197.919 124.413C194.246 127.635 189.824 129.883 185.059 130.952L184.982 130.975L184.555 131.097C181.526 131.957 160.186 132.087 147.737 132.087C143.345 132.087 140.265 132.069 140.237 132.069C140.237 132.349 140.351 165.374 140.407 167.074C140.48 167.808 140.367 168.549 140.077 169.228C139.788 169.907 139.332 170.501 138.752 170.957C134.809 171.459 130.829 171.618 126.858 171.433ZM168.139 44.544C161.058 44.544 144.669 46.4702 140.865 49.1038L140.75 103.922C140.829 103.922 153.298 104.228 162.069 104.228C164.892 104.348 167.719 104.246 170.526 103.922C171.863 103.385 173.02 102.479 173.863 101.309C175.254 99.2553 176.211 96.938 176.674 94.5C178.128 88.1667 177.22 54.7881 176.958 51.4981C176.637 49.9251 175.895 48.4689 174.812 47.2843C173.73 46.0996 172.347 45.2309 170.81 44.7705C169.934 44.581 169.037 44.5074 168.141 44.5517L168.139 44.544Z" fill="white" fill-opacity="0.05"/>
<path d="M67.5788 139.776C67.5788 139.776 67.5788 53.3805 67.9779 52.4085C68.172 52.0143 68.4725 51.6823 68.8453 51.4503C69.2181 51.2182 69.6484 51.0953 70.0874 51.0955C71.1041 50.925 96.6679 50.8105 97.466 50.925C97.8669 50.9876 98.2375 51.1761 98.5244 51.4633C98.8113 51.7505 98.9996 52.1216 99.0621 52.523C99.1765 53.5408 99.4053 167.071 99.1765 168.043C99.1107 168.629 98.8764 169.184 98.502 169.64C98.1276 170.097 97.6291 170.434 97.0669 170.613C90.005 171.204 82.9045 171.165 75.8493 170.498C74.8784 169.814 73.1679 162.676 73.1679 162.676C70.8804 166.389 42.9935 174.269 29.9905 173.068C14.761 171.638 1.7554 165.47 0.787034 144.058C-0.181332 122.646 -0.183873 83.0721 0.387996 81.5301C0.597915 80.9698 0.98418 80.493 1.48851 80.1717C1.99283 79.8504 2.58786 79.702 3.1838 79.749C4.325 79.749 29.1365 79.464 30.0489 79.805C30.5858 80.0793 31.0449 80.4848 31.3839 80.9837C31.7228 81.4827 31.9307 82.0592 31.9882 82.6599C31.9882 83.9168 31.8738 136.165 31.8738 140.219C31.9298 145.201 62.4447 147.827 67.5788 139.776Z" fill="white" fill-opacity="0.05"/>
<path d="M274.788 129.294V126.622H271.052V105.325H274.788V102.653H264.113V105.325H267.85V126.622H264.113V129.294H274.788ZM283.366 129.294V115.63C283.366 113.111 285.73 111.89 288.17 111.89C291.106 111.89 292.631 113.671 292.631 117.195V129.294H295.68V116.661C295.68 111.89 293.126 109.142 289.072 109.142C287.874 109.072 286.686 109.391 285.683 110.051C284.68 110.711 283.917 111.677 283.506 112.806H283.354V109.6H280.304V129.294H283.366ZM303.039 129.294H306.089V112.271H310.32V109.6H306.089V103.722H310.32V101.05H307.347C306.747 101.01 306.146 101.103 305.587 101.322C305.027 101.542 304.523 101.883 304.111 102.321C303.7 102.759 303.39 103.283 303.204 103.855C303.019 104.427 302.962 105.034 303.039 105.63V109.6H299.836V112.271H303.039V129.294ZM321.605 129.752C326.866 129.752 330.488 125.706 330.488 119.447C330.488 113.188 326.866 109.142 321.605 109.142C316.344 109.142 312.709 113.188 312.709 119.447C312.709 125.706 316.344 129.752 321.605 129.752ZM321.605 127.042C320.81 127.078 320.017 126.938 319.282 126.631C318.547 126.325 317.889 125.86 317.355 125.269C316.821 124.678 316.424 123.977 316.192 123.214C315.96 122.452 315.899 121.648 316.014 120.859V118.035C315.939 117.253 316.029 116.464 316.276 115.719C316.524 114.974 316.925 114.289 317.452 113.708C317.98 113.127 318.623 112.663 319.341 112.346C320.058 112.028 320.834 111.864 321.618 111.864C322.402 111.864 323.178 112.028 323.895 112.346C324.613 112.663 325.256 113.127 325.783 113.708C326.311 114.289 326.712 114.974 326.959 115.719C327.207 116.464 327.297 117.253 327.222 118.035V120.859C327.337 121.65 327.276 122.456 327.043 123.221C326.809 123.985 326.41 124.688 325.873 125.279C325.336 125.87 324.674 126.335 323.937 126.64C323.199 126.945 322.402 127.082 321.605 127.042ZM338.571 129.294V115.936C338.571 114.065 340.553 112.653 343.832 112.653H345.624V109.6H344.429C343.221 109.517 342.018 109.824 340.998 110.477C339.978 111.13 339.193 112.093 338.761 113.226H338.571V109.6H335.521V129.294H338.571ZM352.55 129.294V115.63C352.55 113.111 354.837 111.89 357.239 111.89C360.136 111.89 361.471 113.671 361.471 117.195V129.294H364.521V115.63C364.521 113.111 366.732 111.89 369.134 111.89C372.108 111.89 373.442 113.722 373.442 117.195V129.294H376.492V116.661C376.492 111.89 374.09 109.142 370.087 109.142C368.787 109.054 367.495 109.4 366.413 110.125C365.33 110.85 364.517 111.913 364.101 113.149H364.025C363.586 111.921 362.762 110.868 361.677 110.146C360.592 109.424 359.303 109.072 358.002 109.142C356.841 109.087 355.694 109.416 354.739 110.078C353.784 110.74 353.072 111.699 352.715 112.806H352.562V109.6H349.512V129.294H352.55ZM398.808 129.294V126.622H396.558V115.783C396.558 111.623 393.737 109.142 389.01 109.142C387.602 109.06 386.2 109.379 384.965 110.061C383.731 110.743 382.714 111.761 382.033 112.997L383.863 114.714C384.339 113.807 385.059 113.051 385.941 112.532C386.824 112.012 387.834 111.75 388.857 111.775C391.983 111.775 393.508 113.302 393.508 116.088V118.035H389.62C383.901 118.035 381.232 120.096 381.232 123.798C381.203 124.646 381.359 125.49 381.69 126.271C382.022 127.051 382.52 127.75 383.149 128.318C383.779 128.885 384.526 129.308 385.336 129.555C386.146 129.803 387.001 129.87 387.84 129.752C389.058 129.851 390.274 129.546 391.301 128.884C392.328 128.222 393.108 127.239 393.521 126.088H393.712C393.707 126.526 393.793 126.959 393.964 127.362C394.134 127.765 394.386 128.128 394.703 128.429C395.021 128.73 395.397 128.962 395.808 129.111C396.219 129.26 396.656 129.322 397.092 129.294H398.808ZM388.323 127.157C385.96 127.157 384.435 126.05 384.435 124.103V123.302C384.435 121.393 385.998 120.325 389.467 120.325H393.508V123.569C393.508 125.592 391.335 127.157 388.323 127.157ZM410.474 109.142C404.946 109.142 401.705 113.149 401.705 119.447C401.705 125.299 404.488 129.218 409.406 129.714L408.911 132.233L409.978 132.386C412.113 132.691 412.571 133.264 412.571 133.951C412.571 134.752 411.846 135.134 410.893 135.134C410.449 135.147 410.009 135.057 409.605 134.872C409.202 134.686 408.847 134.41 408.567 134.065L407.119 135.63C407.58 136.17 408.163 136.593 408.818 136.865C409.474 137.137 410.185 137.25 410.893 137.195C413.142 137.195 415.125 136.202 415.125 134.027C415.146 133.684 415.092 133.341 414.968 133.02C414.844 132.7 414.653 132.411 414.406 132.171C414.16 131.932 413.865 131.749 413.542 131.635C413.218 131.52 412.874 131.477 412.532 131.508C412.028 131.512 411.528 131.589 411.046 131.737L410.931 131.622L411.312 129.714C412.754 129.663 414.151 129.201 415.339 128.383C416.527 127.565 417.458 126.425 418.022 125.096L415.811 123.607C415.378 124.657 414.635 125.549 413.681 126.163C412.727 126.777 411.607 127.084 410.474 127.042C409.707 127.078 408.941 126.946 408.23 126.656C407.519 126.365 406.88 125.923 406.358 125.359C405.835 124.796 405.441 124.126 405.204 123.395C404.967 122.664 404.892 121.889 404.984 121.126V117.768C404.892 117.004 404.967 116.23 405.204 115.499C405.441 114.768 405.835 114.098 406.358 113.535C406.88 112.971 407.519 112.529 408.23 112.238C408.941 111.948 409.707 111.816 410.474 111.852C411.515 111.782 412.551 112.058 413.419 112.638C414.288 113.218 414.941 114.068 415.277 115.058L417.819 113.722C417.23 112.283 416.204 111.066 414.885 110.244C413.567 109.422 412.023 109.036 410.474 109.142ZM431.48 105.936C432.207 105.932 432.921 105.743 433.554 105.387C434.188 105.031 434.72 104.519 435.102 103.9L433.831 102.373C433.253 102.987 432.462 103.355 431.62 103.404C430.671 103.314 429.756 103 428.951 102.488C428.041 101.893 426.988 101.55 425.901 101.496C425.175 101.5 424.461 101.689 423.828 102.045C423.194 102.401 422.661 102.912 422.28 103.531L423.55 105.058C424.129 104.445 424.92 104.076 425.762 104.027C426.711 104.118 427.625 104.432 428.43 104.943C429.341 105.539 430.394 105.881 431.48 105.936ZM438.343 129.294V126.622H436.093V115.783C436.093 111.623 433.272 109.142 428.545 109.142C427.137 109.06 425.735 109.379 424.501 110.061C423.266 110.743 422.25 111.761 421.568 112.997L423.398 114.714C423.874 113.807 424.594 113.051 425.476 112.532C426.359 112.012 427.369 111.75 428.392 111.775C431.518 111.775 433.043 113.302 433.043 116.088V118.035H429.155C423.436 118.035 420.767 120.096 420.767 123.798C420.738 124.645 420.894 125.487 421.225 126.267C421.555 127.047 422.052 127.745 422.681 128.312C423.309 128.879 424.054 129.302 424.863 129.551C425.671 129.8 426.525 129.868 427.363 129.752C428.58 129.851 429.797 129.546 430.824 128.884C431.85 128.222 432.631 127.239 433.043 126.088H433.234C433.23 126.527 433.316 126.962 433.487 127.365C433.659 127.769 433.912 128.133 434.23 128.434C434.549 128.735 434.926 128.967 435.339 129.115C435.751 129.263 436.19 129.324 436.627 129.294H438.343ZM427.859 127.157C425.495 127.157 423.97 126.05 423.97 124.103V123.302C423.97 121.393 425.533 120.325 429.002 120.325H433.043V123.569C433.043 125.592 430.87 127.157 427.859 127.157ZM450.123 129.752C455.385 129.752 459.019 125.706 459.019 119.447C459.019 113.188 455.397 109.142 450.123 109.142C444.849 109.142 441.24 113.188 441.24 119.447C441.24 125.706 444.862 129.752 450.123 129.752ZM450.123 127.042C449.328 127.078 448.535 126.938 447.8 126.631C447.065 126.325 446.407 125.86 445.873 125.269C445.339 124.678 444.942 123.977 444.71 123.214C444.478 122.452 444.417 121.648 444.532 120.859V118.035C444.457 117.253 444.547 116.464 444.795 115.719C445.042 114.974 445.443 114.289 445.971 113.708C446.498 113.127 447.141 112.663 447.859 112.346C448.576 112.028 449.352 111.864 450.136 111.864C450.92 111.864 451.696 112.028 452.413 112.346C453.131 112.663 453.774 113.127 454.301 113.708C454.829 114.289 455.23 114.974 455.477 115.719C455.725 116.464 455.815 117.253 455.74 118.035V120.859C455.855 121.65 455.794 122.456 455.561 123.221C455.328 123.985 454.928 124.688 454.391 125.279C453.854 125.87 453.193 126.335 452.455 126.64C451.717 126.945 450.921 127.082 450.123 127.042ZM272.463 173.008C274.055 173.09 275.637 172.708 277.017 171.909C278.397 171.109 279.517 169.927 280.24 168.505L278.067 166.953C277.605 167.993 276.842 168.871 275.877 169.474C274.913 170.077 273.79 170.378 272.653 170.337C271.866 170.377 271.079 170.251 270.345 169.964C269.61 169.678 268.945 169.239 268.392 168.676C267.84 168.114 267.413 167.44 267.14 166.7C266.866 165.96 266.753 165.17 266.807 164.383V163.467H280.964V162.016C280.964 156.444 277.724 152.398 272.463 152.398C267.125 152.398 263.618 156.444 263.618 162.703C263.618 168.963 267.125 173.008 272.463 173.008ZM272.463 154.943C273.199 154.94 273.928 155.092 274.601 155.391C275.274 155.689 275.877 156.126 276.37 156.674C276.863 157.222 277.235 157.867 277.462 158.568C277.688 159.27 277.765 160.011 277.686 160.744V161.164H266.82V160.909C266.771 160.141 266.881 159.37 267.143 158.646C267.406 157.921 267.814 157.259 268.344 156.7C268.874 156.141 269.513 155.698 270.221 155.397C270.93 155.097 271.693 154.947 272.463 154.955V154.943ZM289.047 172.55V158.886C289.047 156.367 291.334 155.146 293.736 155.146C296.634 155.146 297.968 156.927 297.968 160.451V172.55H301.018V158.886C301.018 156.367 303.229 155.146 305.631 155.146C308.605 155.146 309.939 156.978 309.939 160.451V172.55H312.989V159.917C312.989 155.146 310.587 152.398 306.584 152.398C305.284 152.311 303.992 152.657 302.91 153.381C301.827 154.106 301.014 155.17 300.599 156.406H300.522C300.083 155.178 299.259 154.124 298.174 153.402C297.089 152.68 295.8 152.328 294.499 152.398C293.336 152.34 292.186 152.668 291.228 153.331C290.27 153.993 289.557 154.953 289.199 156.062H289.047V152.856H285.997V172.55H289.047ZM348.597 172.55L339.295 145.91H335.228L325.913 172.55H329.154L331.823 164.688H342.574L345.242 172.55H348.597ZM341.773 161.864H332.585L337.084 148.887H337.274L341.773 161.864ZM358.662 172.55V169.879H355.765V144.307H352.715V169.382C352.687 169.812 352.753 170.243 352.907 170.645C353.061 171.047 353.3 171.411 353.608 171.712C353.916 172.013 354.285 172.244 354.69 172.388C355.095 172.533 355.527 172.588 355.955 172.55H358.662ZM371.053 172.55V169.879H367.05V155.528H371.371V152.856H367.05V147.398H364.305V151.062C364.305 152.398 363.885 152.843 362.589 152.843H360.759V155.515H364V169.293C363.962 169.73 364.02 170.169 364.169 170.58C364.319 170.992 364.556 171.365 364.864 171.676C365.173 171.986 365.545 172.225 365.956 172.376C366.366 172.527 366.805 172.586 367.24 172.55H371.053ZM392.288 172.55V169.879H390.039V159.039C390.039 154.879 387.218 152.398 382.49 152.398C381.083 152.317 379.681 152.635 378.446 153.318C377.212 154 376.195 155.017 375.513 156.253L377.343 157.97C377.819 157.063 378.539 156.307 379.422 155.788C380.304 155.269 381.314 155.007 382.338 155.032C385.464 155.032 386.989 156.558 386.989 159.345V161.291H383.1C377.382 161.291 374.713 163.352 374.713 167.054C374.683 167.902 374.84 168.746 375.171 169.527C375.502 170.308 376 171.006 376.63 171.574C377.26 172.141 378.006 172.564 378.817 172.812C379.627 173.06 380.482 173.127 381.321 173.008C382.539 173.108 383.755 172.803 384.782 172.14C385.809 171.478 386.589 170.495 387.002 169.344H387.192C387.188 169.782 387.274 170.216 387.444 170.618C387.615 171.021 387.867 171.384 388.184 171.685C388.501 171.986 388.877 172.218 389.288 172.367C389.699 172.516 390.136 172.578 390.573 172.55H392.288ZM381.804 170.413C379.44 170.413 377.915 169.306 377.915 167.36V166.558C377.915 164.65 379.478 163.581 382.948 163.581H386.989V166.825C386.989 168.848 384.816 170.413 381.804 170.413Z" fill="white" fill-opacity="0.05"/>
<path d="M94.3811 30.2921H69.1579C68.5858 30.2914 68.0373 30.0636 67.6328 29.6586C67.2282 29.2537 67.0007 28.7046 67 28.1318V2.16027C67.0007 1.58754 67.2282 1.03846 67.6328 0.633472C68.0373 0.228489 68.5858 0.000673407 69.1579 0L94.3811 0C94.9532 0.000673407 95.5017 0.228489 95.9062 0.633472C96.3107 1.03846 96.5383 1.58754 96.539 2.16027V28.0784C96.5398 28.6566 96.3144 29.2121 95.911 29.6259C95.5077 30.0396 94.9585 30.2788 94.3811 30.2921Z" fill="white" fill-opacity="0.05"/>
</svg>
