<svg width="633" height="125" viewBox="0 0 633 125" fill="none" xmlns="http://www.w3.org/2000/svg">
<rect x="641.922" y="60.8896" width="21.6141" height="59.8894" rx="1" transform="rotate(-180 641.922 60.8896)" fill="#004042" fill-opacity="0.1"/>
<rect x="600.859" y="102.268" width="21.6141" height="101.268" rx="1" transform="rotate(-180 600.859 102.268)" fill="#004042" fill-opacity="0.1"/>
<rect x="559.809" y="102.268" width="21.6141" height="101.268" rx="1" transform="rotate(-180 559.809 102.268)" fill="#004042" fill-opacity="0.1"/>
<rect x="518.742" y="79.4062" width="21.6141" height="78.4007" rx="1" transform="rotate(-180 518.742 79.4062)" fill="#004042" fill-opacity="0.1"/>
<rect x="477.656" y="124.047" width="21.6141" height="123.045" rx="1" transform="rotate(-180 477.656 124.047)" fill="#004042" fill-opacity="0.1"/>
<rect x="436.582" y="40.209" width="21.6141" height="39.2003" rx="1" transform="rotate(-180 436.582 40.209)" fill="#004042" fill-opacity="0.1"/>
<rect x="641.922" y="124.047" width="21.6141" height="21.778" rx="1" transform="rotate(-180 641.922 124.047)" fill="#004042" fill-opacity="0.1"/>
<rect x="144.812" y="124.047" width="21.6141" height="21.778" rx="1" transform="rotate(-180 144.812 124.047)" fill="#004042" fill-opacity="0.1"/>
<rect x="395.539" y="60.8896" width="21.6141" height="59.8894" rx="1" transform="rotate(-180 395.539 60.8896)" fill="#004042" fill-opacity="0.1"/>
<rect x="352.305" y="102.268" width="21.6141" height="101.268" rx="1" transform="rotate(-180 352.305 102.268)" fill="#004042" fill-opacity="0.1"/>
<rect x="309.066" y="102.268" width="21.6141" height="101.268" rx="1" transform="rotate(-180 309.066 102.268)" fill="#004042" fill-opacity="0.1"/>
<rect x="226.949" y="124.047" width="21.6141" height="123.045" rx="1" transform="rotate(-180 226.949 124.047)" fill="#004042" fill-opacity="0.1"/>
<rect x="185.887" y="40.209" width="21.6141" height="39.2003" rx="1" transform="rotate(-180 185.887 40.209)" fill="#004042" fill-opacity="0.1"/>
<rect x="144.812" y="60.8896" width="21.6141" height="59.8894" rx="1" transform="rotate(-180 144.812 60.8896)" fill="#004042" fill-opacity="0.1"/>
<rect x="103.723" y="102.268" width="21.6141" height="101.268" rx="1" transform="rotate(-180 103.723 102.268)" fill="#004042" fill-opacity="0.1"/>
<rect x="62.6797" y="102.268" width="21.6141" height="101.268" rx="1" transform="rotate(-180 62.6797 102.268)" fill="#004042" fill-opacity="0.1"/>
<rect x="21.6133" y="20.5986" width="21.6141" height="19.6002" rx="1" transform="rotate(-180 21.6133 20.5986)" fill="#004042" fill-opacity="0.1"/>
</svg>
