<svg width="633" height="124" viewBox="0 0 633 124" fill="none" xmlns="http://www.w3.org/2000/svg">
<rect y="83.8379" width="21.6141" height="39.2003" rx="1" fill="white" fill-opacity="0.1"/>
<rect x="41.0742" y="63.1572" width="21.6141" height="59.8894" rx="1" fill="white" fill-opacity="0.1"/>
<rect x="82.1367" y="21.7783" width="21.6141" height="101.268" rx="1" fill="white" fill-opacity="0.1"/>
<rect x="123.188" y="21.7783" width="21.6141" height="101.268" rx="1" fill="white" fill-opacity="0.1"/>
<rect x="164.254" y="44.6406" width="21.6141" height="78.4007" rx="1" fill="white" fill-opacity="0.1"/>
<rect x="205.34" width="21.6141" height="123.045" rx="1" fill="white" fill-opacity="0.1"/>
<rect x="246.414" y="83.8379" width="21.6141" height="39.2003" rx="1" fill="white" fill-opacity="0.1"/>
<rect x="41.0742" width="21.6141" height="21.778" rx="1" fill="white" fill-opacity="0.1"/>
<rect x="538.184" width="21.6141" height="21.778" rx="1" fill="white" fill-opacity="0.1"/>
<rect x="287.457" y="63.1572" width="21.6141" height="59.8894" rx="1" fill="white" fill-opacity="0.1"/>
<rect x="330.691" y="21.7783" width="21.6141" height="101.268" rx="1" fill="white" fill-opacity="0.1"/>
<rect x="373.93" y="21.7783" width="21.6141" height="101.268" rx="1" fill="white" fill-opacity="0.1"/>
<rect x="456.047" width="21.6141" height="123.045" rx="1" fill="white" fill-opacity="0.1"/>
<rect x="497.109" y="83.8379" width="21.6141" height="39.2003" rx="1" fill="white" fill-opacity="0.1"/>
<rect x="538.184" y="63.1572" width="21.6141" height="59.8894" rx="1" fill="white" fill-opacity="0.1"/>
<rect x="579.273" y="21.7783" width="21.6141" height="101.268" rx="1" fill="white" fill-opacity="0.1"/>
<rect x="620.316" y="21.7783" width="21.6141" height="101.268" rx="1" fill="white" fill-opacity="0.1"/>
</svg>
