<svg xmlns="http://www.w3.org/2000/svg" width="24" height="24" viewBox="0 0 24 24" fill="none">
<path d="M12.0659 21.7502L12.0599 21.7492H12.0439C8.86191 21.7492 6.82891 20.2422 6.62891 20.1552L2.87891 21.1302L3.88391 17.4852L3.64491 17.1102C2.65491 15.5342 2.12891 13.7192 2.12891 11.8502C2.12891 3.05724 12.8739 -1.33977 19.0919 4.87524C25.2949 11.0252 20.9399 21.7502 12.0659 21.7502Z" fill="white"/>
<path d="M17.5071 14.3062L17.4981 14.3812C17.1971 14.2312 15.7311 13.5142 15.4581 13.4152C14.8451 13.1882 15.0181 13.3792 13.8411 14.7272C13.6661 14.9222 13.4921 14.9372 13.1951 14.8022C12.8951 14.6522 11.9321 14.3372 10.7921 13.3172C9.90414 12.5222 9.30814 11.5472 9.13214 11.2472C8.83914 10.7412 9.45214 10.6692 10.0101 9.61319C10.1101 9.40319 10.0591 9.23819 9.98514 9.08919C9.91014 8.93919 9.31314 7.46919 9.06314 6.88319C8.82314 6.29919 8.57614 6.37319 8.39114 6.37319C7.81514 6.32319 7.39414 6.33119 7.02314 6.71719C5.40914 8.49119 5.81614 10.3212 7.19714 12.2672C9.91114 15.8192 11.3571 16.4732 14.0011 17.3812C14.7151 17.6082 15.3661 17.5762 15.8811 17.5022C16.4551 17.4112 17.6481 16.7812 17.8971 16.0762C18.1521 15.3712 18.1521 14.7862 18.0771 14.6512C18.0031 14.5162 17.8071 14.4412 17.5071 14.3062Z" fill="#004042"/>
</svg>