<svg width="25" height="26" viewBox="0 0 25 26" fill="none" xmlns="http://www.w3.org/2000/svg">
<g clip-path="url(#clip0_1997_12969)">
<path d="M14.6004 0.506836C15.0496 0.667643 15.3686 0.944336 15.4637 1.43783C15.476 1.50293 15.5516 1.56934 15.6147 1.60905C17.3198 2.6735 18.1668 4.21582 18.1876 6.21908C18.1902 6.44434 18.1876 6.6696 18.1876 6.90723C18.3139 6.91374 18.4103 6.91569 18.506 6.92415C18.9591 6.96582 19.2944 7.18587 19.4526 7.61621C19.6167 8.06283 19.5542 8.48861 19.2104 8.83366C19.0952 8.94954 19.0789 9.04525 19.1108 9.19303C19.3152 10.1377 18.6655 11.0934 17.7072 11.2471C17.5184 11.277 17.4617 11.3571 17.4253 11.5329C17.1369 12.9242 16.4806 14.1012 15.3595 14.9971C15.2384 15.0941 15.1896 15.1924 15.1948 15.346C15.2059 15.6709 15.2052 15.9964 15.1954 16.3219C15.1889 16.5316 15.2755 16.6455 15.4715 16.7223C16.7879 17.2347 18.0952 17.7712 19.4168 18.2705C20.3198 18.6117 20.924 19.2171 21.2749 20.1103C21.8302 21.5244 22.1232 22.9873 22.1675 24.5049C22.1818 24.999 22.0008 25.335 21.5333 25.5068H17.3335C17.2007 25.3734 17.0672 25.2347 17.1414 25.0238C17.2573 24.6943 17.562 24.792 17.7938 24.764C17.8087 24.7308 17.8204 24.7165 17.8211 24.7021C17.8237 24.1813 17.8289 23.6611 17.827 23.1403C17.8231 22.0602 17.9259 22.2562 17.1505 21.4515C16.6675 20.9502 16.4207 20.3695 16.435 19.6722C16.4461 19.1436 16.4409 18.6149 16.4331 18.0856C16.4318 18.0088 16.4005 17.8929 16.3458 17.8643C16.1844 17.7777 16.0047 17.7249 15.797 17.6455C15.797 17.7751 15.7977 17.8708 15.797 17.9665C15.7931 18.4463 15.8087 18.9274 15.7788 19.4053C15.7417 19.9958 15.3289 20.4847 14.7606 20.641C14.5757 20.6917 14.3758 20.7048 14.1824 20.7087C13.672 20.7178 13.1622 20.7119 12.6401 20.7119V21.7464C12.8895 21.7464 13.1238 21.7432 13.3582 21.7471C13.7664 21.7542 14.004 21.9945 14.0112 22.4059C14.0158 22.6663 14.0151 22.9268 14.0112 23.1872C14.0053 23.6162 13.7742 23.848 13.3458 23.8545C13.1128 23.8577 12.8797 23.8545 12.6453 23.8545V24.7699C12.754 24.7699 12.8426 24.7699 12.9305 24.7699C13.9396 24.7699 14.9487 24.7712 15.9572 24.7692C16.1375 24.7692 16.3074 24.8265 16.338 25.0029C16.3608 25.1325 16.2794 25.2816 16.2371 25.4202C16.2267 25.4535 16.1876 25.4782 16.1616 25.5068H3.46563C2.99688 25.3356 2.81654 24.9997 2.83086 24.5055C2.87644 22.9118 3.18698 21.3773 3.81198 19.9092C4.1375 19.1442 4.69675 18.6208 5.47084 18.3187C6.79441 17.8024 8.11537 17.2783 9.43764 16.7581C9.78724 16.6208 9.80027 16.6032 9.80027 16.223C9.80027 15.8896 9.88881 15.5205 9.77422 15.2327C9.6629 14.9528 9.34193 14.7568 9.11472 14.5231C8.29766 13.682 7.80938 12.6702 7.57435 11.5309C7.5392 11.3597 7.48972 11.2751 7.29701 11.2386C6.37253 11.0635 5.76511 10.1409 5.9461 9.20996C5.97474 9.06282 5.96042 8.96712 5.83803 8.85449C5.47409 8.52116 5.42006 8.08952 5.56524 7.64355C5.71042 7.19759 6.05157 6.96647 6.51641 6.92611C6.64467 6.91504 6.77422 6.92415 6.93243 6.92415C6.93243 6.70866 6.93308 6.51595 6.93243 6.32324C6.92396 4.33301 7.73451 2.77767 9.39792 1.67155C9.46889 1.62467 9.52943 1.52962 9.55092 1.44564C9.77032 0.581055 10.6544 0.28418 11.3608 0.839518C11.4175 0.883789 11.5027 0.913086 11.5744 0.913086C12.1681 0.913086 12.7612 0.90918 13.355 0.894857C13.4487 0.892904 13.5464 0.842773 13.6336 0.797852C13.8133 0.707357 13.9858 0.604492 14.1609 0.506836C14.3074 0.506836 14.4539 0.506836 14.6004 0.506836ZM8.11862 9.15918C8.14857 9.74577 8.14271 10.3154 8.21238 10.8753C8.37709 12.2093 8.90443 13.3734 9.93113 14.2783C10.7593 15.0081 11.702 15.4144 12.8289 15.3109C14.0184 15.2015 14.9077 14.5648 15.6427 13.6826C16.4324 12.7347 16.7625 11.6045 16.8419 10.3949C16.8686 9.98665 16.8465 9.57454 16.8465 9.15918H8.11862ZM6.43763 24.7705C6.43763 24.251 6.43698 23.7646 6.43763 23.2783C6.44089 21.9639 6.32761 21.9385 7.37058 20.8844C7.68243 20.5693 7.83347 20.1865 7.82696 19.7393C7.82045 19.292 7.82696 18.8447 7.82501 18.3975C7.82501 18.3376 7.81329 18.277 7.80417 18.193C7.14011 18.4548 6.50534 18.7236 5.85691 18.9561C5.13165 19.2152 4.64987 19.6969 4.39792 20.4183C4.34193 20.5791 4.27683 20.7367 4.22019 20.8975C3.80743 22.0726 3.59974 23.2848 3.5737 24.529C3.57175 24.6331 3.52813 24.7718 3.71823 24.7712C4.61211 24.7699 5.50599 24.7705 6.43763 24.7705ZM18.5652 24.7581C18.6668 24.7633 18.7384 24.7705 18.8094 24.7705C19.5978 24.7712 20.3869 24.7646 21.1753 24.7757C21.3803 24.7783 21.4376 24.7165 21.4318 24.514C21.3901 23.0114 21.0932 21.5648 20.5027 20.1813C20.2684 19.6312 19.8673 19.2458 19.3113 19.0251C18.7534 18.8031 18.1935 18.5856 17.6342 18.3662C17.4923 18.3109 17.3497 18.2575 17.1766 18.1917C17.1766 18.5381 17.2065 18.8571 17.1707 19.1683C17.0704 20.0407 17.3556 20.738 18.0242 21.3057C18.4246 21.6455 18.5809 22.1038 18.5685 22.6338C18.5516 23.3317 18.5646 24.0303 18.5646 24.7581H18.5652ZM9.20586 17.6429C9.03204 17.71 8.90638 17.7686 8.77487 17.8057C8.60625 17.8532 8.55027 17.9495 8.56003 18.1247C8.57566 18.4085 8.5392 18.6969 8.56915 18.9782C8.69545 20.1475 8.35756 21.1266 7.43894 21.889C7.23256 22.0602 7.16876 22.3024 7.17201 22.5693C7.17852 23.1631 7.17396 23.7575 7.17396 24.3512C7.17396 24.486 7.17396 24.6208 7.17396 24.7549H11.8647V23.8538C11.3341 23.8538 10.8231 23.8597 10.312 23.8519C9.95196 23.846 9.72019 23.6136 9.70977 23.2536C9.70066 22.9528 9.70066 22.6514 9.70977 22.3506C9.72084 21.9938 9.95652 21.7646 10.3139 21.7484C10.4279 21.7432 10.5418 21.7471 10.6557 21.7464C11.06 21.7464 11.4643 21.7464 11.8647 21.7464V20.7119C11.5125 20.7119 11.1792 20.6969 10.8471 20.7145C9.89922 20.7666 9.14792 20.1071 9.20196 19.0674C9.22605 18.6064 9.20586 18.1436 9.20586 17.6416V17.6429ZM9.52943 2.50814C8.09909 3.48535 7.50209 5.20475 7.6974 6.90202H9.52878C9.52878 6.78809 9.52878 6.69238 9.52878 6.59603C9.52878 6.23796 9.52162 5.87988 9.53334 5.52246C9.5405 5.29395 9.70001 5.14681 9.90313 5.14746C10.1063 5.14876 10.2508 5.2985 10.2645 5.52767C10.269 5.60905 10.2664 5.69043 10.2664 5.77181C10.2664 6.14421 10.2664 6.5166 10.2664 6.90397H10.9741C10.9787 6.83691 10.9852 6.78158 10.9852 6.72689C10.9852 5.06738 10.9858 3.40788 10.9845 1.74772C10.9845 1.67546 10.9949 1.57715 10.9546 1.53678C10.8589 1.44108 10.7345 1.30957 10.6232 1.31087C10.5125 1.31217 10.3862 1.44368 10.3009 1.5459C10.2534 1.60254 10.2684 1.71712 10.2684 1.80566C10.2664 2.51335 10.271 3.22103 10.2632 3.92871C10.2619 4.04395 10.2449 4.2015 10.1714 4.26335C10.0757 4.34342 9.91029 4.38965 9.78529 4.37272C9.6043 4.34733 9.53269 4.18197 9.53139 4.00423C9.52813 3.5166 9.53008 3.02832 9.53008 2.50814H9.52943ZM10.1968 17.2152C9.98972 17.2686 9.93568 17.4033 9.94089 17.6103C9.95521 18.1305 9.94219 18.6514 9.94675 19.1715C9.95066 19.6982 10.2208 19.9704 10.7436 19.9717C11.9148 19.9749 13.0861 19.9749 14.2573 19.9717C14.7801 19.9704 15.0529 19.6956 15.0561 19.1722C15.0594 18.652 15.0477 18.1312 15.062 17.611C15.0678 17.4033 15.0112 17.2699 14.8061 17.2145C13.5757 18.639 11.4337 18.6377 10.1968 17.2145V17.2152ZM12.5138 8.41829C13.8152 8.41829 15.1167 8.41829 16.4175 8.41829C17.0763 8.41829 17.7352 8.4209 18.394 8.41699C18.674 8.41569 18.8231 8.24772 18.7925 7.986C18.7651 7.75228 18.6356 7.66309 18.31 7.66309C14.715 7.66309 11.1206 7.66309 7.52553 7.66309C7.22474 7.66309 6.92331 7.65788 6.62253 7.66504C6.33672 7.67155 6.21172 7.82324 6.24297 8.1071C6.26706 8.3265 6.39336 8.41829 6.68178 8.41894C8.62579 8.4196 10.5691 8.41894 12.5132 8.41894L12.5138 8.41829ZM13.2632 6.90723V1.64486H11.7352V6.90788H13.2632V6.90723ZM17.4305 6.90592C17.6447 4.62663 16.6056 3.10579 15.4884 2.44173V6.90592H17.4305ZM14.4266 15.6195C13.144 16.221 11.8497 16.2152 10.5177 15.5928C10.5412 15.9215 10.4637 16.264 10.5971 16.4697C11.4611 17.805 13.0412 17.7952 13.9767 16.9899C14.4103 16.6169 14.5665 16.1859 14.4266 15.6195ZM14.7189 6.90462C14.726 6.83626 14.7365 6.78158 14.7365 6.72689C14.7371 5.06869 14.7378 3.41113 14.7358 1.75293C14.7358 1.6735 14.7404 1.56803 14.6948 1.51986C14.6076 1.42741 14.4858 1.30957 14.3777 1.30892C14.2697 1.30892 14.1473 1.4248 14.0594 1.5166C14.0138 1.56413 14.019 1.6696 14.019 1.74902C14.0171 3.40723 14.0171 5.06478 14.0184 6.72298C14.0184 6.78418 14.0314 6.84473 14.0379 6.90462H14.7195H14.7189ZM13.2703 22.499H10.4624V23.0986H13.2703V22.499ZM17.6076 10.5036C18.1557 10.4079 18.5353 9.82975 18.3829 9.30827C18.3654 9.24772 18.2912 9.16439 18.2378 9.15983C18.0301 9.14225 17.8204 9.15267 17.6076 9.15267V10.5036ZM7.40508 9.15202C7.20326 9.15202 7.03073 9.13639 6.86407 9.15983C6.79506 9.1696 6.70261 9.25163 6.68112 9.31999C6.52813 9.80241 6.92266 10.432 7.40508 10.4873V9.15267V9.15202Z" fill="#004042"/>
<path d="M16.1641 25.5068C16.1901 25.4782 16.2298 25.4541 16.2396 25.4202C16.2819 25.2822 16.3626 25.1331 16.3405 25.0029C16.3099 24.8265 16.14 24.7692 15.9596 24.7692C14.9505 24.7712 13.9414 24.7699 12.9329 24.7699C12.8444 24.7699 12.7565 24.7699 12.6478 24.7699V23.8545C12.8815 23.8545 13.1152 23.8571 13.3483 23.8545C13.776 23.8486 14.0078 23.6162 14.0137 23.1872C14.0169 22.9268 14.0176 22.6663 14.0137 22.4059C14.0072 21.9951 13.7689 21.7549 13.3607 21.7471C13.1263 21.7425 12.8919 21.7464 12.6426 21.7464V20.7119C13.1647 20.7119 13.6751 20.7178 14.1849 20.7087C14.3783 20.7054 14.5781 20.6924 14.763 20.641C15.332 20.4847 15.7441 19.9958 15.7812 19.4053C15.8118 18.9274 15.7956 18.4463 15.7995 17.9665C15.8001 17.8708 15.7995 17.7751 15.7995 17.6455C16.0072 17.7249 16.1868 17.7777 16.3483 17.8643C16.403 17.8936 16.4342 18.0094 16.4355 18.0856C16.4427 18.6143 16.4479 19.1436 16.4375 19.6722C16.4232 20.3701 16.6699 20.9502 17.153 21.4515C17.9277 22.2562 17.8255 22.0596 17.8294 23.1403C17.8314 23.6611 17.8262 24.1813 17.8236 24.7021C17.8236 24.7165 17.8118 24.7308 17.7962 24.764C17.5645 24.792 17.2604 24.6937 17.1439 25.0238C17.0697 25.2347 17.2031 25.3727 17.3359 25.5068H16.1641Z" fill="white"/>
<path d="M8.11979 9.15918H16.847C16.847 9.57454 16.8698 9.986 16.8424 10.3949C16.763 11.6051 16.4329 12.7347 15.6432 13.6826C14.9082 14.5648 14.0195 15.2015 12.8294 15.3109C11.7025 15.415 10.7598 15.0088 9.93164 14.2783C8.90495 13.3734 8.37826 12.2093 8.21289 10.8753C8.14388 10.3154 8.14909 9.74577 8.11914 9.15918H8.11979Z" fill="white"/>
<path d="M6.43837 24.7708C5.50673 24.7708 4.61285 24.7702 3.71897 24.7715C3.52822 24.7715 3.57184 24.6335 3.57444 24.5293C3.60048 23.2852 3.80752 22.0729 4.22093 20.8978C4.27757 20.737 4.34267 20.5794 4.39866 20.4186C4.65061 19.6973 5.13238 19.2155 5.85765 18.9564C6.50608 18.7246 7.14085 18.4557 7.80491 18.1934C7.81402 18.278 7.82574 18.3379 7.82574 18.3978C7.82705 18.8451 7.82119 19.2923 7.8277 19.7396C7.83421 20.1868 7.68382 20.5697 7.37132 20.8848C6.3277 21.9388 6.44163 21.9642 6.43837 23.2786C6.43707 23.765 6.43837 24.2513 6.43837 24.7708Z" fill="white"/>
<path d="M18.5656 24.7578C18.5656 24.0299 18.5532 23.3314 18.5695 22.6335C18.5818 22.1035 18.4256 21.6452 18.0252 21.3053C17.3572 20.7376 17.0721 20.0404 17.1717 19.168C17.2075 18.8568 17.1775 18.5378 17.1775 18.1914C17.3507 18.2572 17.494 18.3105 17.6352 18.3659C18.1945 18.5846 18.7537 18.8027 19.3123 19.0247C19.8683 19.2454 20.2687 19.6309 20.5037 20.181C21.0936 21.5651 21.3904 23.0111 21.4328 24.5137C21.4386 24.7161 21.3807 24.778 21.1762 24.7754C20.3878 24.7643 19.5988 24.7715 18.8104 24.7702C18.7387 24.7702 18.6678 24.763 18.5662 24.7578H18.5656Z" fill="white"/>
<path d="M9.20581 17.6426C9.20581 18.1445 9.22599 18.6074 9.2019 19.0684C9.14786 20.1081 9.89916 20.7676 10.8471 20.7155C11.1785 20.6973 11.5118 20.7129 11.8647 20.7129V21.7474C11.4643 21.7474 11.06 21.7474 10.6557 21.7474C10.5417 21.7474 10.4278 21.7441 10.3139 21.7494C9.95646 21.7656 9.72013 21.9948 9.70971 22.3516C9.7006 22.6523 9.7006 22.9538 9.70971 23.2546C9.72013 23.6146 9.9519 23.847 10.3119 23.8529C10.823 23.8607 11.3341 23.8548 11.8647 23.8548V24.7559H7.1739C7.1739 24.6217 7.1739 24.487 7.1739 24.3522C7.1739 23.7585 7.17846 23.1641 7.17195 22.5703C7.16935 22.3034 7.23315 22.0612 7.43888 21.89C8.3575 21.1276 8.69539 20.1484 8.56909 18.9792C8.53849 18.6979 8.57495 18.4095 8.55997 18.1257C8.55021 17.9505 8.6062 17.8542 8.77482 17.8066C8.90633 17.7695 9.03198 17.7103 9.20581 17.6439V17.6426Z" fill="white"/>
<path d="M9.53082 2.50782C9.53082 3.028 9.52887 3.51629 9.53213 4.00392C9.53343 4.18165 9.60504 4.34701 9.78603 4.37241C9.91038 4.38998 10.0764 4.34311 10.1721 4.26303C10.2457 4.20118 10.2626 4.04363 10.2639 3.9284C10.2717 3.22071 10.2672 2.51303 10.2691 1.80535C10.2691 1.71681 10.2548 1.60222 10.3017 1.54558C10.3869 1.44272 10.5132 1.31186 10.6239 1.31056C10.7353 1.30925 10.8596 1.44011 10.9553 1.53647C10.9957 1.57683 10.9853 1.67514 10.9853 1.74741C10.9866 3.40691 10.9866 5.06642 10.9859 6.72657C10.9859 6.78191 10.9794 6.8366 10.9748 6.90366H10.2672C10.2672 6.51629 10.2672 6.14389 10.2672 5.77149C10.2672 5.69011 10.2698 5.60873 10.2652 5.52735C10.2515 5.29819 10.1076 5.1478 9.90387 5.14714C9.70075 5.14584 9.54124 5.29363 9.53408 5.52214C9.52301 5.87957 9.53017 6.23829 9.52952 6.59571C9.52952 6.69207 9.52952 6.78777 9.52952 6.9017H7.69814C7.50283 5.20444 8.09983 3.48569 9.53017 2.50782H9.53082Z" fill="white"/>
<path d="M10.1977 17.2148C11.4353 18.6374 13.5766 18.6387 14.8071 17.2148C15.0121 17.2702 15.0688 17.4036 15.0629 17.6113C15.0486 18.1315 15.061 18.6523 15.0571 19.1725C15.0538 19.696 14.781 19.9707 14.2582 19.972C13.087 19.9753 11.9158 19.9753 10.7446 19.972C10.2211 19.9707 9.95159 19.6986 9.94768 19.1719C9.94377 18.6517 9.95614 18.1309 9.94182 17.6107C9.93596 17.4036 9.99065 17.2689 10.1977 17.2155V17.2148Z" fill="white"/>
<path d="M12.5151 8.41854C10.5711 8.41854 8.62773 8.41854 6.68372 8.41854C6.39531 8.41854 6.26901 8.3261 6.24492 8.10669C6.21367 7.82349 6.33867 7.67115 6.62447 7.66464C6.92526 7.65813 7.22604 7.66268 7.52747 7.66268C11.1225 7.66268 14.7169 7.66268 18.312 7.66268C18.6375 7.66268 18.7677 7.75188 18.7944 7.9856C18.825 8.24797 18.6759 8.41529 18.396 8.41659C17.7371 8.4205 17.0782 8.41789 16.4194 8.41789C15.118 8.41789 13.8165 8.41789 12.5157 8.41789L12.5151 8.41854Z" fill="white"/>
<path d="M13.2643 6.90755H11.7363V1.64453H13.2643V6.90755Z" fill="white"/>
<path d="M17.4323 6.90658H15.4902V2.44238C16.6074 3.10579 17.6471 4.62728 17.4323 6.90658Z" fill="white"/>
<path d="M14.428 15.6204C14.568 16.1868 14.4117 16.6178 13.9781 16.9909C13.0426 17.7962 11.4625 17.806 10.5986 16.4707C10.4651 16.265 10.5426 15.9225 10.5191 15.5938C11.8512 16.2161 13.1454 16.222 14.428 15.6204Z" fill="white"/>
<path d="M14.7197 6.90528H14.038C14.0315 6.84603 14.0185 6.78483 14.0185 6.72364C14.0172 5.06543 14.0172 3.40788 14.0191 1.74968C14.0191 1.67025 14.0139 1.56478 14.0595 1.51726C14.1474 1.42546 14.2704 1.30892 14.3779 1.30957C14.4859 1.30957 14.6077 1.42741 14.6949 1.52051C14.7405 1.56869 14.7359 1.67416 14.7359 1.75358C14.7379 3.41179 14.7379 5.06934 14.7366 6.72754C14.7366 6.78223 14.7262 6.83757 14.719 6.90528H14.7197Z" fill="white"/>
<path d="M13.2708 22.5V23.0996H10.4629V22.5H13.2708Z" fill="white"/>
<path d="M17.6094 10.5044V9.15345C17.8223 9.15345 18.0319 9.14304 18.2396 9.16062C18.293 9.16517 18.3672 9.24786 18.3848 9.30905C18.5371 9.83119 18.1569 10.4087 17.6094 10.5044Z" fill="white"/>
<path d="M7.40605 9.15321V10.4878C6.92363 10.4325 6.52844 9.80295 6.68209 9.32053C6.70358 9.25217 6.79602 9.17014 6.86503 9.16038C7.0317 9.13694 7.20423 9.15256 7.40605 9.15256V9.15321Z" fill="white"/>
</g>
<defs>
<clipPath id="clip0_1997_12969">
<rect width="25" height="25" fill="white" transform="translate(0 0.506836)"/>
</clipPath>
</defs>
</svg>
