<svg width="20" height="21" viewBox="0 0 20 21" fill="none" xmlns="http://www.w3.org/2000/svg">
<path d="M18.9789 6.18898C18.7628 5.38572 18.1295 4.75252 17.3264 4.53622C15.8591 4.13477 9.99001 4.13477 9.99001 4.13477C9.99001 4.13477 4.12113 4.13477 2.65388 4.521C1.86619 4.73707 1.21742 5.38583 1.00136 6.18898C0.615234 7.65611 0.615234 10.6988 0.615234 10.6988C0.615234 10.6988 0.615234 13.7567 1.00136 15.2085C1.21765 16.0117 1.85074 16.6449 2.654 16.8612C4.13658 17.2627 9.99023 17.2627 9.99023 17.2627C9.99023 17.2627 15.8591 17.2627 17.3264 16.8765C18.1296 16.6603 18.7628 16.0271 18.9791 15.224C19.3651 13.7567 19.3651 10.7142 19.3651 10.7142C19.3651 10.7142 19.3806 7.65611 18.9789 6.18898ZM8.12141 13.5097V7.88786L13.0019 10.6988L8.12141 13.5097Z" fill="white"/>
</svg>
